<svg width="178" height="225" viewBox="0 0 178 225" fill="none" xmlns="http://www.w3.org/2000/svg">
<ellipse cx="89" cy="80.745" rx="89" ry="80.745" fill="#5554ED" fill-opacity="0.3"/>
<path d="M66.582 188.471C64.8302 189.417 63.9451 189.668 62.9349 191.083C61.262 193.426 58.4091 198.678 56.8849 200.952C56.8849 200.952 57.44 201.603 58.2674 201.587L62.4766 196.865C63.2355 195.871 63.7265 196.732 63.647 197.873C63.4938 200.076 63.3336 202.149 62.9586 204.043C62.4869 206.425 62.1773 208.724 64.6533 210.71C67.7351 213.181 70.5066 214.79 73.5287 215.315C74.8139 215.538 77.9424 215.047 76.4861 211.679C76.0176 210.595 75.401 209.043 75.8048 203.32C76.1381 198.594 77.2213 196.043 78.8769 193.198C80.5332 190.352 92.2628 179.977 94.9619 177.384C97.6609 174.791 96.961 174.049 96.961 174.049L95.697 175.28C95.697 175.28 94.4446 176.414 87.0607 173.005C79.6775 169.596 79.2807 167.57 79.2807 167.57L79.9012 166.439C79.9012 166.439 78.425 166.497 77.513 168.472C75.9881 171.774 70.0368 184.116 69.3734 185.525C68.71 186.933 67.3755 188.043 66.582 188.471Z" fill="#263238"/>
<path d="M118.655 144.577C118.485 139.487 117.326 121.963 116.203 115.979C116.203 115.979 115.246 109.328 113.261 103.122C112.224 99.8796 111.263 97.0736 110.568 94.5889C103.83 98.3779 86.8345 99.0393 78.875 95.0771C77.613 96.7473 73.848 100.93 70.9431 106.826C68.4049 111.978 67.3973 115.189 67.7133 121.521C68.0024 127.315 73.4749 144.869 76.6342 152.097C78.5475 159.424 78.0251 164.229 77.7495 168.446C77.4739 172.663 79.534 185.648 83.2381 196.988C83.2381 196.988 85.268 198.322 89.8188 198.234C94.3696 198.145 95.6503 196.747 95.6503 196.747L99.3852 173.258C99.3852 173.258 106.767 165.329 110.71 161.075C114.654 156.82 118.92 152.522 118.655 144.577Z" fill="#455A64"/>
<path d="M82.351 204.224C81.4979 205.773 80.9159 206.364 81.0018 207.993C81.1441 210.69 82.2215 216.353 82.4446 218.929C82.4446 218.929 83.3464 219.242 84.0367 218.876L84.4585 213.081C84.4399 211.915 85.4276 212.434 86.1192 213.433C87.4543 215.363 88.6965 217.185 89.6387 218.948C90.8232 221.165 92.0898 223.243 95.5048 223.865C99.755 224.639 103.17 224.815 106.076 223.968C107.312 223.608 109.632 221.855 106.161 219.627C105.044 218.91 103.491 217.861 100.027 212.846C97.1681 208.705 96.3881 206.084 95.8977 202.968C95.4074 199.853 98.434 186.062 98.9929 182.714C99.5525 179.366 98.4673 179.038 98.4673 179.038L98.2161 180.619C98.2161 180.619 97.9097 182.114 89.3964 182.385C80.8832 182.657 79.2007 181.112 79.2007 181.112L78.9738 179.891C78.9738 179.891 77.763 180.57 78.3046 182.632C79.2096 186.077 82.3798 199.063 82.7548 200.538C83.1285 202.014 82.7375 203.523 82.351 204.224Z" fill="#263238"/>
<path d="M99.3859 173.258C100.876 163.801 100.574 153.885 100.383 147.521C100.192 141.157 98.4289 119.497 98.4289 119.497C98.4289 119.497 105.372 117.003 108.906 111.709C106.617 118.449 101.335 120.925 101.335 120.925C101.335 120.925 102.548 139.684 102.518 150.912C102.488 162.141 99.3859 173.258 99.3859 173.258Z" fill="#37474F"/>
<path d="M138.274 73.416C137.717 73.9083 136.523 74.8297 134.171 76.2939C132.274 77.4743 127.404 80.4946 127.404 80.4946C127.404 80.4946 119.242 71.6918 116.06 68.2784C110.969 62.814 108.504 61.5703 103.872 61.5477L105.411 77.183C105.411 77.183 113.122 84.6938 117.157 88.2372C122.063 92.5448 124.674 93.384 126.453 93.2422C132.026 92.7422 136.635 86.6359 144.572 78.3398C145.551 77.4939 146.053 77.7046 147.728 77.1619C148.788 76.8186 149.802 76.5349 151.521 75.6433C152.49 75.1402 152.943 74.5949 153.321 73.9489C153.595 73.4807 151.923 71.625 151.816 71.1147C151.656 70.35 152.047 69.557 151.85 68.798C151.827 68.7106 151.796 68.6284 151.758 68.5503C151.549 68.1175 151.132 67.8066 150.77 67.4294C150.724 67.3811 150.679 67.3282 150.67 67.267C150.662 67.2125 150.667 67.1509 150.708 67.1072C151.638 66.1272 153.391 64.5289 154.751 63.3351C155.445 62.7256 156.616 61.6818 156.051 60.7249C155.878 60.4309 155.428 60.2937 155.025 60.3246C154.621 60.3554 154.254 60.5209 153.912 60.6961C152.637 61.3493 151.522 62.1808 150.414 63.0077C149.442 63.7328 148.471 64.4585 147.499 65.1836C145.771 66.4735 144.035 67.7701 142.537 69.2379C141.824 69.9358 140.932 69.4465 140.442 70.2549C139.655 71.5541 138.83 72.9236 138.274 73.416Z" fill="#FFBDA7"/>
<path d="M147.441 69.2369C147.434 69.0421 147.421 68.8474 147.402 68.6521C147.401 68.6439 147.4 68.6356 147.4 68.6279C147.231 68.7831 147.076 68.9476 146.921 69.112C146.747 69.2965 146.832 69.5448 146.834 69.7673C146.837 70.0242 146.828 70.2812 146.804 70.5376C146.757 71.0495 146.65 71.5583 146.468 72.0506C146.064 73.1421 145.24 74.0502 144.186 74.8046C144.145 74.8339 144.129 74.9681 144.217 74.9321C145.549 74.3899 146.421 73.3642 146.907 72.2572C147.336 71.2792 147.476 70.2617 147.441 69.2369Z" fill="#F0997A"/>
<path d="M148.883 74.3031L148.884 74.3021C148.885 74.301 148.885 74.3 148.885 74.2985L152.991 64.2566L152.992 64.2556L152.996 64.2448L152.994 64.2443C153.076 64.0511 153.006 63.8136 152.758 63.5742C152.251 63.0854 151.209 62.7766 150.428 62.8834C150.036 62.9374 149.786 63.0854 149.696 63.2812L144.582 72.9895C144.421 73.2994 144.363 73.6484 144.437 74.004C144.646 75.0092 145.833 75.6886 147.087 75.5206C147.947 75.406 148.617 74.9213 148.883 74.3031Z" fill="#455A64"/>
<path d="M149.695 63.2814L144.582 72.9897C144.42 73.2996 144.362 73.6485 144.436 74.0042C144.638 74.9703 145.741 75.6322 146.939 75.5346C146.164 75.4966 145.324 74.5931 145.923 73.2528C146.526 71.9048 149.998 65.1392 151.05 62.8774C150.834 62.8559 150.623 62.8569 150.427 62.8836C150.036 62.9376 149.785 63.0856 149.695 63.2814Z" fill="#37474F"/>
<path d="M152.755 63.5715C152.248 63.0838 151.204 62.7759 150.423 62.8839C150.045 62.9363 149.799 63.0766 149.703 63.2631C149.633 63.4003 149.35 63.9189 149.276 64.0597C149.167 64.2647 149.236 64.5248 149.508 64.7858C150.031 65.289 151.107 65.606 151.911 65.4945C152.327 65.437 152.589 65.2761 152.673 65.0649C152.73 64.9189 152.996 64.2447 152.996 64.2447C153.08 64.0515 153.005 63.8115 152.755 63.5715Z" fill="#5554ED"/>
<path d="M152.755 63.5717C153.262 64.0594 153.04 64.5424 152.26 64.6509C151.479 64.7588 150.436 64.4515 149.929 63.9633C149.422 63.4756 149.644 62.9925 150.424 62.884C151.204 62.7756 152.248 63.0834 152.755 63.5717Z" fill="#5554ED"/>
<path opacity="0.3" d="M152.755 63.5717C153.262 64.0594 153.04 64.5424 152.26 64.6509C151.479 64.7588 150.436 64.4515 149.929 63.9633C149.422 63.4756 149.644 62.9925 150.424 62.884C151.204 62.7756 152.248 63.0834 152.755 63.5717Z" fill="white"/>
<path d="M152.61 59.2455C153.127 59.1746 153.818 59.3791 154.153 59.7029C154.32 59.8637 154.367 60.0236 154.309 60.1525V60.1546L152.516 64.0043C152.515 64.0054 152.515 64.0059 152.515 64.0069C152.454 64.1354 152.289 64.233 152.031 64.268C151.514 64.3389 150.823 64.1343 150.488 63.8106C150.32 63.6487 150.273 63.4878 150.333 63.3583L152.125 59.5091H152.126C152.184 59.3796 152.35 59.281 152.61 59.2455Z" fill="#37474F"/>
<path d="M152.125 59.5101C152.184 59.3801 152.35 59.2815 152.61 59.2455C152.805 59.2188 153.025 59.2311 153.241 59.2748L150.985 64.1163C150.788 64.0367 150.612 63.9324 150.486 63.8111C150.318 63.6492 150.272 63.4883 150.331 63.3588L152.125 59.5101Z" fill="#263238"/>
<path d="M154.462 60.5035C156.322 61.1695 158.73 60.8514 161.246 59.3898C166.28 56.4672 169.841 50.0798 169.2 45.1236C168.88 42.6455 167.57 40.9943 165.711 40.3278L162.287 39.1006C160.428 38.4345 158.019 38.7532 155.503 40.2142C150.469 43.1368 146.908 49.5243 147.549 54.4804C147.869 56.9585 149.179 58.6097 151.038 59.2757L154.462 60.5035ZM167.875 45.2336C168.16 47.447 167.543 50.0572 166.134 52.5831C164.726 55.1089 162.712 57.2191 160.464 58.5244C158.432 59.7049 156.494 60.061 155.006 59.5281C153.519 58.9951 152.558 57.5994 152.299 55.5982C152.013 53.3848 152.631 50.7746 154.039 48.2487C155.447 45.7228 157.461 43.6127 159.709 42.3074C161.741 41.1274 163.68 40.7708 165.167 41.3037C166.654 41.8366 167.616 43.2319 167.875 45.2336Z" fill="#5554ED"/>
<path opacity="0.3" d="M154.462 60.5035C156.322 61.1695 158.73 60.8514 161.246 59.3898C166.28 56.4672 169.841 50.0798 169.2 45.1236C168.88 42.6455 167.57 40.9943 165.711 40.3278L162.287 39.1006C160.428 38.4345 158.019 38.7532 155.503 40.2142C150.469 43.1368 146.908 49.5243 147.549 54.4804C147.869 56.9585 149.179 58.6097 151.038 59.2757L154.462 60.5035ZM167.875 45.2336C168.16 47.447 167.543 50.0572 166.134 52.5831C164.726 55.1089 162.712 57.2191 160.464 58.5244C158.432 59.7049 156.494 60.061 155.006 59.5281C153.519 58.9951 152.558 57.5994 152.299 55.5982C152.013 53.3848 152.631 50.7746 154.039 48.2487C155.447 45.7228 157.461 43.6127 159.709 42.3074C161.741 41.1274 163.68 40.7708 165.167 41.3037C166.654 41.8366 167.616 43.2319 167.875 45.2336Z" fill="white"/>
<path opacity="0.4" d="M166.778 42.4491C166.348 41.9213 165.806 41.5318 165.166 41.3026C163.679 40.7696 161.741 41.1258 159.709 42.3062C158.764 42.8546 157.862 43.5468 157.027 44.3506L152.346 42.6727C153.302 41.7137 154.364 40.8745 155.502 40.2136C158.018 38.752 160.426 38.4334 162.286 39.0999L165.711 40.3272C166.567 40.6345 167.307 41.1535 167.887 41.8643L166.778 42.4491Z" fill="#5554ED"/>
<path opacity="0.3" d="M154.462 60.5029L151.038 59.2757C149.179 58.6092 147.869 56.9585 147.549 54.4804C147.462 53.8051 147.455 53.1026 147.517 52.3867L152.244 54.0621C152.219 54.5899 152.236 55.1038 152.299 55.5976C152.558 57.5988 153.519 58.9946 155.006 59.5275C155.501 59.7048 156.047 59.7814 156.627 59.7644L156.999 60.8118C156.081 60.8807 155.225 60.7763 154.462 60.5029Z" fill="white"/>
<path d="M158.927 41.4399C153.894 44.3625 150.333 50.7499 150.974 55.7061C151.614 60.6622 156.213 62.3109 161.246 59.3882C166.28 56.4656 169.841 50.0782 169.2 45.122C168.56 40.1659 163.961 38.5172 158.927 41.4399ZM165.167 41.3021C166.655 41.8351 167.616 43.2308 167.874 45.232C168.16 47.4454 167.542 50.0556 166.134 52.5815C164.726 55.1074 162.712 57.2175 160.465 58.5228C158.432 59.7033 156.494 60.0594 155.006 59.5265C153.519 58.9936 152.558 57.5978 152.299 55.5966C152.013 53.3832 152.631 50.773 154.039 48.2471C155.447 45.7213 157.461 43.6111 159.709 42.3058C161.742 41.1253 163.68 40.7692 165.167 41.3021Z" fill="#5554ED"/>
<g opacity="0.5">
<path d="M158.927 41.4399C153.894 44.3625 150.333 50.7499 150.974 55.7061C151.614 60.6622 156.213 62.3109 161.246 59.3882C166.28 56.4656 169.841 50.0782 169.2 45.122C168.56 40.1659 163.961 38.5172 158.927 41.4399ZM165.167 41.3021C166.655 41.8351 167.616 43.2308 167.874 45.232C168.16 47.4454 167.542 50.0556 166.134 52.5815C164.726 55.1074 162.712 57.2175 160.465 58.5228C158.432 59.7033 156.494 60.0594 155.006 59.5265C153.519 58.9936 152.558 57.5978 152.299 55.5966C152.013 53.3832 152.631 50.773 154.039 48.2471C155.447 45.7213 157.461 43.6111 159.709 42.3058C161.742 41.1253 163.68 40.7692 165.167 41.3021Z" fill="white"/>
</g>
<path opacity="0.4" d="M158.546 60.5626C157.575 60.8293 156.52 60.9521 155.495 60.8026C154.471 60.6576 153.522 60.2203 152.82 59.6072C152.108 58.9951 151.638 58.2309 151.321 57.4436C151.171 57.0464 151.051 56.6419 150.97 56.2328C150.932 56.0278 150.894 55.8227 150.876 55.6162L150.827 54.9964C150.803 54.7898 150.813 54.5827 150.818 54.3761C150.824 54.169 150.824 53.9619 150.834 53.7553L150.904 53.1376L150.938 52.8287C150.952 52.7259 150.977 52.6242 150.995 52.5219C151.294 50.8851 151.896 49.2889 152.725 47.7759C153.578 46.2712 154.66 44.8476 155.982 43.5772C156.065 43.4981 156.142 43.4154 156.229 43.3388L156.493 43.1116L157.021 42.6579C157.206 42.514 157.399 42.3757 157.587 42.2344C157.776 42.0936 157.962 41.9497 158.17 41.8263L158.779 41.4414C158.983 41.315 159.199 41.2009 159.414 41.0863C159.85 40.8622 160.305 40.6634 160.774 40.4886C161.717 40.153 162.741 39.9244 163.784 39.9413C164.823 39.9521 165.862 40.2276 166.68 40.7425C167.503 41.2549 168.092 41.9672 168.491 42.7252C168.887 43.4889 169.097 44.3039 169.201 45.1215C169.081 44.3049 168.853 43.4945 168.443 42.7416C168.031 41.9939 167.432 41.2991 166.616 40.8093C165.808 40.3129 164.795 40.0523 163.782 40.0497C162.765 40.0405 161.765 40.2723 160.842 40.6089C159.921 40.9573 159.066 41.4132 158.287 41.9404C158.082 42.0622 157.899 42.2056 157.713 42.3449C157.527 42.4852 157.338 42.6224 157.155 42.7647L156.635 43.2149L156.374 43.44C156.289 43.5161 156.212 43.5983 156.131 43.6769C154.827 44.9376 153.76 46.3524 152.92 47.8453C152.091 49.3428 151.489 50.9236 151.187 52.5435C151.168 52.6447 151.143 52.7454 151.129 52.8472L151.093 53.153L151.022 53.764C151.011 53.968 151.011 54.1731 151.004 54.3771C150.999 54.5816 150.987 54.7862 151.011 54.9902C151.04 55.8078 151.186 56.6224 151.477 57.4051C151.779 58.1806 152.231 58.9324 152.918 59.5342C153.597 60.1376 154.514 60.5687 155.514 60.7208C156.514 60.8812 157.559 60.7758 158.529 60.5235C159.502 60.266 160.407 59.8616 161.246 59.3888C160.418 59.8719 159.52 60.2902 158.546 60.5626Z" fill="white"/>
<path d="M165.168 41.3013C164.584 41.0922 163.935 41.0207 163.235 41.0814C163.876 41.7911 164.293 42.786 164.449 44.005C164.736 46.2174 164.118 48.8286 162.71 51.3555C161.302 53.8804 159.288 55.991 157.039 57.2943C155.803 58.0148 154.6 58.4285 153.511 58.521C153.922 58.9773 154.421 59.3181 155.006 59.5272C156.493 60.0601 158.432 59.704 160.466 58.5225C162.711 57.2182 164.726 55.1076 166.134 52.5827C167.543 50.0558 168.16 47.4446 167.875 45.2333C167.617 43.23 166.655 41.8342 165.168 41.3013Z" fill="#5554ED"/>
<path opacity="0.3" d="M165.168 41.3013C164.584 41.0922 163.935 41.0207 163.235 41.0814C163.876 41.7911 164.293 42.786 164.449 44.005C164.736 46.2174 164.118 48.8286 162.71 51.3555C161.302 53.8804 159.288 55.991 157.039 57.2943C155.803 58.0148 154.6 58.4285 153.511 58.521C153.922 58.9773 154.421 59.3181 155.006 59.5272C156.493 60.0601 158.432 59.704 160.466 58.5225C162.711 57.2182 164.726 55.1076 166.134 52.5827C167.543 50.0558 168.16 47.4446 167.875 45.2333C167.617 43.23 166.655 41.8342 165.168 41.3013Z" fill="white"/>
<path opacity="0.4" d="M160.466 58.5229C158.432 59.7044 156.494 60.0605 155.007 59.5276C154.423 59.3185 153.923 58.9777 153.512 58.5214C154.6 58.4289 155.803 58.0152 157.04 57.2947C157.545 57.0012 158.038 56.6656 158.516 56.2951C158.116 56.6132 156.985 57.6236 158.627 57.696C160.58 57.7824 163.775 55.9328 165.098 54.2061H165.103C163.814 56.0083 162.21 57.5095 160.466 58.5229Z" fill="#5554ED"/>
<path opacity="0.7" d="M166.324 44.6767C166.61 46.8901 165.992 49.5002 164.584 52.0261C163.176 54.552 161.162 56.6621 158.914 57.9675C157.237 58.9413 155.624 59.3525 154.276 59.168C153.205 58.4855 152.513 57.248 152.299 55.5968C152.013 53.3834 152.631 50.7732 154.039 48.2473C155.448 45.7214 157.461 43.6113 159.709 42.306C161.386 41.3321 162.999 40.921 164.347 41.1055C165.418 41.788 166.111 43.0255 166.324 44.6767Z" fill="white"/>
<path d="M144.726 66.5666C145.455 66.1596 146.22 65.6812 146.952 65.3086C147.736 64.9093 148.31 64.4909 149.094 64.0916C149.297 63.9883 149.784 63.9601 150.042 64.0212C150.307 64.0844 150.488 64.3671 150.524 64.5685C150.6 64.9838 150.392 65.3754 150.197 65.75C149.916 66.2907 149.491 66.7779 149.017 67.2203C148.121 68.059 147.141 68.8412 146.325 69.7334C145.002 71.178 139.483 72.1107 139.483 72.1107C140.037 70.8121 140.332 70.2668 140.931 69.204C141.194 68.7379 141.744 68.2672 142.153 67.9691C142.529 67.6947 142.973 67.4783 143.549 67.1828C143.925 66.9901 144.355 66.7743 144.726 66.5666Z" fill="#FFBDA7"/>
<path d="M146.951 65.3082C147.781 64.8169 148.409 64.3364 149.272 63.8723C149.898 63.5079 150.699 64.1914 150.698 64.6904C150.648 65.1658 150.479 65.6278 150.216 66.0554C149.85 66.651 149.322 67.1711 148.761 67.6552C148.473 67.9034 148.174 68.1439 147.876 68.3839C147.783 68.4579 147.092 69.069 147.022 68.9986C146.919 68.8953 147.706 68.2647 147.813 68.166C148.915 67.1562 150.168 66.0944 150.376 64.7007C150.372 64.3785 149.873 63.8255 149.406 64.0614C148.536 64.4767 147.855 64.9181 146.951 65.3082Z" fill="#F0997A"/>
<path d="M146.987 68.8783C146.706 68.9924 146.399 69.0751 146.096 69.0818C145.745 69.089 145.391 69.0196 145.049 68.9625C145.011 68.9564 144.973 69.0206 145.013 69.034C145.062 69.0504 145.111 69.0674 145.161 69.0833C145.515 69.1984 145.891 69.295 146.278 69.2889C146.459 69.2858 146.648 69.2586 146.819 69.2097C146.9 69.1866 146.95 69.1183 147.003 69.0664C147.074 68.999 147.143 68.9291 147.218 68.8644C147.249 68.8382 147.28 68.8135 147.307 68.7842C147.326 68.7632 147.349 68.7087 147.374 68.6953C147.253 68.7606 147.123 68.8233 146.987 68.8783Z" fill="#F0997A"/>
<path d="M153.838 68.9292C153.226 68.8927 152.657 69.2705 152.08 69.4159C151.534 69.5531 150.78 69.8738 150.272 70.0866C149.954 70.2197 149.676 70.4057 149.401 70.5902C148.705 71.0563 148.005 71.5255 147.412 72.0759C147.205 72.2681 147.001 72.5019 147.049 72.7527C147.074 72.8766 147.159 72.9886 147.267 73.0786C147.576 73.3365 148.06 73.4224 148.502 73.3782C148.945 73.334 149.356 73.1757 149.748 73.0045C150.14 72.8334 150.525 72.6458 150.949 72.5343C151.421 72.41 151.924 72.3837 152.41 72.2984C153.254 72.1504 154.079 71.6997 154.505 71.0907C154.888 70.5439 155.078 69.1297 154.122 68.9611C154.026 68.9457 153.931 68.9349 153.838 68.9292Z" fill="#FFBDA7"/>
<path d="M152.079 69.416C151.072 69.6596 149.994 70.1766 149.247 70.7923C148.537 71.3386 147.598 71.8391 147.185 72.5632C147.121 72.7318 147.207 72.9034 147.378 73.0334C147.947 73.461 148.793 73.3027 149.445 73.0448C150.382 72.5961 151.316 72.3607 152.407 72.2991C151.352 72.4301 150.43 72.7143 149.531 73.1825C148.858 73.4924 147.852 73.6532 147.213 73.1707C147.001 73.0237 146.853 72.7549 146.944 72.5129C147.387 71.7245 148.341 71.2322 149.124 70.6746C149.889 70.0831 151.052 69.5851 152.079 69.416Z" fill="#F0997A"/>
<path d="M152.048 66.7728C151.548 66.9548 151.025 67.1387 150.547 67.3726C149.812 67.7318 148.976 68.4708 148.744 69.1754C148.704 69.2967 148.683 69.4257 148.72 69.548C148.772 69.7222 148.963 69.827 149.145 69.9139C149.82 70.2351 150.576 70.1549 151.284 69.957C151.904 69.7833 152.523 69.5968 153.1 69.3434C153.572 69.1358 154.186 68.9359 154.567 68.625C154.896 68.3562 155.064 67.8577 154.94 67.4944C154.839 67.1978 154.539 66.741 154.241 66.5493C153.88 66.317 153.53 66.3458 153.091 66.4285C152.705 66.501 152.395 66.6469 152.048 66.7728Z" fill="#FFBDA7"/>
<path d="M152.048 66.7725C151.005 67.217 149.86 67.9221 149.151 68.6955C148.96 68.9294 148.771 69.2511 148.841 69.5245C149.18 70.0615 150.17 70.1047 150.839 69.9829C151.606 69.8266 152.374 69.6046 153.1 69.3431C152.41 69.6848 151.666 69.933 150.884 70.1324C149.991 70.3832 148.137 70.0713 148.672 69.0429C149.222 67.9365 150.765 67.18 152.048 66.7725Z" fill="#F0997A"/>
<path d="M151.546 72.1021C150.807 72.266 149.958 72.7604 149.286 73.06C148.942 73.2137 148.61 73.3843 148.291 73.5703C147.971 73.7574 147.652 73.9188 147.382 74.1583C146.936 74.554 147.371 74.9137 147.86 75.0787C148.562 75.3151 149.415 75.1506 150.109 74.9631C150.349 74.8983 150.584 74.8202 150.827 74.7642C151.554 74.5977 152.264 74.5858 152.917 74.2492C153.342 74.0303 153.585 73.667 153.706 73.2738C153.76 73.0965 153.914 72.6489 153.854 72.4726C153.748 72.1581 153.367 71.9407 152.974 71.9099C152.791 71.8955 152.608 71.9171 152.427 71.9423C152.131 71.9839 151.837 72.0373 151.546 72.1021Z" fill="#FFBDA7"/>
<path d="M152.428 71.9414C150.91 72.2102 149.407 73.0181 148.166 73.753C147.57 74.0875 146.828 74.5362 147.795 74.9473C148.473 75.2258 149.254 75.0819 149.963 74.92C150.912 74.5973 152.001 74.6333 152.917 74.2484C152.498 74.4945 151.976 74.5958 151.48 74.6914C150.243 74.8933 148.965 75.6123 147.686 75.1169C146.537 74.6271 147.228 74.0073 148.035 73.6055C149.291 72.8752 150.881 72.0971 152.428 71.9414Z" fill="#F0997A"/>
<path d="M104.14 61.1201C110.122 61.8951 110.989 62.6531 115.481 67.1396C119.973 71.6255 127.403 80.0295 127.403 80.0295L131.496 77.959C131.496 77.959 129.902 81.0404 130.927 83.9471C131.951 86.8538 134.761 87.7732 136.101 87.2932C136.101 87.2932 132.503 91.887 128.721 93.2566C124.938 94.6257 122.258 92.7936 119.264 90.4553C116.269 88.1175 104.685 77.4019 104.685 77.4019L104.14 61.1201Z" fill="#5554ED"/>
<path opacity="0.2" d="M104.14 61.1201C110.122 61.8951 110.989 62.6531 115.481 67.1396C119.973 71.6255 127.403 80.0295 127.403 80.0295L131.496 77.959C131.496 77.959 129.902 81.0404 130.927 83.9471C131.951 86.8538 134.761 87.7732 136.101 87.2932C136.101 87.2932 132.503 91.887 128.721 93.2566C124.938 94.6257 122.258 92.7936 119.264 90.4553C116.269 88.1175 104.685 77.4019 104.685 77.4019L104.14 61.1201Z" fill="black"/>
<path d="M117.469 111.625C115.903 101.164 113.422 94.9932 113.151 92.3229C112.738 88.2501 114.145 83.1932 114.145 83.1932C114.145 83.1932 117.125 80.0157 116.752 75.315C116.379 70.6142 109.73 64.5069 104.141 61.1207L97.8257 60.3704L86.9666 60.042L84.6726 60.6921C84.6636 60.6751 84.6559 60.6607 84.6559 60.6607L70.7592 63.828C70.7592 63.828 69.1651 70.2108 69.6779 76.5304C70.2657 83.7822 73.3404 91.8275 73.1628 94.7295C73.0346 96.8212 67.5499 106.007 65.6834 116.841C63.7792 127.895 62.1088 137.342 61.6287 146.418C64.8925 148.773 70.1471 149.955 70.1471 149.955L72.534 134.039L74.0608 150.431C81.1197 151.82 94.0928 152.859 111.971 149.992L111.787 147.92C114.429 147.341 119.12 146.256 121.027 144.571C121.027 144.571 120.449 131.553 117.469 111.625Z" fill="#5554ED"/>
<g opacity="0.2">
<path d="M98.2808 68.8643C103.83 74.2182 104.101 86.2052 104.671 91.5494C104.888 94.6961 105.013 97.8443 105.257 100.984C106.707 115.661 109.714 133.165 111.785 147.92C108.819 132.347 105.929 116.74 104.488 101.019C104.014 94.732 103.951 88.4171 103.178 82.153C102.716 79.0921 100.83 71.3182 98.2808 68.8643Z" fill="black"/>
</g>
<g opacity="0.2">
<path d="M100.695 79.1966C100.695 79.7681 100.117 80.2311 99.4045 80.2311C98.6918 80.2311 98.1143 79.7681 98.1143 79.1966C98.1143 78.6251 98.6918 78.1621 99.4045 78.1621C100.117 78.1621 100.695 78.6251 100.695 79.1966Z" fill="black"/>
<path d="M91.8763 79.5833C91.8763 80.1548 91.2988 80.6178 90.5861 80.6178C89.8733 80.6178 89.2958 80.1548 89.2958 79.5833C89.2958 79.0119 89.8733 78.5488 90.5861 78.5488C91.2988 78.5488 91.8763 79.0124 91.8763 79.5833Z" fill="black"/>
<path d="M101.274 88.3275C101.274 88.8989 100.697 89.362 99.9838 89.362C99.271 89.362 98.6935 88.8989 98.6935 88.3275C98.6935 87.756 99.271 87.293 99.9838 87.293C100.697 87.293 101.274 87.756 101.274 88.3275Z" fill="black"/>
<path d="M92.4551 88.7142C92.4551 89.2857 91.8776 89.7487 91.1648 89.7487C90.4521 89.7487 89.8746 89.2857 89.8746 88.7142C89.8746 88.1427 90.4521 87.6797 91.1648 87.6797C91.8776 87.6797 92.4551 88.1427 92.4551 88.7142Z" fill="black"/>
<path d="M101.66 97.8451C101.66 98.4165 101.082 98.8796 100.37 98.8796C99.6569 98.8796 99.0794 98.4165 99.0794 97.8451C99.0794 97.2736 99.6569 96.8105 100.37 96.8105C101.082 96.8105 101.66 97.2741 101.66 97.8451Z" fill="black"/>
<path d="M92.8415 98.2318C92.8415 98.8032 92.264 99.2663 91.5512 99.2663C90.8385 99.2663 90.261 98.8032 90.261 98.2318C90.261 97.6603 90.8385 97.1973 91.5512 97.1973C92.2634 97.1973 92.8415 97.6608 92.8415 98.2318Z" fill="black"/>
<path d="M103.3 107.75C103.3 108.322 102.723 108.785 102.01 108.785C101.297 108.785 100.72 108.322 100.72 107.75C100.72 107.179 101.297 106.716 102.01 106.716C102.723 106.716 103.3 107.179 103.3 107.75Z" fill="black"/>
<path d="M93.1915 109.171C93.9041 109.171 94.4818 108.707 94.4818 108.136C94.4818 107.565 93.9041 107.102 93.1915 107.102C92.4789 107.102 91.9012 107.565 91.9012 108.136C91.9012 108.707 92.4789 109.171 93.1915 109.171Z" fill="black"/>
<path d="M104.393 118.041C104.393 118.613 103.816 119.076 103.103 119.076C102.39 119.076 101.812 118.613 101.812 118.041C101.812 117.47 102.39 117.007 103.103 117.007C103.815 117.007 104.393 117.47 104.393 118.041Z" fill="black"/>
<path d="M95.574 118.429C95.574 119.001 94.9965 119.464 94.2837 119.464C93.571 119.464 92.9935 119.001 92.9935 118.429C92.9935 117.858 93.571 117.395 94.2837 117.395C94.9965 117.395 95.574 117.858 95.574 118.429Z" fill="black"/>
</g>
<path d="M73.1616 94.7299L72.8757 92.1732C72.8757 92.1732 83.6477 94.7346 96.4144 94.3522C109.181 93.9699 113.089 91.4219 113.089 91.4219L113.461 93.9714C113.461 93.9714 110.771 96.3385 96.9406 96.8113C83.11 97.2841 73.1616 94.7299 73.1616 94.7299Z" fill="#37474F"/>
<path d="M72.8757 92.1738C83.3336 97.1989 98.6974 97.8988 114.214 96.8124L114.778 98.8814C114.778 98.8814 103.156 100.384 89.8746 98.8814C76.5932 97.3792 73.1647 94.2809 73.1647 94.2809L72.8757 92.1738Z" fill="#455A64"/>
<path d="M68.9734 109.171C66.9198 115.746 66.3378 131.382 64.1547 132.899C62.6304 133.958 57.8771 133.73 55.0306 132.425C53.7993 131.86 52.0046 127.447 51.9033 126.495C51.5668 123.345 57.2348 109.921 60.2909 107.749C63.3477 105.578 68.9734 109.171 68.9734 109.171Z" fill="#263238"/>
<path d="M64.1553 132.899C66.3385 131.382 66.9204 115.746 68.9741 109.171C68.9741 109.171 67.7069 108.368 66.0532 107.75H62.003L60.7576 114.242C58.6136 121.026 56.2651 130.352 56.3766 131.338C56.4734 132.191 56.7843 132.71 59.1642 133.472C61.2479 133.696 63.2593 133.521 64.1553 132.899Z" fill="#37474F"/>
<path d="M68.9735 109.171C64.5406 108.204 62.628 109.728 61.6274 111.97C60.6263 114.211 59.1726 119.603 58.1663 119.463C57.16 119.322 55.1467 116.991 55.0352 115.646C54.9236 114.301 58.4752 108.275 60.8929 106.715C63.3106 105.155 66.6282 106.5 66.6282 106.5L68.9735 109.171Z" fill="#455A64"/>
<path d="M101.845 60.9453C94.1249 87.2931 64.4702 109.896 64.4702 109.896L68.5974 110.538C68.5974 110.538 95.8504 91.5884 104.141 61.1211L101.845 60.9453Z" fill="black"/>
<path d="M103.664 32.483C100.545 28.8008 93.7313 24.5374 91.6501 24.8786C87.5768 25.5462 87.5941 27.5597 85.0193 28.2982C82.4446 29.0367 78.7213 28.8974 76.5875 30.5923C74.4537 32.2872 75.9779 43.3399 75.9779 43.3399C75.9779 43.3399 82.2888 33.7719 103.664 32.483Z" fill="#37474F"/>
<path d="M75.5831 39.4024C75.7395 41.6035 75.9786 43.3405 75.9786 43.3405C75.9786 43.3405 82.2895 33.7725 103.664 32.4836C103.007 31.7086 102.186 30.908 101.281 30.1299C92.5186 29.9202 81.5723 33.9416 75.5831 39.4024Z" fill="#5554ED"/>
<path d="M101.941 31.4544C111.491 31.7725 114.717 37.0787 109.146 43.3063C103.575 49.5339 91.3168 54.3246 81.7671 54.0064C72.2168 53.6883 68.9915 48.3817 74.5621 42.1541C80.1327 35.927 92.3911 31.1363 101.941 31.4544Z" fill="#455A64"/>
<path d="M99.4064 33.8697C106.635 34.1107 109.077 38.127 104.86 42.8411C100.643 47.5552 91.3649 51.1814 84.1361 50.9403C76.9074 50.6993 74.4653 46.6831 78.6822 41.969C82.8984 37.2554 92.1776 33.6292 99.4064 33.8697Z" fill="#37474F"/>
<path d="M98.2808 68.8645C104.201 63.9941 108.703 57.3682 108.703 57.3682C108.703 57.3682 106.198 50.4206 94.9869 48.8984L98.2808 68.8645Z" fill="#5554ED"/>
<path opacity="0.2" d="M98.2808 68.8645C104.201 63.9941 108.703 57.3682 108.703 57.3682C108.703 57.3682 106.198 50.4206 94.9869 48.8984L98.2808 68.8645Z" fill="black"/>
<path d="M77.0849 51.2549C76.1882 45.8352 95.46 46.9221 96.7195 47.6986C95.4299 52.6861 96.3541 58.3474 98.4975 64.3802L81.5146 60.2782L77.0849 51.2549Z" fill="#5554ED"/>
<path opacity="0.35" d="M77.0849 51.2549C76.1882 45.8352 95.46 46.9221 96.7195 47.6986C95.4299 52.6861 96.3541 58.3474 98.4975 64.3802L81.5146 60.2782L77.0849 51.2549Z" fill="black"/>
<path d="M77.083 51.2583C79.0463 58.9469 81.8902 61.2883 81.8902 61.2883L72.6898 63.3851C72.4053 56.4616 73.0398 52.1191 75.3165 48.9904C78.2874 44.9053 84.2002 45.7543 87.9582 47.0642C82.4825 47.2138 76.5747 48.1974 77.0824 51.2511L77.083 51.2583Z" fill="#263238"/>
<path d="M103.515 42.9719C98.2077 46.9146 88.2126 48.9775 81.1876 47.5796C80.2313 47.3895 79.3763 47.1454 78.6315 46.8468C78.6231 46.8262 78.6058 46.8129 78.5975 46.7923C78.0559 45.9171 77.6155 44.899 77.3367 43.8337C77.6668 43.2299 78.1155 42.6055 78.6827 41.9677C82.8977 37.2582 92.1737 33.6274 99.4102 33.872C102.652 33.9738 104.937 34.8495 106.071 36.1995C106.088 36.2129 106.105 36.2268 106.105 36.2401C107.459 38.1539 106.672 40.631 103.515 42.9719Z" fill="#263238"/>
<path d="M82.5105 52.738C80.8799 53.0612 79.3929 52.4743 78.3295 51.6382C75.9695 49.7814 76.1156 47.7792 77.0553 46.4045C77.8276 45.2744 79.8742 44.4814 81.3959 45.1521C83.0239 45.8695 83.1188 46.5114 83.7764 47.3758C84.4513 48.2633 85.907 47.4745 85.1417 43.9136C88.1106 42.6226 86.2428 39.3279 87.7728 37.5806C89.7226 35.3538 93.7197 36.245 95.9073 36.9516C96.5521 37.1597 97.286 37.0492 97.7808 36.6576C99.0807 35.6298 101.098 35.2202 102.886 35.8852C104.801 36.598 105.77 37.6623 105.699 41.3106C105.682 42.1426 105.789 42.9772 106.038 43.7851C106.328 44.7235 106.654 45.7616 106.74 46.387C107.204 49.8025 106.163 53.8938 104.046 55.6863C102.844 56.7043 100.567 57.725 97.7109 57.7224L97.8494 60.2138L98.2814 68.864L84.7084 60.9739L84.1834 51.6382C84.1834 51.6382 84.0597 52.4312 82.5105 52.738Z" fill="#FFBDA7"/>
<path d="M93.2268 41.0463L90.354 42.2037C89.9733 41.5407 90.3072 40.7442 91.1007 40.4245C91.8942 40.1048 92.8454 40.3834 93.2268 41.0463Z" fill="#263238"/>
<path d="M104.341 41.5337L101.269 40.716C101.519 40.0187 102.409 39.6368 103.258 39.8629C104.106 40.0891 104.591 40.8368 104.341 41.5337Z" fill="#263238"/>
<path d="M103.532 43.3525C103.857 43.8725 103.597 44.5046 102.951 44.7637C102.305 45.0232 101.518 44.8115 101.193 44.2914C100.868 43.7713 101.128 43.1392 101.774 42.8802C102.421 42.6212 103.208 42.8324 103.532 43.3525Z" fill="#263238"/>
<path d="M93.8414 43.6995C94.1664 44.2195 93.9062 44.8516 93.2601 45.1107C92.614 45.3697 91.8269 45.1584 91.5019 44.6384C91.177 44.1183 91.4372 43.4862 92.0833 43.2272C92.7294 42.9676 93.5165 43.1789 93.8414 43.6995Z" fill="#263238"/>
<path d="M96.4144 42.2031L97.8508 48.9904L102.395 47.556L96.4144 42.2031Z" fill="#F0997A"/>
<path d="M98.5828 51.619C98.2334 51.5368 97.8277 51.5753 97.4656 51.5604C97.1054 51.5455 96.7496 51.5121 96.3977 51.4489C95.6446 51.3132 94.9806 51.0275 94.3031 50.7438C94.0659 50.6446 94.0973 50.9391 94.2101 51.0223C94.8146 51.4705 95.6203 51.7233 96.4131 51.8749C96.7887 51.9469 97.1759 51.9952 97.5624 52.0065C97.8854 52.0157 98.4033 52.0363 98.6603 51.8503C98.7513 51.784 98.6924 51.6447 98.5828 51.619Z" fill="#B16668"/>
<path d="M97.7103 57.7218C92.7729 57.8107 88.1888 56.1364 86.48 54.127C87.2267 56.8553 91.2385 58.0866 93.5966 58.4382C96.463 58.8657 97.7699 58.7897 97.7699 58.7897L97.7103 57.7218Z" fill="#F0997A"/>
<path d="M98.2807 68.8641C92.9947 64.5704 89.4086 58.8901 89.4086 58.8901C89.4086 58.8901 81.2741 55.8256 77.0848 51.2549C79.0474 58.9461 81.8901 61.2906 81.8901 61.2906C81.8901 61.2906 86.0397 65.6701 98.2807 68.8641Z" fill="#5554ED"/>
<path opacity="0.2" d="M98.2807 68.8641C92.9947 64.5704 89.4086 58.8901 89.4086 58.8901C89.4086 58.8901 81.2741 55.8256 77.0848 51.2549C79.0474 58.9461 81.8901 61.2906 81.8901 61.2906C81.8901 61.2906 86.0397 65.6701 98.2807 68.8641Z" fill="black"/>
<path d="M70.7585 63.8281C67.3044 64.7645 64.7123 66.7107 63.8329 68.6651C62.9586 70.6071 62.2529 75.1851 67.2287 83.9499C72.1276 92.579 73.9851 94.6166 76.565 94.9311C79.9204 95.3402 83.5399 93.192 86.3698 89.5577C86.3698 89.5577 81.6484 81.907 80.6505 79.6638C77.3521 72.2481 75.6183 68.3778 70.7585 63.8281Z" fill="#5554ED"/>
<path opacity="0.2" d="M70.7585 63.8281C67.3044 64.7645 64.7123 66.7107 63.8329 68.6651C62.9586 70.6071 62.2529 75.1851 67.2287 83.9499C72.1276 92.579 73.9851 94.6166 76.565 94.9311C79.9204 95.3402 83.5399 93.192 86.3698 89.5577C86.3698 89.5577 81.6484 81.907 80.6505 79.6638C77.3521 72.2481 75.6183 68.3778 70.7585 63.8281Z" fill="black"/>
<path opacity="0.2" d="M76.2125 80.0397C75.0421 80.8764 74.1735 81.8575 73.5537 83.0117C72.9525 84.1315 72.4987 85.4199 72.5353 86.6481C72.5372 86.7165 72.6237 86.7227 72.6455 86.6579C72.8218 86.1306 72.916 85.5874 73.0801 85.0576C73.2807 84.4111 73.5255 83.7656 73.8428 83.1499C74.4062 82.0563 75.2093 80.9894 76.2599 80.1538C76.3003 80.1215 76.2746 79.995 76.2125 80.0397ZM71.4533 87.9771C71.429 87.4087 71.4636 86.8393 71.5514 86.2745C71.6482 85.6532 71.6776 85.0154 71.8103 84.4008C71.8148 84.3813 71.7937 84.3669 71.7808 84.39C71.5841 84.758 71.3347 85.0894 71.22 85.4836C71.1431 85.7462 71.1091 86.0243 71.0739 86.292C70.9944 86.8989 70.9764 87.5131 71.0175 88.1226C71.0585 88.7321 71.1674 89.3359 71.3399 89.9305C71.4988 90.4804 71.6616 91.0709 72.0411 91.5524C72.1244 91.6578 72.2122 91.5087 72.1981 91.4419C72.0808 90.8653 71.8231 90.3139 71.6892 89.7383C71.5559 89.1586 71.4783 88.5656 71.4533 87.9771Z" fill="black"/>
<path d="M106.738 63.983C107.583 63.7487 108.441 64.0406 108.759 64.3911C109.077 64.741 108.754 65.255 108.178 65.5684C107.602 65.8824 106.893 66.4375 106.893 66.4375L105.344 66.2005L105.907 63.834L106.738 63.983Z" fill="#F0997A"/>
<path d="M97.3245 61.9561C98.0314 60.9 98.7589 60.8132 99.473 58.9251C100.188 57.0369 100.849 54.3045 101.085 53.4868C101.302 52.737 102.334 53.0336 102.819 53.9972C103.288 54.9294 103.037 56.1977 102.885 57.2795C102.734 58.3613 102.127 60.6909 101.939 61.2567C101.751 61.823 101.773 62.209 101.773 62.209L97.3245 61.9561Z" fill="#F0997A"/>
<path d="M97.3245 61.9559C97.7058 61.4307 98.2647 61.0257 98.7044 60.52C99.1326 60.0097 99.4172 59.4321 99.6473 58.8545C100.104 57.6976 100.438 56.5172 100.776 55.3398L101.236 53.5689C101.296 53.2842 101.501 53.1243 101.805 53.223C102.096 53.3155 102.35 53.5391 102.53 53.7806C102.903 54.274 102.992 54.8835 102.998 55.4765C103.014 56.0747 102.929 56.677 102.887 57.2798C103.012 56.6842 103.134 56.0881 103.179 55.4791C103.208 54.8757 103.158 54.2334 102.778 53.6675C102.59 53.3911 102.332 53.1202 101.919 52.9825C101.72 52.9126 101.429 52.9116 101.227 53.0426C101.024 53.1675 100.953 53.3587 100.907 53.5082L100.415 55.2761C100.109 56.456 99.7704 57.6298 99.3762 58.7887C99.182 59.3658 98.9358 59.9321 98.5532 60.4414C98.1821 60.9538 97.6315 61.3983 97.3245 61.9559Z" fill="#B16668"/>
<path d="M90.3694 71.0323C91.9763 69.5358 92.9051 68.9093 93.4954 67.9704C94.0851 67.032 96.0035 64.2291 96.4169 63.2635C96.8303 62.2978 97.2091 61.474 99.3993 61.5151C101.589 61.5563 105.551 62.2357 106.474 62.5974C107.395 62.9587 106.806 63.8976 106.338 64.7076C107.168 65.0673 107.197 65.8264 106.704 66.7987C106.211 67.771 105.699 68.8245 105.699 68.8245C105.64 69.9474 105.533 70.1823 104.571 70.706C103.61 71.2296 102.769 71.6875 102.157 71.8453C101.544 72.0031 100.917 71.7816 100.824 71.5159C100.268 73.1912 99.464 73.2894 98.5032 73.8013C97.2373 74.4755 96.2271 75.342 94.2972 78.5601C92.3545 81.7998 90.3438 85.8813 87.6812 89.0994C85.491 91.7466 83.0958 93.6866 79.682 94.6342C75.7427 95.7278 74.7498 94.2493 74.3011 92.6891C73.5519 90.0866 73.5634 87.4482 75.526 84.0723C76.972 81.5855 79.4179 80.1419 82.0773 78.0986C84.4341 76.2865 88.1017 73.1445 90.3694 71.0323Z" fill="#FFBDA7"/>
<path d="M106.337 64.7089C105.138 64.2988 99.9005 63.3604 99.9005 63.3604C99.9005 63.3604 102.505 63.3634 106.582 64.2808L106.337 64.7089Z" fill="#F0997A"/>
<path d="M105.698 68.8251C105.661 67.5527 105.935 67.4031 104.309 66.6343C102.683 65.8655 101.048 64.849 99.837 64.7734C101.272 64.7868 101.284 64.8582 102.95 65.6055C104.615 66.3527 105.756 66.9108 105.917 67.0722C106.077 67.2335 106.168 67.8667 106.168 67.8667L105.698 68.8251Z" fill="#F0997A"/>
<path d="M100.823 71.5162C100.552 70.5202 100.24 69.1039 100.175 68.5196C100.109 67.9347 100.422 67.6269 101.318 67.8736C102.215 68.1203 102.762 68.8336 102.716 69.4559C102.914 68.9117 102.88 68.1531 101.453 67.5935C99.9171 66.9917 99.7915 67.8731 99.978 68.6681C100.165 69.4621 100.823 71.5162 100.823 71.5162Z" fill="#F0997A"/>
<path d="M36.1213 38.4596C32.6614 36.8845 27.9009 37.1255 22.6431 39.5594C12.0654 44.4554 3.49121 56.3633 3.49121 66.1559C3.49121 71.0484 5.63267 74.4844 9.09386 76.0888C10.5347 76.7569 14.1946 78.4405 15.6381 79.107C19.1018 80.7063 23.8821 80.4745 29.1643 78.0294C39.7421 73.1328 48.3162 61.2254 48.3162 51.4323C48.3162 46.5502 46.1837 43.1182 42.7347 41.5092C41.2887 40.8354 37.5859 39.1267 36.1213 38.4596Z" fill="#5554ED"/>
<path opacity="0.15" d="M4.19465 61.0674C3.73893 62.7946 3.49023 64.5055 3.49023 66.1561C3.49023 71.0486 5.63169 74.4846 9.09288 76.089C10.5338 76.7571 14.193 78.4407 15.6365 79.1073C19.1002 80.7065 23.8805 80.4748 29.1633 78.0296C30.9426 77.2058 32.6636 76.18 34.2981 75.0026L4.19465 61.0674Z" fill="black"/>
<path d="M20.6103 79.8702C14.2705 79.8702 10.3318 75.7682 10.3318 69.1644C10.3318 59.4689 18.8515 47.6376 29.3235 42.7904C32.2802 41.4213 35.1043 40.7275 37.7169 40.7275C44.0566 40.7275 47.9947 44.8301 47.9947 51.4334C47.9947 56.1208 46.0205 61.4459 42.4363 66.4278L42.3587 66.5357L45.586 73.0074C45.7071 73.25 45.6725 73.5126 45.4905 73.7274C45.3097 73.9417 45.0123 74.0702 44.6963 74.0702C44.6373 74.0702 44.5764 74.0661 44.5149 74.0568L36.5272 72.8866L36.408 72.9889C34.0608 74.9978 31.5694 76.6187 29.0036 77.8063C26.0462 79.1764 23.2228 79.8702 20.6103 79.8702Z" fill="white"/>
<path d="M37.7169 40.9836C43.8592 40.9836 47.6742 44.9875 47.6742 51.4325C47.6742 56.0757 45.7154 61.3551 42.1581 66.299L42.003 66.5148L42.1183 66.7466L45.2879 73.1026C45.3988 73.3247 45.2956 73.4989 45.2244 73.5837C45.1027 73.7276 44.9052 73.8134 44.6956 73.8134C44.6553 73.8134 44.6136 73.8103 44.5719 73.8041L36.7561 72.6591L36.4119 72.6088L36.1728 72.8133C33.8474 74.8037 31.381 76.4092 28.8421 77.5845C25.9347 78.9304 23.1645 79.6129 20.609 79.6129C14.4666 79.6129 10.6516 75.609 10.6516 69.164C10.6516 59.5508 19.0995 47.8192 29.4831 43.0121C32.3911 41.6661 35.1613 40.9836 37.7169 40.9836ZM37.7169 40.4697C35.1421 40.4697 32.2379 41.144 29.1632 42.567C18.5861 47.463 10.0113 59.3709 10.0113 69.164C10.0113 76.1106 14.3262 80.1268 20.6096 80.1268C23.1843 80.1268 26.0885 79.4525 29.1632 78.0295C31.8162 76.8013 34.3435 75.1316 36.6413 73.1648L44.4572 74.3098C44.538 74.3216 44.6181 74.3273 44.6956 74.3273C45.5757 74.3273 46.2282 73.6042 45.8827 72.912L42.7132 66.5559C46.1743 61.7457 48.3145 56.3255 48.3145 51.4325C48.3158 44.4865 44.0002 40.4697 37.7169 40.4697Z" fill="#5554ED"/>
<path d="M28.7537 72.52C30.2209 71.8406 31.1029 70.1457 31.1029 68.9215C31.1029 67.351 29.8985 66.9682 28.7537 67.4975C27.2853 68.1774 26.4046 69.8718 26.4046 71.0959C26.4046 72.6649 27.6071 73.0503 28.7537 72.52Z" fill="#5554ED"/>
<path d="M28.8811 49.3771C29.6887 49.003 30.4771 48.7764 31.2424 48.6977C32.009 48.6191 32.6884 48.7132 33.2813 48.9809C33.8761 49.2471 34.3524 49.6958 34.7145 50.3248C35.0754 50.9543 35.2568 51.7894 35.2568 52.8306C35.2568 53.6791 35.1484 54.4685 34.9344 55.1931C34.7183 55.9203 34.4434 56.611 34.1082 57.2641C33.7729 57.9194 33.4069 58.5448 33.0108 59.143C32.6147 59.7402 32.241 60.306 31.8879 60.8415C31.5353 61.376 31.2258 61.9068 30.9591 62.4346C30.6925 62.9614 30.5335 63.4702 30.4816 63.9615C30.4463 64.2117 30.3688 64.4502 30.2489 64.6753C30.1291 64.9004 29.9739 65.0576 29.7842 65.1445L27.8216 66.0536C27.6332 66.1399 27.4652 66.1338 27.3191 66.0305C27.173 65.9287 27.1089 65.756 27.1249 65.5145C27.1589 64.6707 27.3011 63.8772 27.5518 63.1346C27.8011 62.392 28.1023 61.6905 28.4549 61.028C28.8068 60.3661 29.1862 59.7391 29.5907 59.1481C29.9945 58.5582 30.3681 57.9975 30.7136 57.4651C31.0572 56.9347 31.3418 56.4311 31.5648 55.9562C31.7885 55.4804 31.9 55.0204 31.9 54.5743C31.9 53.7675 31.6251 53.2299 31.0745 52.9642C30.5233 52.6996 29.7919 52.7782 28.8805 53.2001C27.4178 53.8769 26.3416 55.2779 25.6539 57.4019C25.568 57.6753 25.4776 57.8921 25.3834 58.053C25.2872 58.2149 25.1283 58.3459 24.9052 58.4492L22.8144 59.4169C22.6593 59.4889 22.526 59.4868 22.4145 59.4108C22.3029 59.3352 22.2465 59.1918 22.2465 58.9791C22.2638 58.2277 22.4491 57.3818 22.8016 56.4439C23.1548 55.5055 23.6284 54.5846 24.222 53.6837C24.8149 52.7828 25.5122 51.9446 26.3128 51.1697C27.1127 50.3978 27.969 49.7991 28.8811 49.3771Z" fill="#5554ED"/>
</svg>
