<svg width="178" height="225" viewBox="0 0 178 225" fill="none" xmlns="http://www.w3.org/2000/svg">
<ellipse cx="89" cy="80.745" rx="89" ry="80.745" fill="#FD8C00" fill-opacity="0.2"/>
<path d="M66.5819 188.472C64.8301 189.417 63.945 189.669 62.9348 191.083C61.2619 193.426 58.409 198.678 56.8848 200.953C56.8848 200.953 57.4398 201.603 58.2673 201.588L62.4765 196.865C63.2354 195.871 63.7264 196.733 63.6469 197.873C63.4937 200.077 63.3335 202.149 62.9585 204.043C62.4868 206.425 62.1772 208.725 64.6532 210.71C67.735 213.182 70.5065 214.791 73.5286 215.316C74.8137 215.539 77.9423 215.047 76.486 211.68C76.0175 210.596 75.4009 209.043 75.8047 203.32C76.138 198.595 77.2212 196.044 78.8768 193.198C80.533 190.353 92.2626 179.978 94.9617 177.385C97.6608 174.792 96.9609 174.05 96.9609 174.05L95.6969 175.281C95.6969 175.281 94.4445 176.414 87.0606 173.005C79.6774 169.596 79.2806 167.571 79.2806 167.571L79.9011 166.44C79.9011 166.44 78.4249 166.497 77.5128 168.473C75.988 171.774 70.0367 184.116 69.3733 185.525C68.7099 186.934 67.3754 188.044 66.5819 188.472Z" fill="#263238"/>
<path d="M118.655 144.577C118.485 139.487 117.326 121.963 116.203 115.979C116.203 115.979 115.246 109.328 113.261 103.122C112.224 99.8796 111.264 97.0736 110.568 94.5889C103.83 98.3779 86.8346 99.0393 78.8752 95.0771C77.6131 96.7473 73.8481 100.93 70.9433 106.826C68.4051 111.978 67.3975 115.189 67.7135 121.521C68.0025 127.315 73.4751 144.869 76.6344 152.097C78.5476 159.424 78.0253 164.229 77.7496 168.446C77.474 172.663 79.5341 185.648 83.2382 196.988C83.2382 196.988 85.2681 198.322 89.8189 198.234C94.3698 198.145 95.6504 196.747 95.6504 196.747L99.3853 173.258C99.3853 173.258 106.767 165.329 110.71 161.075C114.654 156.82 118.921 152.522 118.655 144.577Z" fill="#455A64"/>
<path d="M82.3509 204.224C81.4978 205.773 80.9158 206.364 81.0017 207.992C81.144 210.69 82.2214 216.353 82.4445 218.929C82.4445 218.929 83.3463 219.241 84.0366 218.875L84.4584 213.08C84.4398 211.915 85.4275 212.434 86.1191 213.433C87.4542 215.362 88.6964 217.184 89.6386 218.948C90.8231 221.165 92.0896 223.242 95.5047 223.864C99.7549 224.638 103.17 224.815 106.076 223.967C107.312 223.607 109.632 221.854 106.161 219.627C105.044 218.91 103.49 217.86 100.027 212.845C97.168 208.705 96.3879 206.083 95.8976 202.968C95.4073 199.853 98.4339 186.061 98.9928 182.714C99.5524 179.366 98.4672 179.038 98.4672 179.038L98.216 180.619C98.216 180.619 97.9096 182.113 89.3963 182.385C80.8831 182.656 79.2005 181.112 79.2005 181.112L78.9737 179.89C78.9737 179.89 77.7629 180.57 78.3045 182.631C79.2095 186.076 82.3797 199.062 82.7547 200.538C83.1284 202.013 82.7374 203.522 82.3509 204.224Z" fill="#263238"/>
<path d="M99.3857 173.257C100.876 163.801 100.574 153.885 100.383 147.521C100.192 141.157 98.4287 119.496 98.4287 119.496C98.4287 119.496 105.372 117.003 108.906 111.708C106.616 118.448 101.335 120.924 101.335 120.924C101.335 120.924 102.548 139.684 102.518 150.912C102.488 162.14 99.3857 173.257 99.3857 173.257Z" fill="#37474F"/>
<path d="M138.274 73.4165C137.717 73.9088 136.523 74.8302 134.171 76.2944C132.274 77.4748 127.404 80.4951 127.404 80.4951C127.404 80.4951 119.242 71.6923 116.061 68.2789C110.969 62.8144 108.504 61.5708 103.872 61.5482L105.411 77.1834C105.411 77.1834 113.122 84.6943 117.157 88.2377C122.063 92.5453 124.674 93.3845 126.453 93.2427C132.026 92.7427 136.635 86.6363 144.572 78.3403C145.551 77.4944 146.053 77.7051 147.728 77.1624C148.788 76.8191 149.802 76.5354 151.521 75.6438C152.49 75.1406 152.943 74.5954 153.322 73.9494C153.595 73.4812 151.923 71.6255 151.816 71.1152C151.656 70.3505 152.047 69.5575 151.85 68.7984C151.828 68.7111 151.796 68.6289 151.758 68.5507C151.549 68.118 151.132 67.8071 150.771 67.4299C150.724 67.3816 150.679 67.3287 150.67 67.2675C150.662 67.213 150.667 67.1514 150.708 67.1077C151.638 66.1276 153.391 64.5294 154.751 63.3356C155.445 62.7261 156.616 61.6823 156.051 60.7254C155.878 60.4314 155.428 60.2942 155.025 60.3251C154.621 60.3559 154.254 60.5214 153.913 60.6966C152.637 61.3498 151.522 62.1813 150.414 63.0082C149.443 63.7333 148.471 64.459 147.499 65.1841C145.771 66.474 144.035 67.7706 142.537 69.2384C141.824 69.9362 140.932 69.447 140.442 70.2554C139.655 71.5546 138.83 72.9241 138.274 73.4165Z" fill="#FFBDA7"/>
<path d="M147.441 69.2374C147.435 69.0426 147.421 68.8479 147.403 68.6526C147.402 68.6444 147.401 68.6361 147.4 68.6284C147.232 68.7836 147.076 68.9481 146.921 69.1125C146.748 69.297 146.832 69.5452 146.835 69.7678C146.838 70.0247 146.828 70.2817 146.805 70.5381C146.757 71.05 146.651 71.5587 146.469 72.0511C146.064 73.1426 145.241 74.0507 144.186 74.8051C144.145 74.8344 144.129 74.9686 144.218 74.9326C145.55 74.3904 146.422 73.3646 146.907 72.2577C147.337 71.2797 147.476 70.2621 147.441 69.2374Z" fill="#F0997A"/>
<path d="M148.884 74.3036L148.884 74.3026C148.885 74.3015 148.885 74.3005 148.885 74.299L152.991 64.2571L152.992 64.2561L152.997 64.2453L152.995 64.2448C153.077 64.0516 153.006 63.8141 152.758 63.5746C152.252 63.0859 151.209 62.777 150.428 62.8839C150.037 62.9379 149.786 63.0859 149.696 63.2817L144.583 72.99C144.421 73.2999 144.363 73.6489 144.437 74.0045C144.647 75.0097 145.833 75.6891 147.087 75.521C147.948 75.4064 148.617 74.9218 148.884 74.3036Z" fill="#455A64"/>
<path d="M149.696 63.2823L144.583 72.9907C144.421 73.3006 144.363 73.6495 144.437 74.0051C144.638 74.9713 145.742 75.6332 146.94 75.5356C146.165 75.4975 145.325 74.5941 145.924 73.2538C146.527 71.9058 149.999 65.1401 151.051 62.8784C150.835 62.8568 150.624 62.8579 150.428 62.8846C150.037 62.9385 149.786 63.0865 149.696 63.2823Z" fill="#37474F"/>
<path d="M152.755 63.5729C152.248 63.0852 151.205 62.7774 150.424 62.8853C150.046 62.9377 149.8 63.078 149.704 63.2646C149.633 63.4018 149.351 63.9203 149.277 64.0612C149.168 64.2662 149.237 64.5262 149.508 64.7873C150.031 65.2904 151.107 65.6075 151.912 65.496C152.328 65.4384 152.589 65.2776 152.673 65.0664C152.731 64.9204 152.996 64.2462 152.996 64.2462C153.081 64.0529 153.005 63.8129 152.755 63.5729Z" fill="#FD8C00"/>
<path d="M152.755 63.5726C153.262 64.0603 153.041 64.5434 152.261 64.6518C151.48 64.7598 150.436 64.4524 149.929 63.9642C149.422 63.4765 149.644 62.9935 150.424 62.885C151.204 62.7766 152.248 63.0844 152.755 63.5726Z" fill="#FD8C00"/>
<path opacity="0.3" d="M152.755 63.5726C153.262 64.0603 153.041 64.5434 152.261 64.6518C151.48 64.7598 150.436 64.4524 149.929 63.9642C149.422 63.4765 149.644 62.9935 150.424 62.885C151.204 62.7766 152.248 63.0844 152.755 63.5726Z" fill="white"/>
<path d="M152.611 59.2465C153.128 59.1755 153.819 59.3801 154.154 59.7039C154.321 59.8647 154.368 60.0245 154.31 60.1535V60.1556L152.516 64.0053C152.516 64.0063 152.516 64.0068 152.515 64.0079C152.455 64.1364 152.29 64.234 152.032 64.2689C151.515 64.3399 150.824 64.1353 150.488 63.8116C150.321 63.6497 150.274 63.4888 150.333 63.3593L152.126 59.5101H152.127C152.185 59.3806 152.351 59.2819 152.611 59.2465Z" fill="#37474F"/>
<path d="M152.126 59.5111C152.185 59.3811 152.351 59.2824 152.611 59.2465C152.806 59.2197 153.026 59.2321 153.242 59.2758L150.986 64.1173C150.789 64.0377 150.613 63.9333 150.487 63.8121C150.32 63.6502 150.273 63.4893 150.332 63.3598L152.126 59.5111Z" fill="#263238"/>
<path d="M154.464 60.5035C156.323 61.1695 158.731 60.8514 161.248 59.3898C166.281 56.4672 169.842 50.0798 169.201 45.1236C168.881 42.6455 167.571 40.9943 165.712 40.3278L162.288 39.1006C160.429 38.4345 158.02 38.7532 155.504 40.2142C150.47 43.1368 146.909 49.5243 147.55 54.4804C147.87 56.9585 149.18 58.6097 151.039 59.2757L154.464 60.5035ZM167.876 45.2336C168.162 47.447 167.544 50.0572 166.135 52.5831C164.727 55.1089 162.713 57.2191 160.466 58.5244C158.433 59.7049 156.495 60.061 155.007 59.5281C153.52 58.9951 152.559 57.5994 152.3 55.5982C152.014 53.3848 152.632 50.7746 154.04 48.2487C155.448 45.7228 157.462 43.6127 159.71 42.3074C161.742 41.1274 163.681 40.7708 165.168 41.3037C166.655 41.8366 167.617 43.2319 167.876 45.2336Z" fill="#FD8C00"/>
<path opacity="0.3" d="M154.464 60.5035C156.323 61.1695 158.731 60.8514 161.248 59.3898C166.281 56.4672 169.842 50.0798 169.201 45.1236C168.881 42.6455 167.571 40.9943 165.712 40.3278L162.288 39.1006C160.429 38.4345 158.02 38.7532 155.504 40.2142C150.47 43.1368 146.909 49.5243 147.55 54.4804C147.87 56.9585 149.18 58.6097 151.039 59.2757L154.464 60.5035ZM167.876 45.2336C168.162 47.447 167.544 50.0572 166.135 52.5831C164.727 55.1089 162.713 57.2191 160.466 58.5244C158.433 59.7049 156.495 60.061 155.007 59.5281C153.52 58.9951 152.559 57.5994 152.3 55.5982C152.014 53.3848 152.632 50.7746 154.04 48.2487C155.448 45.7228 157.462 43.6127 159.71 42.3074C161.742 41.1274 163.681 40.7708 165.168 41.3037C166.655 41.8366 167.617 43.2319 167.876 45.2336Z" fill="white"/>
<path opacity="0.4" d="M166.779 42.4496C166.348 41.9218 165.807 41.5323 165.167 41.303C163.68 40.7701 161.742 41.1263 159.709 42.3067C158.765 42.8551 157.863 43.5473 157.028 44.3511L152.347 42.6731C153.303 41.7142 154.364 40.875 155.503 40.2141C158.019 38.7525 160.427 38.4339 162.287 39.1004L165.711 40.3276C166.568 40.635 167.307 41.154 167.887 41.8648L166.779 42.4496Z" fill="#FD8C00"/>
<path opacity="0.3" d="M154.463 60.5029L151.038 59.2757C149.18 58.6092 147.869 56.9585 147.55 54.4804C147.462 53.8051 147.455 53.1026 147.518 52.3867L152.245 54.0621C152.22 54.5899 152.236 55.1038 152.3 55.5976C152.559 57.5988 153.52 58.9946 155.007 59.5275C155.502 59.7048 156.047 59.7814 156.628 59.7644L157 60.8118C156.082 60.8807 155.226 60.7763 154.463 60.5029Z" fill="white"/>
<path d="M158.929 41.4399C153.896 44.3625 150.335 50.7499 150.975 55.7061C151.615 60.6622 156.215 62.3109 161.248 59.3882C166.281 56.4656 169.842 50.0782 169.201 45.122C168.561 40.1659 163.962 38.5172 158.929 41.4399ZM165.168 41.3021C166.656 41.8351 167.617 43.2308 167.876 45.232C168.162 47.4454 167.544 50.0556 166.136 52.5815C164.727 55.1074 162.713 57.2175 160.466 58.5228C158.434 59.7033 156.495 60.0594 155.008 59.5265C153.521 58.9936 152.559 57.5978 152.3 55.5966C152.014 53.3832 152.632 50.773 154.041 48.2471C155.449 45.7213 157.463 43.6111 159.71 42.3058C161.743 41.1253 163.681 40.7692 165.168 41.3021Z" fill="#FD8C00"/>
<g opacity="0.5">
<path d="M158.929 41.4399C153.896 44.3625 150.335 50.7499 150.975 55.7061C151.615 60.6622 156.215 62.3109 161.248 59.3882C166.281 56.4656 169.842 50.0782 169.201 45.122C168.561 40.1659 163.962 38.5172 158.929 41.4399ZM165.168 41.3021C166.656 41.8351 167.617 43.2308 167.876 45.232C168.162 47.4454 167.544 50.0556 166.136 52.5815C164.727 55.1074 162.713 57.2175 160.466 58.5228C158.434 59.7033 156.495 60.0594 155.008 59.5265C153.521 58.9936 152.559 57.5978 152.3 55.5966C152.014 53.3832 152.632 50.773 154.041 48.2471C155.449 45.7213 157.463 43.6111 159.71 42.3058C161.743 41.1253 163.681 40.7692 165.168 41.3021Z" fill="white"/>
</g>
<path opacity="0.4" d="M158.547 60.563C157.576 60.8298 156.521 60.9526 155.496 60.803C154.471 60.6581 153.523 60.2208 152.82 59.6077C152.109 58.9956 151.639 58.2314 151.322 57.4441C151.172 57.0469 151.052 56.6424 150.97 56.2333C150.933 56.0283 150.895 55.8232 150.876 55.6166L150.828 54.9969C150.804 54.7903 150.814 54.5832 150.819 54.3766C150.824 54.1695 150.825 53.9624 150.835 53.7558L150.904 53.138L150.939 52.8292C150.953 52.7264 150.977 52.6246 150.996 52.5224C151.295 50.8856 151.897 49.2894 152.726 47.7764C153.578 46.2717 154.661 44.8481 155.983 43.5777C156.065 43.4986 156.143 43.4158 156.23 43.3393L156.494 43.1121L157.022 42.6583C157.207 42.5144 157.399 42.3762 157.588 42.2349C157.777 42.0941 157.963 41.9502 158.171 41.8268L158.779 41.4419C158.984 41.3155 159.2 41.2014 159.415 41.0868C159.85 40.8627 160.305 40.6638 160.775 40.4891C161.718 40.1535 162.742 39.9248 163.785 39.9418C164.824 39.9526 165.863 40.2281 166.68 40.743C167.503 41.2554 168.093 41.9676 168.492 42.7257C168.888 43.4893 169.098 44.3044 169.201 45.122C169.081 44.3054 168.854 43.495 168.444 42.7421C168.032 41.9944 167.432 41.2996 166.616 40.8098C165.809 40.3134 164.796 40.0528 163.783 40.0502C162.765 40.041 161.765 40.2728 160.843 40.6094C159.922 40.9578 159.067 41.4136 158.288 41.9409C158.083 42.0627 157.9 42.2061 157.713 42.3454C157.527 42.4857 157.338 42.6229 157.156 42.7652L156.635 43.2154L156.375 43.4405C156.29 43.5166 156.213 43.5988 156.131 43.6774C154.828 44.9381 153.761 46.3529 152.92 47.8458C152.092 49.3433 151.49 50.9241 151.188 52.544C151.168 52.6452 151.144 52.7459 151.13 52.8477L151.094 53.1535L151.023 53.7645C151.012 53.9685 151.011 54.1736 151.004 54.3776C150.999 54.5821 150.988 54.7867 151.011 54.9907C151.041 55.8083 151.186 56.6229 151.477 57.4056C151.78 58.1811 152.232 58.9329 152.919 59.5347C153.598 60.138 154.515 60.5692 155.515 60.7213C156.515 60.8817 157.559 60.7763 158.529 60.524C159.502 60.2665 160.407 59.8621 161.246 59.3893C160.418 59.8723 159.521 60.2907 158.547 60.563Z" fill="white"/>
<path d="M165.169 41.3018C164.585 41.0926 163.936 41.0212 163.236 41.0818C163.877 41.7916 164.295 42.7865 164.45 44.0055C164.738 46.2179 164.12 48.8291 162.711 51.356C161.304 53.8808 159.289 55.9915 157.041 57.2948C155.804 58.0153 154.601 58.429 153.513 58.5215C153.924 58.9778 154.423 59.3185 155.007 59.5277C156.494 60.0606 158.433 59.7045 160.467 58.523C162.712 57.2187 164.728 55.1081 166.135 52.5832C167.544 50.0563 168.162 47.4451 167.877 45.2337C167.618 43.2305 166.656 41.8347 165.169 41.3018Z" fill="#FD8C00"/>
<path opacity="0.3" d="M165.169 41.3018C164.585 41.0926 163.936 41.0212 163.236 41.0818C163.877 41.7916 164.295 42.7865 164.45 44.0055C164.738 46.2179 164.12 48.8291 162.711 51.356C161.304 53.8808 159.289 55.9915 157.041 57.2948C155.804 58.0153 154.601 58.429 153.513 58.5215C153.924 58.9778 154.423 59.3185 155.007 59.5277C156.494 60.0606 158.433 59.7045 160.467 58.523C162.712 57.2187 164.728 55.1081 166.135 52.5832C167.544 50.0563 168.162 47.4451 167.877 45.2337C167.618 43.2305 166.656 41.8347 165.169 41.3018Z" fill="white"/>
<path opacity="0.4" d="M160.468 58.5229C158.434 59.7044 156.495 60.0605 155.008 59.5276C154.424 59.3185 153.925 58.9777 153.514 58.5214C154.602 58.4289 155.805 58.0152 157.042 57.2947C157.547 57.0012 158.04 56.6656 158.518 56.2951C158.118 56.6132 156.986 57.6236 158.629 57.696C160.582 57.7824 163.777 55.9328 165.1 54.2061H165.105C163.816 56.0083 162.212 57.5095 160.468 58.5229Z" fill="#FD8C00"/>
<path opacity="0.7" d="M166.326 44.6767C166.611 46.8901 165.994 49.5002 164.585 52.0261C163.177 54.552 161.163 56.6621 158.915 57.9675C157.239 58.9413 155.626 59.3525 154.278 59.168C153.207 58.4855 152.514 57.248 152.301 55.5968C152.015 53.3834 152.633 50.7732 154.041 48.2473C155.449 45.7214 157.463 43.6113 159.711 42.306C161.388 41.3321 163 40.921 164.348 41.1055C165.419 41.788 166.113 43.0255 166.326 44.6767Z" fill="white"/>
<path d="M144.726 66.5666C145.455 66.1596 146.221 65.6812 146.953 65.3086C147.736 64.9093 148.31 64.4909 149.094 64.0916C149.297 63.9883 149.785 63.9601 150.043 64.0212C150.307 64.0844 150.488 64.3671 150.525 64.5685C150.601 64.9838 150.393 65.3754 150.198 65.75C149.917 66.2907 149.491 66.7779 149.018 67.2203C148.121 68.059 147.142 68.8412 146.325 69.7334C145.003 71.178 139.483 72.1107 139.483 72.1107C140.038 70.8121 140.332 70.2668 140.931 69.204C141.194 68.7379 141.745 68.2672 142.154 67.9691C142.53 67.6947 142.973 67.4783 143.55 67.1828C143.926 66.9901 144.355 66.7743 144.726 66.5666Z" fill="#FFBDA7"/>
<path d="M146.952 65.3082C147.782 64.8169 148.41 64.3364 149.272 63.8723C149.899 63.5079 150.7 64.1914 150.699 64.6904C150.649 65.1658 150.479 65.6278 150.217 66.0554C149.851 66.651 149.322 67.1711 148.762 67.6552C148.474 67.9034 148.175 68.1439 147.876 68.3839C147.784 68.4579 147.093 69.069 147.023 68.9986C146.92 68.8953 147.707 68.2647 147.814 68.166C148.916 67.1562 150.168 66.0944 150.377 64.7007C150.372 64.3785 149.874 63.8255 149.407 64.0614C148.537 64.4767 147.855 64.9181 146.952 65.3082Z" fill="#F0997A"/>
<path d="M146.987 68.8778C146.706 68.9919 146.399 69.0746 146.097 69.0813C145.745 69.0885 145.392 69.0191 145.049 68.9621C145.011 68.9559 144.974 69.0201 145.013 69.0335C145.062 69.0499 145.111 69.0669 145.161 69.0828C145.515 69.1979 145.891 69.2946 146.278 69.2884C146.459 69.2853 146.648 69.2581 146.819 69.2093C146.9 69.1861 146.95 69.1178 147.004 69.0659C147.074 68.9985 147.143 68.9287 147.218 68.8639C147.249 68.8377 147.28 68.813 147.307 68.7837C147.326 68.7627 147.349 68.7082 147.374 68.6948C147.253 68.7601 147.123 68.8228 146.987 68.8778Z" fill="#F0997A"/>
<path d="M153.839 68.9287C153.227 68.8923 152.658 69.27 152.081 69.4154C151.534 69.5526 150.781 69.8733 150.273 70.0861C149.955 70.2192 149.677 70.4052 149.402 70.5897C148.706 71.0558 148.006 71.525 147.413 72.0754C147.206 72.2676 147.002 72.5015 147.05 72.7522C147.075 72.8761 147.16 72.9881 147.268 73.0781C147.577 73.3361 148.06 73.4219 148.503 73.3777C148.946 73.3335 149.357 73.1752 149.749 73.0041C150.141 72.8329 150.526 72.6454 150.95 72.5338C151.422 72.4095 151.925 72.3833 152.411 72.2979C153.255 72.1499 154.08 71.6992 154.506 71.0903C154.889 70.5434 155.079 69.1292 154.123 68.9606C154.026 68.9452 153.932 68.9344 153.839 68.9287Z" fill="#FFBDA7"/>
<path d="M152.08 69.4155C151.073 69.6591 149.994 70.1761 149.248 70.7918C148.538 71.3381 147.598 71.8386 147.185 72.5627C147.122 72.7313 147.208 72.9029 147.379 73.033C147.947 73.4605 148.793 73.3022 149.445 73.0443C150.382 72.5956 151.316 72.3602 152.408 72.2986C151.353 72.4296 150.431 72.7138 149.531 73.182C148.858 73.4919 147.853 73.6527 147.214 73.1702C147.001 73.0232 146.853 72.7544 146.944 72.5124C147.388 71.724 148.342 71.2317 149.125 70.6741C149.89 70.0826 151.052 69.5846 152.08 69.4155Z" fill="#F0997A"/>
<path d="M152.048 66.7724C151.547 66.9543 151.024 67.1383 150.546 67.3721C149.812 67.7313 148.976 68.4703 148.744 69.1749C148.703 69.2962 148.682 69.4252 148.719 69.5475C148.772 69.7217 148.962 69.8265 149.144 69.9134C149.819 70.2346 150.575 70.1544 151.283 69.9566C151.903 69.7829 152.522 69.5963 153.099 69.3429C153.572 69.1353 154.186 68.9354 154.566 68.6245C154.896 68.3557 155.063 67.8572 154.939 67.4939C154.839 67.1974 154.538 66.7405 154.241 66.5488C153.88 66.3165 153.529 66.3453 153.09 66.428C152.705 66.5005 152.395 66.6464 152.048 66.7724Z" fill="#FFBDA7"/>
<path d="M152.048 66.7725C151.005 67.217 149.86 67.9221 149.151 68.6955C148.96 68.9294 148.771 69.2511 148.841 69.5245C149.18 70.0615 150.17 70.1047 150.84 69.9829C151.606 69.8266 152.374 69.6046 153.1 69.3431C152.411 69.6848 151.666 69.933 150.884 70.1324C149.992 70.3832 148.137 70.0713 148.672 69.0429C149.222 67.9365 150.765 67.18 152.048 66.7725Z" fill="#F0997A"/>
<path d="M151.547 72.1026C150.807 72.2665 149.958 72.7609 149.287 73.0605C148.942 73.2142 148.61 73.3848 148.291 73.5708C147.971 73.7579 147.652 73.9193 147.382 74.1587C146.936 74.5545 147.371 74.9142 147.86 75.0792C148.562 75.3156 149.415 75.1511 150.11 74.9635C150.349 74.8988 150.584 74.8207 150.827 74.7647C151.554 74.5981 152.264 74.5863 152.917 74.2497C153.342 74.0308 153.585 73.6675 153.706 73.2743C153.76 73.097 153.914 72.6494 153.854 72.4731C153.748 72.1586 153.368 71.9412 152.974 71.9104C152.791 71.896 152.608 71.9176 152.427 71.9428C152.131 71.9844 151.837 72.0378 151.547 72.1026Z" fill="#FFBDA7"/>
<path d="M152.428 71.9419C150.91 72.2107 149.407 73.0185 148.166 73.7534C147.57 74.088 146.828 74.5366 147.796 74.9478C148.473 75.2263 149.254 75.0824 149.963 74.9205C150.912 74.5978 152.002 74.6338 152.918 74.2489C152.498 74.495 151.976 74.5963 151.481 74.6918C150.243 74.8938 148.965 75.6128 147.687 75.1174C146.537 74.6276 147.228 74.0078 148.035 73.6059C149.292 72.8757 150.881 72.0976 152.428 71.9419Z" fill="#F0997A"/>
<path d="M104.14 61.1211C110.122 61.8961 110.989 62.6541 115.481 67.1406C119.973 71.6265 127.403 80.0305 127.403 80.0305L131.496 77.9599C131.496 77.9599 129.902 81.0414 130.927 83.948C131.951 86.8547 134.761 87.7741 136.101 87.2941C136.101 87.2941 132.503 91.888 128.721 93.2576C124.938 94.6266 122.258 92.7945 119.264 90.4562C116.269 88.1185 104.684 77.4029 104.684 77.4029L104.14 61.1211Z" fill="#FD8C00"/>
<path opacity="0.2" d="M104.14 61.1211C110.122 61.8961 110.989 62.6541 115.481 67.1406C119.973 71.6265 127.403 80.0305 127.403 80.0305L131.496 77.9599C131.496 77.9599 129.902 81.0414 130.927 83.948C131.951 86.8547 134.761 87.7741 136.101 87.2941C136.101 87.2941 132.503 91.888 128.721 93.2576C124.938 94.6266 122.258 92.7945 119.264 90.4562C116.269 88.1185 104.684 77.4029 104.684 77.4029L104.14 61.1211Z" fill="black"/>
<path d="M117.468 111.625C115.903 101.164 113.421 94.9932 113.15 92.3229C112.737 88.2501 114.144 83.1932 114.144 83.1932C114.144 83.1932 117.124 80.0157 116.751 75.315C116.378 70.6142 109.729 64.5069 104.14 61.1207L97.8249 60.3704L86.9658 60.042L84.6718 60.6921C84.6628 60.6751 84.6551 60.6607 84.6551 60.6607L70.7584 63.828C70.7584 63.828 69.1644 70.2108 69.6771 76.5304C70.2649 83.7822 73.3396 91.8275 73.162 94.7295C73.0338 96.8212 67.5491 106.007 65.6827 116.841C63.7784 127.895 62.108 137.342 61.6279 146.418C64.8917 148.773 70.1463 149.955 70.1463 149.955L72.5333 134.039L74.06 150.431C81.1189 151.82 94.092 152.859 111.97 149.992L111.786 147.92C114.428 147.341 119.119 146.256 121.026 144.571C121.026 144.571 120.448 131.553 117.468 111.625Z" fill="#FD8C00"/>
<g opacity="0.2">
<path d="M98.2803 68.8643C103.83 74.2182 104.101 86.2052 104.67 91.5494C104.887 94.6961 105.012 97.8443 105.256 100.984C106.707 115.661 109.714 133.165 111.785 147.92C108.818 132.347 105.929 116.74 104.488 101.019C104.014 94.732 103.95 88.4171 103.177 82.153C102.716 79.0921 100.829 71.3182 98.2803 68.8643Z" fill="black"/>
</g>
<g opacity="0.2">
<path d="M100.694 79.1971C100.694 79.7686 100.116 80.2316 99.4035 80.2316C98.6908 80.2316 98.1133 79.7686 98.1133 79.1971C98.1133 78.6256 98.6908 78.1626 99.4035 78.1626C100.116 78.1626 100.694 78.6256 100.694 79.1971Z" fill="black"/>
<path d="M91.8754 79.5838C91.8754 80.1553 91.2979 80.6183 90.5852 80.6183C89.8724 80.6183 89.2949 80.1553 89.2949 79.5838C89.2949 79.0124 89.8724 78.5493 90.5852 78.5493C91.2979 78.5493 91.8754 79.0129 91.8754 79.5838Z" fill="black"/>
<path d="M101.273 88.328C101.273 88.8994 100.695 89.3625 99.9826 89.3625C99.2699 89.3625 98.6924 88.8994 98.6924 88.328C98.6924 87.7565 99.2699 87.2935 99.9826 87.2935C100.695 87.2935 101.273 87.7565 101.273 88.328Z" fill="black"/>
<path d="M92.4545 88.7147C92.4545 89.2862 91.877 89.7492 91.1643 89.7492C90.4515 89.7492 89.874 89.2862 89.874 88.7147C89.874 88.1432 90.4515 87.6802 91.1643 87.6802C91.877 87.6802 92.4545 88.1432 92.4545 88.7147Z" fill="black"/>
<path d="M101.659 97.8455C101.659 98.417 101.081 98.88 100.368 98.88C99.6556 98.88 99.0781 98.417 99.0781 97.8455C99.0781 97.2741 99.6556 96.811 100.368 96.811C101.081 96.811 101.659 97.2746 101.659 97.8455Z" fill="black"/>
<path d="M92.8403 98.2327C92.8403 98.8042 92.2628 99.2673 91.55 99.2673C90.8373 99.2673 90.2598 98.8042 90.2598 98.2327C90.2598 97.6613 90.8373 97.1982 91.55 97.1982C92.2621 97.1982 92.8403 97.6618 92.8403 98.2327Z" fill="black"/>
<path d="M103.299 107.751C103.299 108.322 102.722 108.785 102.009 108.785C101.296 108.785 100.719 108.322 100.719 107.751C100.719 107.179 101.296 106.716 102.009 106.716C102.722 106.716 103.299 107.179 103.299 107.751Z" fill="black"/>
<path d="M93.1906 109.172C93.9032 109.172 94.4809 108.708 94.4809 108.137C94.4809 107.566 93.9032 107.103 93.1906 107.103C92.4781 107.103 91.9004 107.566 91.9004 108.137C91.9004 108.708 92.4781 109.172 93.1906 109.172Z" fill="black"/>
<path d="M104.392 118.042C104.392 118.613 103.815 119.076 103.102 119.076C102.389 119.076 101.812 118.613 101.812 118.042C101.812 117.47 102.389 117.007 103.102 117.007C103.814 117.007 104.392 117.47 104.392 118.042Z" fill="black"/>
<path d="M95.5727 118.43C95.5727 119.001 94.9952 119.464 94.2824 119.464C93.5697 119.464 92.9922 119.001 92.9922 118.43C92.9922 117.858 93.5697 117.395 94.2824 117.395C94.9952 117.395 95.5727 117.858 95.5727 118.43Z" fill="black"/>
</g>
<path d="M73.1609 94.7294L72.875 92.1727C72.875 92.1727 83.647 94.7341 96.4137 94.3517C109.18 93.9694 113.088 91.4214 113.088 91.4214L113.46 93.9709C113.46 93.9709 110.77 96.338 96.9399 96.8108C83.1092 97.2836 73.1609 94.7294 73.1609 94.7294Z" fill="#37474F"/>
<path d="M72.875 92.1729C83.3329 97.1979 98.6968 97.8978 114.213 96.8114L114.777 98.8804C114.777 98.8804 103.155 100.383 89.8739 98.8804C76.5926 97.3783 73.1641 94.2799 73.1641 94.2799L72.875 92.1729Z" fill="#455A64"/>
<path d="M68.9731 109.172C66.9195 115.747 66.3375 131.383 64.1543 132.9C62.6301 133.959 57.8768 133.731 55.0303 132.426C53.799 131.861 52.0043 127.448 51.903 126.496C51.5665 123.345 57.2345 109.922 60.2906 107.75C63.3474 105.579 68.9731 109.172 68.9731 109.172Z" fill="#263238"/>
<path d="M64.1546 132.9C66.3377 131.383 66.9197 115.747 68.9734 109.172C68.9734 109.172 67.7062 108.369 66.0525 107.751H62.0023L60.7569 114.243C58.6129 121.027 56.2644 130.353 56.3759 131.339C56.4727 132.192 56.7835 132.711 59.1634 133.473C61.2472 133.697 63.2585 133.522 64.1546 132.9Z" fill="#37474F"/>
<path d="M68.9731 109.171C64.5403 108.204 62.6276 109.729 61.6271 111.97C60.6259 114.212 59.1722 119.603 58.1659 119.463C57.1596 119.323 55.1463 116.992 55.0348 115.646C54.9233 114.301 58.4748 108.276 60.8925 106.715C63.3102 105.155 66.6279 106.5 66.6279 106.5L68.9731 109.171Z" fill="#455A64"/>
<path d="M101.845 60.9453C94.1244 87.2931 64.4697 109.896 64.4697 109.896L68.5969 110.538C68.5969 110.538 95.8499 91.5884 104.14 61.1211L101.845 60.9453Z" fill="black"/>
<path d="M103.663 32.483C100.545 28.8008 93.731 24.5374 91.6498 24.8786C87.5765 25.5462 87.5938 27.5597 85.019 28.2982C82.4443 29.0367 78.7209 28.8974 76.5872 30.5923C74.4534 32.2872 75.9776 43.3399 75.9776 43.3399C75.9776 43.3399 82.2885 33.7719 103.663 32.483Z" fill="#37474F"/>
<path d="M75.583 39.4019C75.7394 41.603 75.9785 43.3401 75.9785 43.3401C75.9785 43.3401 82.2894 33.772 103.664 32.4831C103.007 31.7082 102.186 30.9075 101.281 30.1294C92.5185 29.9197 81.5722 33.9411 75.583 39.4019Z" fill="#FD8C00"/>
<path d="M101.941 31.4544C111.491 31.7725 114.717 37.0787 109.146 43.3063C103.575 49.5339 91.3169 54.3246 81.7673 54.0064C72.2169 53.6883 68.9916 48.3817 74.5622 42.1541C80.1328 35.927 92.3912 31.1363 101.941 31.4544Z" fill="#455A64"/>
<path d="M99.407 33.8702C106.636 34.1112 109.078 38.1274 104.861 42.8416C100.644 47.5557 91.3655 51.1818 84.1368 50.9408C76.908 50.6998 74.4659 46.6836 78.6828 41.9695C82.8991 37.2558 92.1783 33.6297 99.407 33.8702Z" fill="#37474F"/>
<path d="M98.2812 68.8645C104.201 63.9941 108.703 57.3682 108.703 57.3682C108.703 57.3682 106.198 50.4206 94.9873 48.8984L98.2812 68.8645Z" fill="#FD8C00"/>
<path opacity="0.2" d="M98.2812 68.8645C104.201 63.9941 108.703 57.3682 108.703 57.3682C108.703 57.3682 106.198 50.4206 94.9873 48.8984L98.2812 68.8645Z" fill="black"/>
<path d="M77.085 51.2549C76.1883 45.8352 95.4601 46.9221 96.7196 47.6986C95.43 52.6861 96.3542 58.3474 98.4976 64.3802L81.5147 60.2782L77.085 51.2549Z" fill="#FD8C00"/>
<path opacity="0.35" d="M77.085 51.2549C76.1883 45.8352 95.4601 46.9221 96.7196 47.6986C95.43 52.6861 96.3542 58.3474 98.4976 64.3802L81.5147 60.2782L77.085 51.2549Z" fill="black"/>
<path d="M77.0827 51.2583C79.046 58.9469 81.89 61.2883 81.89 61.2883L72.6896 63.3851C72.405 56.4616 73.0396 52.1191 75.3163 48.9904C78.2871 44.9053 84.2 45.7543 87.9579 47.0642C82.4822 47.2138 76.5745 48.1974 77.0821 51.2511L77.0827 51.2583Z" fill="#263238"/>
<path d="M103.514 42.9724C98.2069 46.9151 88.2118 48.9779 81.1868 47.5801C80.2305 47.39 79.3755 47.1458 78.6307 46.8473C78.6223 46.8267 78.605 46.8133 78.5967 46.7928C78.0551 45.9176 77.6148 44.8995 77.3359 43.8342C77.666 43.2303 78.1147 42.6059 78.682 41.9682C82.8969 37.2587 92.1729 33.6279 99.4094 33.8725C102.651 33.9743 104.936 34.85 106.07 36.2C106.087 36.2134 106.104 36.2273 106.104 36.2406C107.459 38.1544 106.671 40.6315 103.514 42.9724Z" fill="#263238"/>
<path d="M82.5098 52.7385C80.8792 53.0617 79.3921 52.4748 78.3288 51.6387C75.9688 49.7819 76.1149 47.7797 77.0546 46.405C77.8269 45.2749 79.8735 44.4819 81.3951 45.1526C83.0232 45.87 83.1181 46.5119 83.7757 47.3763C84.4506 48.2638 85.9062 47.475 85.1409 43.9141C88.1099 42.6231 86.2421 39.3284 87.7721 37.5811C89.7219 35.3543 93.7189 36.2455 95.9065 36.9521C96.5513 37.1602 97.2852 37.0497 97.7801 36.6581C99.0799 35.6303 101.098 35.2207 102.885 35.8857C104.8 36.5985 105.77 37.6628 105.698 41.3111C105.681 42.1431 105.788 42.9777 106.038 43.7856C106.327 44.724 106.654 45.7621 106.739 46.3875C107.203 49.803 106.163 53.8942 104.045 55.6868C102.843 56.7048 100.566 57.7255 97.7102 57.7229L97.8486 60.2143L98.2806 68.8645L84.7076 60.9744L84.1827 51.6387C84.1827 51.6387 84.059 52.4316 82.5098 52.7385Z" fill="#FFBDA7"/>
<path d="M93.2264 41.0468L90.3536 42.2042C89.9729 41.5412 90.3068 40.7446 91.1003 40.425C91.8938 40.1053 92.845 40.3839 93.2264 41.0468Z" fill="#263238"/>
<path d="M104.341 41.5342L101.269 40.7165C101.519 40.0191 102.409 39.6373 103.257 39.8634C104.105 40.0896 104.591 40.8373 104.341 41.5342Z" fill="#263238"/>
<path d="M103.532 43.3529C103.857 43.873 103.597 44.5051 102.951 44.7641C102.305 45.0237 101.518 44.8119 101.193 44.2919C100.868 43.7718 101.128 43.1397 101.774 42.8807C102.421 42.6216 103.208 42.8329 103.532 43.3529Z" fill="#263238"/>
<path d="M93.8408 43.6999C94.1657 44.22 93.9055 44.8521 93.2594 45.1111C92.6133 45.3702 91.8262 45.1589 91.5013 44.6389C91.1763 44.1188 91.4365 43.4867 92.0826 43.2277C92.7287 42.9681 93.5158 43.1793 93.8408 43.6999Z" fill="#263238"/>
<path d="M96.4141 42.2036L97.8505 48.9909L102.394 47.5565L96.4141 42.2036Z" fill="#F0997A"/>
<path d="M98.5825 51.6195C98.2331 51.5373 97.8274 51.5758 97.4653 51.5609C97.1051 51.546 96.7493 51.5126 96.3974 51.4494C95.6443 51.3137 94.9803 51.028 94.3028 50.7443C94.0656 50.6451 94.097 50.9396 94.2098 51.0228C94.8143 51.471 95.6199 51.7238 96.4128 51.8754C96.7884 51.9474 97.1756 51.9957 97.5621 52.007C97.8851 52.0162 98.403 52.0368 98.66 51.8507C98.751 51.7845 98.6921 51.6452 98.5825 51.6195Z" fill="#B16668"/>
<path d="M97.7098 57.7227C92.7725 57.8117 88.1883 56.1373 86.4795 54.1279C87.2262 56.8563 91.238 58.0876 93.5961 58.4391C96.4625 58.8667 97.7694 58.7907 97.7694 58.7907L97.7098 57.7227Z" fill="#F0997A"/>
<path d="M98.28 68.8646C92.9939 64.5708 89.4078 58.8906 89.4078 58.8906C89.4078 58.8906 81.2733 55.8261 77.084 51.2554C79.0466 58.9466 81.8893 61.2911 81.8893 61.2911C81.8893 61.2911 86.0389 65.6706 98.28 68.8646Z" fill="#FD8C00"/>
<path opacity="0.2" d="M98.28 68.8646C92.9939 64.5708 89.4078 58.8906 89.4078 58.8906C89.4078 58.8906 81.2733 55.8261 77.084 51.2554C79.0466 58.9466 81.8893 61.2911 81.8893 61.2911C81.8893 61.2911 86.0389 65.6706 98.28 68.8646Z" fill="black"/>
<path d="M70.7585 63.8281C67.3044 64.7645 64.7123 66.7107 63.8329 68.6651C62.9586 70.6071 62.2529 75.1851 67.2287 83.9499C72.1276 92.579 73.9851 94.6166 76.565 94.9311C79.9204 95.3402 83.5399 93.192 86.3698 89.5577C86.3698 89.5577 81.6484 81.907 80.6505 79.6638C77.3521 72.2481 75.6183 68.3778 70.7585 63.8281Z" fill="#FD8C00"/>
<path opacity="0.2" d="M70.7585 63.8281C67.3044 64.7645 64.7123 66.7107 63.8329 68.6651C62.9586 70.6071 62.2529 75.1851 67.2287 83.9499C72.1276 92.579 73.9851 94.6166 76.565 94.9311C79.9204 95.3402 83.5399 93.192 86.3698 89.5577C86.3698 89.5577 81.6484 81.907 80.6505 79.6638C77.3521 72.2481 75.6183 68.3778 70.7585 63.8281Z" fill="black"/>
<path opacity="0.2" d="M76.2124 80.0393C75.042 80.8759 74.1735 81.857 73.5537 83.0112C72.9525 84.131 72.4987 85.4194 72.5352 86.6477C72.5371 86.716 72.6236 86.7222 72.6454 86.6574C72.8217 86.1301 72.9159 85.5869 73.08 85.0571C73.2806 84.4106 73.5255 83.7651 73.8428 83.1495C74.4062 82.0558 75.2093 80.989 76.2598 80.1533C76.3002 80.121 76.2746 79.9945 76.2124 80.0393ZM71.4532 87.9766C71.4289 87.4082 71.4635 86.8388 71.5513 86.274C71.6481 85.6527 71.6776 85.015 71.8103 84.4003C71.8147 84.3808 71.7936 84.3664 71.7808 84.3895C71.584 84.7575 71.3347 85.089 71.2199 85.4831C71.143 85.7457 71.109 86.0238 71.0738 86.2915C70.9943 86.8984 70.9764 87.5126 71.0174 88.1221C71.0584 88.7316 71.1674 89.3354 71.3398 89.93C71.4988 90.4799 71.6616 91.0704 72.041 91.5519C72.1243 91.6573 72.2121 91.5082 72.198 91.4414C72.0808 90.8648 71.8231 90.3134 71.6891 89.7378C71.5558 89.1581 71.4782 88.5651 71.4532 87.9766Z" fill="black"/>
<path d="M106.737 63.983C107.583 63.7487 108.441 64.0406 108.759 64.3911C109.077 64.741 108.754 65.255 108.177 65.5684C107.601 65.8824 106.893 66.4375 106.893 66.4375L105.344 66.2005L105.907 63.834L106.737 63.983Z" fill="#F0997A"/>
<path d="M97.3242 61.9566C98.0312 60.9005 98.7587 60.8137 99.4727 58.9255C100.187 57.0374 100.849 54.305 101.085 53.4873C101.301 52.7375 102.333 53.0341 102.819 53.9976C103.288 54.9299 103.036 56.1982 102.885 57.28C102.734 58.3618 102.126 60.6914 101.939 61.2572C101.751 61.8235 101.773 62.2094 101.773 62.2094L97.3242 61.9566Z" fill="#F0997A"/>
<path d="M97.3242 61.9564C97.7056 61.4312 98.2645 61.0262 98.7042 60.5205C99.1324 60.0102 99.417 59.4326 99.6471 58.8549C100.104 57.6981 100.438 56.5177 100.776 55.3403L101.235 53.5694C101.296 53.2846 101.501 53.1248 101.805 53.2235C102.096 53.316 102.35 53.5395 102.529 53.7811C102.903 54.2744 102.992 54.8839 102.997 55.477C103.014 56.0752 102.929 56.6775 102.886 57.2803C103.012 56.6847 103.134 56.0886 103.179 55.4796C103.208 54.8762 103.158 54.2338 102.778 53.668C102.59 53.3915 102.331 53.1207 101.919 52.983C101.72 52.9131 101.429 52.9121 101.226 53.0431C101.024 53.168 100.953 53.3592 100.907 53.5087L100.415 55.2766C100.109 56.4565 99.7701 57.6303 99.3759 58.7892C99.1817 59.3663 98.9356 59.9326 98.5529 60.4419C98.1818 60.9543 97.6312 61.3988 97.3242 61.9564Z" fill="#B16668"/>
<path d="M90.3693 71.0333C91.9762 69.5368 92.905 68.9103 93.4953 67.9714C94.085 67.033 96.0034 64.2301 96.4168 63.2645C96.8302 62.2988 97.2091 61.475 99.3992 61.5161C101.589 61.5572 105.551 62.2366 106.474 62.5984C107.395 62.9597 106.806 63.8986 106.338 64.7085C107.168 65.0683 107.197 65.8273 106.704 66.7997C106.211 67.772 105.699 68.8255 105.699 68.8255C105.64 69.9484 105.533 70.1833 104.571 70.7069C103.61 71.2306 102.769 71.6885 102.157 71.8463C101.544 72.0041 100.917 71.7826 100.824 71.5169C100.268 73.1922 99.464 73.2904 98.5032 73.8022C97.2373 74.4765 96.2271 75.3429 94.2972 78.5611C92.3544 81.8008 90.3437 85.8823 87.6812 89.1004C85.491 91.7475 83.0957 93.6876 79.682 94.6352C75.7426 95.7288 74.7498 94.2503 74.3011 92.6901C73.5518 90.0876 73.5633 87.4492 75.526 84.0733C76.972 81.5865 79.4179 80.1429 82.0772 78.0996C84.434 76.2875 88.1016 73.1455 90.3693 71.0333Z" fill="#FFBDA7"/>
<path d="M106.337 64.7094C105.138 64.2992 99.9004 63.3608 99.9004 63.3608C99.9004 63.3608 102.505 63.3639 106.582 64.2813L106.337 64.7094Z" fill="#F0997A"/>
<path d="M105.698 68.8256C105.661 67.5532 105.935 67.4036 104.309 66.6348C102.683 65.866 101.048 64.8495 99.8369 64.7739C101.271 64.7873 101.284 64.8587 102.949 65.606C104.615 66.3532 105.756 66.9113 105.917 67.0727C106.077 67.234 106.168 67.8672 106.168 67.8672L105.698 68.8256Z" fill="#F0997A"/>
<path d="M100.824 71.5167C100.552 70.5207 100.24 69.1044 100.175 68.5201C100.11 67.9352 100.422 67.6274 101.318 67.8741C102.215 68.1207 102.763 68.834 102.716 69.4564C102.914 68.9122 102.88 68.1536 101.453 67.594C99.9173 66.9922 99.7917 67.8735 99.9782 68.6686C100.165 69.4626 100.824 71.5167 100.824 71.5167Z" fill="#F0997A"/>
<path d="M36.1213 38.4601C32.6614 36.885 27.9009 37.126 22.6431 39.5599C12.0654 44.4559 3.49121 56.3638 3.49121 66.1564C3.49121 71.0489 5.63267 74.4849 9.09386 76.0893C10.5347 76.7574 14.1946 78.441 15.6381 79.1075C19.1018 80.7068 23.8821 80.475 29.1643 78.0298C39.7421 73.1333 48.3162 61.2259 48.3162 51.4328C48.3162 46.5506 46.1837 43.1187 42.7347 41.5097C41.2887 40.8359 37.5859 39.1272 36.1213 38.4601Z" fill="#FD8C00"/>
<path opacity="0.15" d="M4.19465 61.0679C3.73893 62.7951 3.49023 64.5059 3.49023 66.1566C3.49023 71.0491 5.63169 74.4851 9.09288 76.0895C10.5338 76.7576 14.193 78.4412 15.6365 79.1077C19.1002 80.707 23.8805 80.4753 29.1633 78.0301C30.9426 77.2063 32.6636 76.1805 34.2981 75.0031L4.19465 61.0679Z" fill="black"/>
<path d="M20.6105 79.8702C14.2707 79.8702 10.332 75.7682 10.332 69.1644C10.332 59.4689 18.8517 47.6376 29.3237 42.7904C32.2805 41.4213 35.1046 40.7275 37.7171 40.7275C44.0569 40.7275 47.9949 44.8301 47.9949 51.4334C47.9949 56.1208 46.0208 61.4459 42.4365 66.4278L42.359 66.5357L45.5862 73.0074C45.7073 73.25 45.6727 73.5126 45.4907 73.7274C45.31 73.9417 45.0125 74.0702 44.6965 74.0702C44.6376 74.0702 44.5767 74.0661 44.5152 74.0568L36.5275 72.8866L36.4083 72.9889C34.0611 74.9978 31.5697 76.6187 29.0039 77.8063C26.0465 79.1764 23.2231 79.8702 20.6105 79.8702Z" fill="white"/>
<path d="M37.7173 40.9841C43.8596 40.9841 47.6746 44.988 47.6746 51.433C47.6746 56.0762 45.7158 61.3556 42.1585 66.2995L42.0034 66.5153L42.1188 66.7471L45.2883 73.1031C45.3992 73.3251 45.296 73.4994 45.2249 73.5842C45.1031 73.7281 44.9057 73.8139 44.6961 73.8139C44.6557 73.8139 44.614 73.8108 44.5724 73.8046L36.7565 72.6596L36.4123 72.6093L36.1732 72.8138C33.8478 74.8042 31.3814 76.4096 28.8425 77.585C25.9351 78.9309 23.1649 79.6134 20.6094 79.6134C14.467 79.6134 10.652 75.6095 10.652 69.1645C10.652 59.5513 19.0999 47.8197 29.4835 43.0125C32.3915 41.6666 35.1618 40.9841 37.7173 40.9841ZM37.7173 40.4702C35.1425 40.4702 32.2383 41.1445 29.1637 42.5675C18.5865 47.4635 10.0117 59.3714 10.0117 69.1645C10.0117 76.1111 14.3267 80.1273 20.61 80.1273C23.1848 80.1273 26.089 79.453 29.1637 78.03C31.8166 76.8018 34.3439 75.1321 36.6418 73.1653L44.4576 74.3103C44.5384 74.3221 44.6185 74.3278 44.6961 74.3278C45.5761 74.3278 46.2286 73.6047 45.8831 72.9125L42.7136 66.5564C46.1748 61.7462 48.3149 56.326 48.3149 51.433C48.3162 44.487 44.0006 40.4702 37.7173 40.4702Z" fill="#FD8C00"/>
<path d="M28.7534 72.5204C30.2206 71.841 31.1025 70.1462 31.1025 68.922C31.1025 67.3515 29.8982 66.9686 28.7534 67.498C27.285 68.1779 26.4043 69.8723 26.4043 71.0964C26.4043 72.6654 27.6067 73.0508 28.7534 72.5204Z" fill="#FD8C00"/>
<path d="M28.8807 49.3781C29.6883 49.004 30.4767 48.7773 31.242 48.6987C32.0086 48.6201 32.688 48.7141 33.2809 48.9819C33.8757 49.2481 34.3519 49.6967 34.7141 50.3258C35.0749 50.9553 35.2563 51.7904 35.2563 52.8316C35.2563 53.6801 35.148 54.4694 34.9339 55.1941C34.7179 55.9212 34.4429 56.6119 34.1077 57.2651C33.7725 57.9204 33.4065 58.5458 33.0104 59.144C32.6143 59.7412 32.2406 60.307 31.8874 60.8425C31.5349 61.3769 31.2253 61.9078 30.9587 62.4356C30.692 62.9624 30.5331 63.4711 30.4812 63.9624C30.4459 64.2127 30.3684 64.4512 30.2485 64.6762C30.1286 64.9013 29.9735 65.0586 29.7838 65.1455L27.8212 66.0546C27.6327 66.1409 27.4648 66.1347 27.3187 66.0314C27.1725 65.9297 27.1084 65.757 27.1245 65.5155C27.1584 64.6716 27.3007 63.8781 27.5513 63.1355C27.8007 62.3929 28.1019 61.6914 28.4545 61.029C28.8063 60.3671 29.1858 59.7401 29.5902 59.1491C29.994 58.5592 30.3677 57.9985 30.7132 57.4661C31.0568 56.9357 31.3413 56.4321 31.5644 55.9572C31.7881 55.4813 31.8996 55.0214 31.8996 54.5753C31.8996 53.7685 31.6246 53.2309 31.0741 52.9652C30.5228 52.7005 29.7915 52.7792 28.88 53.2011C27.4174 53.8779 26.3412 55.2788 25.6534 57.4028C25.5676 57.6763 25.4772 57.8931 25.383 58.054C25.2868 58.2159 25.1279 58.3469 24.9048 58.4502L22.814 59.4179C22.6589 59.4898 22.5256 59.4878 22.414 59.4117C22.3025 59.3362 22.2461 59.1928 22.2461 58.98C22.2634 58.2287 22.4486 57.3828 22.8012 56.4449C23.1543 55.5065 23.628 54.5856 24.2215 53.6847C24.8144 52.7838 25.5118 51.9456 26.3123 51.1706C27.1123 50.3987 27.9686 49.8 28.8807 49.3781Z" fill="#FD8C00"/>
</svg>
