<svg width="52" height="9" viewBox="0 0 52 9" fill="none" xmlns="http://www.w3.org/2000/svg">
<path d="M51.3536 4.85355C51.5488 4.65829 51.5488 4.34171 51.3536 4.14645L48.1716 0.964466C47.9763 0.769204 47.6597 0.769204 47.4645 0.964466C47.2692 1.15973 47.2692 1.47631 47.4645 1.67157L50.2929 4.5L47.4645 7.32843C47.2692 7.52369 47.2692 7.84027 47.4645 8.03553C47.6597 8.2308 47.9763 8.2308 48.1716 8.03553L51.3536 4.85355ZM0 5H2.125V4H0V5ZM6.375 5H10.625V4H6.375V5ZM14.875 5H19.125V4H14.875V5ZM23.375 5H27.625V4H23.375V5ZM31.875 5H36.125V4H31.875V5ZM40.375 5H44.625V4H40.375V5ZM48.875 5H51V4H48.875V5ZM51.3536 4.85355C51.5488 4.65829 51.5488 4.34171 51.3536 4.14645L48.1716 0.964466C47.9763 0.769204 47.6597 0.769204 47.4645 0.964466C47.2692 1.15973 47.2692 1.47631 47.4645 1.67157L50.2929 4.5L47.4645 7.32843C47.2692 7.52369 47.2692 7.84027 47.4645 8.03553C47.6597 8.2308 47.9763 8.2308 48.1716 8.03553L51.3536 4.85355ZM0 5H2.125V4H0V5ZM6.375 5H10.625V4H6.375V5ZM14.875 5H19.125V4H14.875V5ZM23.375 5H27.625V4H23.375V5ZM31.875 5H36.125V4H31.875V5ZM40.375 5H44.625V4H40.375V5ZM48.875 5H51V4H48.875V5Z" fill="#FD8C00"/>
</svg>
