<svg width="39" height="39" viewBox="0 0 39 39" fill="none" xmlns="http://www.w3.org/2000/svg">
<rect x="0.5" y="0.5" width="38" height="38" rx="19" stroke="#FD8C00"/>
<path fill-rule="evenodd" clip-rule="evenodd" d="M14.4513 9.96983C14.5919 9.82938 14.7825 9.75049 14.9813 9.75049C15.18 9.75049 15.3707 9.82938 15.5113 9.96983L20.0113 14.4698C20.1438 14.612 20.2159 14.8 20.2125 14.9944C20.209 15.1887 20.1303 15.374 19.9929 15.5114C19.8555 15.6489 19.6701 15.7276 19.4758 15.731C19.2815 15.7344 19.0935 15.6623 18.9513 15.5298L15.7313 12.3098V23.9998C15.7313 24.1987 15.6523 24.3895 15.5116 24.5302C15.371 24.6708 15.1802 24.7498 14.9813 24.7498C14.7824 24.7498 14.5916 24.6708 14.451 24.5302C14.3103 24.3895 14.2313 24.1987 14.2313 23.9998V12.3098L11.0113 15.5298C10.8691 15.6623 10.6811 15.7344 10.4868 15.731C10.2925 15.7276 10.1071 15.6489 9.96967 15.5114C9.83226 15.374 9.75355 15.1887 9.75012 14.9944C9.74669 14.8 9.81881 14.612 9.95129 14.4698L14.4513 9.96983ZM23.9813 14.2498C24.1802 14.2498 24.371 14.3288 24.5116 14.4695C24.6523 14.6102 24.7313 14.8009 24.7313 14.9998V26.6898L27.9513 23.4698C28.02 23.3961 28.1028 23.337 28.1948 23.296C28.2868 23.2551 28.3861 23.233 28.4868 23.2312C28.5875 23.2295 28.6875 23.248 28.7809 23.2857C28.8743 23.3234 28.9591 23.3796 29.0303 23.4508C29.1015 23.522 29.1577 23.6068 29.1954 23.7002C29.2331 23.7936 29.2517 23.8936 29.2499 23.9944C29.2481 24.0951 29.2261 24.1944 29.1851 24.2864C29.1441 24.3784 29.085 24.4612 29.0113 24.5298L24.5113 29.0298C24.3707 29.1703 24.18 29.2492 23.9813 29.2492C23.7825 29.2492 23.5919 29.1703 23.4513 29.0298L18.9513 24.5298C18.8776 24.4612 18.8185 24.3784 18.7775 24.2864C18.7365 24.1944 18.7145 24.0951 18.7127 23.9944C18.7109 23.8936 18.7294 23.7936 18.7672 23.7002C18.8049 23.6068 18.861 23.522 18.9323 23.4508C19.0035 23.3796 19.0883 23.3234 19.1817 23.2857C19.2751 23.248 19.3751 23.2295 19.4758 23.2312C19.5765 23.233 19.6758 23.2551 19.7678 23.296C19.8598 23.337 19.9426 23.3961 20.0113 23.4698L23.2313 26.6898V14.9998C23.2313 14.8009 23.3103 14.6102 23.451 14.4695C23.5916 14.3288 23.7824 14.2498 23.9813 14.2498Z" fill="#667085"/>
</svg>
