<svg width="24" height="25" viewBox="0 0 24 25" fill="none" xmlns="http://www.w3.org/2000/svg">
<path d="M2.25 8.65332H21.75M2.25 9.40332H21.75M5.25 14.6533H11.25M5.25 16.9033H8.25M4.5 19.9033H19.5C20.0967 19.9033 20.669 19.6663 21.091 19.2443C21.5129 18.8224 21.75 18.2501 21.75 17.6533V7.15332C21.75 6.55658 21.5129 5.98429 21.091 5.56233C20.669 5.14037 20.0967 4.90332 19.5 4.90332H4.5C3.90326 4.90332 3.33097 5.14037 2.90901 5.56233C2.48705 5.98429 2.25 6.55658 2.25 7.15332V17.6533C2.25 18.2501 2.48705 18.8224 2.90901 19.2443C3.33097 19.6663 3.90326 19.9033 4.5 19.9033Z" stroke="#667085" stroke-width="1.5" stroke-linecap="round" stroke-linejoin="round"/>
</svg>
