<svg width="24" height="25" viewBox="0 0 24 25" fill="none" xmlns="http://www.w3.org/2000/svg">
<path d="M2.25 8.74512H21.75M2.25 9.49512H21.75M5.25 14.7451H11.25M5.25 16.9951H8.25M4.5 19.9951H19.5C20.0967 19.9951 20.669 19.7581 21.091 19.3361C21.5129 18.9142 21.75 18.3419 21.75 17.7451V7.24512C21.75 6.64838 21.5129 6.07608 21.091 5.65413C20.669 5.23217 20.0967 4.99512 19.5 4.99512H4.5C3.90326 4.99512 3.33097 5.23217 2.90901 5.65413C2.48705 6.07608 2.25 6.64838 2.25 7.24512V17.7451C2.25 18.3419 2.48705 18.9142 2.90901 19.3361C3.33097 19.7581 3.90326 19.9951 4.5 19.9951Z" stroke="#667085" stroke-width="1.5" stroke-linecap="round" stroke-linejoin="round"/>
</svg>
