<svg width="20" height="20" viewBox="0 0 20 20" fill="none" xmlns="http://www.w3.org/2000/svg">
<path d="M6.875 6.25V5.09C6.875 4.14417 7.57917 3.34167 8.52167 3.26333C8.8325 3.23833 9.145 3.21583 9.4575 3.19667M13.125 15H15C15.4973 15 15.9742 14.8025 16.3258 14.4508C16.6775 14.0992 16.875 13.6223 16.875 13.125V5.09C16.875 4.14417 16.1708 3.34167 15.2283 3.26333C14.9167 3.23749 14.6047 3.21526 14.2925 3.19667M14.2925 3.19667C14.1741 2.81392 13.9355 2.47911 13.6131 2.24128C13.2907 2.00345 12.9006 1.87509 12.5 1.875H11.25C10.8494 1.87509 10.4593 2.00345 10.1369 2.24128C9.81448 2.47911 9.57669 2.81392 9.45833 3.19667C9.40417 3.37167 9.375 3.5575 9.375 3.75V4.375H14.375V3.75C14.375 3.5575 14.3467 3.37167 14.2925 3.19667ZM13.125 15.625V14.0625C13.125 13.3166 12.8287 12.6012 12.3012 12.0738C11.7738 11.5463 11.0584 11.25 10.3125 11.25H9.0625C8.81386 11.25 8.5754 11.1512 8.39959 10.9754C8.22377 10.7996 8.125 10.5611 8.125 10.3125V9.0625C8.125 8.31658 7.82868 7.60121 7.30124 7.07376C6.77379 6.54632 6.05842 6.25 5.3125 6.25H4.375M5.625 6.25H4.0625C3.545 6.25 3.125 6.67 3.125 7.1875V17.1875C3.125 17.705 3.545 18.125 4.0625 18.125H12.1875C12.705 18.125 13.125 17.705 13.125 17.1875V13.75C13.125 11.7609 12.3348 9.85322 10.9283 8.4467C9.52178 7.04018 7.61412 6.25 5.625 6.25Z" stroke="#5554ED" stroke-linecap="round" stroke-linejoin="round"/>
</svg>
