<svg width="20" height="20" viewBox="0 0 20 20" fill="none" xmlns="http://www.w3.org/2000/svg">
<path d="M5.62471 2.49512V4.37012M14.3747 2.49512V4.37012M2.49805 15.6201V6.24262C2.49805 5.74534 2.69559 5.26842 3.04722 4.91679C3.39885 4.56516 3.87577 4.36762 4.37305 4.36762H15.623C16.1203 4.36762 16.5972 4.56516 16.9489 4.91679C17.3005 5.26842 17.498 5.74534 17.498 6.24262V15.6185M17.498 15.6185C17.498 16.1157 17.3005 16.5926 16.9489 16.9443C16.5972 17.2959 16.1203 17.4935 15.623 17.4935H4.37305C3.87577 17.4935 3.39885 17.2959 3.04722 16.9443C2.69559 16.5926 2.49805 16.1157 2.49805 15.6185V9.36845C2.49805 8.87117 2.69559 8.39426 3.04722 8.04263C3.39885 7.69099 3.87577 7.49345 4.37305 7.49345H15.623C16.1203 7.49345 16.5972 7.69099 16.9489 8.04263C17.3005 8.39426 17.498 8.87117 17.498 9.36845V15.6185ZM11.873 10.6184H13.748M6.24805 12.4934H9.99805M9.99971 10.6184H10.0039V10.6235H9.99971V10.6184ZM9.99888 14.3685H10.0039V14.3734H9.99888V14.3685ZM8.12388 14.3693H8.12805V14.3743H8.12471V14.3693H8.12388ZM6.24888 14.3693H6.25305V14.3734H6.24805V14.3693H6.24888ZM11.8739 12.4968H11.878V12.501H11.8739V12.4968ZM11.8739 14.3693H11.8789V14.3743H11.8739V14.3693ZM13.7489 12.4959H13.7539V12.5001H13.7497L13.7489 12.4959Z" stroke="#667085" stroke-linecap="round" stroke-linejoin="round"/>
</svg>
