<svg width="24" height="25" viewBox="0 0 24 25" fill="none" xmlns="http://www.w3.org/2000/svg">
<path d="M14.74 9.49759L14.394 18.4976M9.606 18.4976L9.26 9.49759M19.228 6.28759C19.57 6.33959 19.91 6.39459 20.25 6.45359M19.228 6.28759L18.16 20.1706C18.1164 20.7358 17.8611 21.2638 17.445 21.6488C17.029 22.0339 16.4829 22.2478 15.916 22.2476H8.084C7.5171 22.2478 6.97102 22.0339 6.55498 21.6488C6.13894 21.2638 5.88359 20.7358 5.84 20.1706L4.772 6.28759M19.228 6.28759C18.0739 6.11311 16.9138 5.98069 15.75 5.89059M4.772 6.28759C4.43 6.33859 4.09 6.39359 3.75 6.45259M4.772 6.28759C5.92613 6.11311 7.08623 5.98069 8.25 5.89059M15.75 5.89059V4.97459C15.75 3.79459 14.84 2.81059 13.66 2.77359C12.5536 2.73823 11.4464 2.73823 10.34 2.77359C9.16 2.81059 8.25 3.79559 8.25 4.97459V5.89059M15.75 5.89059C13.2537 5.69767 10.7463 5.69767 8.25 5.89059" stroke="#B3261E" stroke-width="1.5" stroke-linecap="round" stroke-linejoin="round"/>
</svg>
