<svg width="178" height="246" viewBox="0 0 178 246" fill="none" xmlns="http://www.w3.org/2000/svg">
<ellipse cx="89" cy="80.745" rx="89" ry="80.745" fill="#5554ED" fill-opacity="0.3"/>
<path d="M66.582 207.772C64.8302 208.774 63.9451 209.041 62.9349 210.54C61.262 213.024 58.4091 218.593 56.8849 221.004C56.8849 221.004 57.44 221.694 58.2674 221.678L62.4766 216.671C63.2355 215.617 63.7265 216.53 63.647 217.74C63.4938 220.075 63.3336 222.273 62.9586 224.281C62.4869 226.807 62.1773 229.244 64.6533 231.35C67.7351 233.97 70.5066 235.676 73.5287 236.232C74.8139 236.469 77.9424 235.948 76.4861 232.377C76.0176 231.228 75.401 229.582 75.8048 223.515C76.1381 218.505 77.2213 215.8 78.8769 212.783C80.5332 209.766 92.2628 198.766 94.9619 196.017C97.6609 193.268 96.961 192.481 96.961 192.481L95.697 193.786C95.697 193.786 94.4446 194.988 87.0607 191.374C79.6775 187.76 79.2807 185.612 79.2807 185.612L79.9012 184.413C79.9012 184.413 78.425 184.474 77.513 186.569C75.9881 190.069 70.0368 203.154 69.3734 204.648C68.71 206.141 67.3755 207.318 66.582 207.772Z" fill="#263238"/>
<path d="M118.655 161.233C118.485 155.837 117.326 137.258 116.203 130.913C116.203 130.913 115.246 123.862 113.261 117.282C112.224 113.844 111.263 110.869 110.568 108.235C103.829 112.252 86.8344 112.953 78.8749 108.752C77.6129 110.523 73.8479 114.957 70.943 121.209C68.4048 126.671 67.3972 130.076 67.7132 136.789C68.0023 142.932 73.4748 161.543 76.6341 169.206C78.5474 176.975 78.025 182.069 77.7494 186.54C77.4738 191.011 79.5338 204.778 83.238 216.801C83.238 216.801 85.2679 218.215 89.8187 218.122C94.3695 218.028 95.6502 216.546 95.6502 216.546L99.3851 191.641C99.3851 191.641 106.767 183.235 110.71 178.725C114.654 174.214 118.92 169.657 118.655 161.233Z" fill="#455A64"/>
<path d="M82.3509 224.473C81.4978 226.115 80.9158 226.741 81.0017 228.468C81.144 231.328 82.2214 237.332 82.4445 240.063C82.4445 240.063 83.3463 240.395 84.0366 240.006L84.4584 233.862C84.4398 232.627 85.4275 233.177 86.1191 234.236C87.4542 236.282 88.6964 238.214 89.6386 240.083C90.8231 242.434 92.0896 244.636 95.5047 245.296C99.7549 246.116 103.17 246.304 106.076 245.405C107.312 245.023 109.632 243.165 106.161 240.803C105.044 240.043 103.49 238.93 100.027 233.613C97.168 229.223 96.3879 226.444 95.8976 223.141C95.4073 219.838 98.4339 205.216 98.9928 201.667C99.5524 198.118 98.4672 197.77 98.4672 197.77L98.216 199.446C98.216 199.446 97.9096 201.031 89.3963 201.318C80.8831 201.606 79.2005 199.969 79.2005 199.969L78.9737 198.673C78.9737 198.673 77.7629 199.394 78.3045 201.58C79.2095 205.232 82.3797 219 82.7547 220.564C83.1284 222.129 82.7374 223.729 82.3509 224.473Z" fill="#263238"/>
<path d="M99.3858 191.641C100.876 181.615 100.574 171.102 100.383 164.355C100.192 157.607 98.4288 134.643 98.4288 134.643C98.4288 134.643 105.372 131.999 108.906 126.386C106.616 133.532 101.335 136.157 101.335 136.157C101.335 136.157 102.548 156.046 102.518 167.95C102.488 179.855 99.3858 191.641 99.3858 191.641Z" fill="#37474F"/>
<path d="M138.274 85.7877C137.717 86.3096 136.523 87.2866 134.171 88.8389C132.274 90.0904 127.404 93.2926 127.404 93.2926C127.404 93.2926 119.242 83.9596 116.06 80.3407C110.969 74.5471 108.504 73.2286 103.872 73.2046L105.411 89.7815C105.411 89.7815 113.122 97.7447 117.157 101.501C122.063 106.069 124.674 106.958 126.453 106.808C132.026 106.278 136.635 99.8037 144.572 91.008C145.551 90.1111 146.053 90.3345 147.728 89.7592C148.788 89.3952 149.802 89.0944 151.521 88.1491C152.49 87.6157 152.943 87.0376 153.321 86.3527C153.595 85.8563 151.923 83.8888 151.816 83.3478C151.656 82.537 152.047 81.6963 151.85 80.8915C151.827 80.7989 151.796 80.7117 151.758 80.6289C151.549 80.1701 151.132 79.8405 150.77 79.4406C150.724 79.3893 150.679 79.3332 150.67 79.2684C150.662 79.2106 150.667 79.1452 150.708 79.0989C151.638 78.0599 153.391 76.3654 154.751 75.0996C155.445 74.4534 156.616 73.3468 156.051 72.3323C155.878 72.0206 155.428 71.8751 155.025 71.9078C154.621 71.9405 154.254 72.116 153.912 72.3018C152.637 72.9943 151.522 73.8759 150.414 74.7526C149.442 75.5214 148.471 76.2907 147.499 77.0595C145.771 78.4271 144.035 79.8018 142.537 81.3579C141.824 82.0978 140.932 81.5791 140.442 82.4362C139.655 83.8136 138.83 85.2657 138.274 85.7877Z" fill="#FFBDA7"/>
<path d="M147.441 81.3566C147.434 81.1501 147.421 80.9436 147.402 80.7366C147.402 80.7278 147.4 80.7191 147.4 80.7109C147.231 80.8755 147.076 81.0498 146.921 81.2242C146.747 81.4198 146.832 81.683 146.834 81.9189C146.838 82.1913 146.828 82.4638 146.804 82.7356C146.757 83.2783 146.65 83.8177 146.468 84.3397C146.064 85.497 145.24 86.4598 144.186 87.2596C144.145 87.2907 144.129 87.4329 144.217 87.3948C145.549 86.8199 146.422 85.7324 146.907 84.5588C147.336 83.5219 147.476 82.4431 147.441 81.3566Z" fill="#F0997A"/>
<path d="M148.883 86.728L148.884 86.7269C148.885 86.7258 148.885 86.7247 148.885 86.723L152.991 76.0764L152.992 76.0754L152.996 76.0639L152.994 76.0634C153.076 75.8585 153.006 75.6068 152.758 75.3529C152.252 74.8347 151.209 74.5072 150.428 74.6206C150.036 74.6778 149.786 74.8347 149.696 75.0423L144.582 85.3353C144.421 85.6638 144.363 86.0338 144.437 86.4108C144.647 87.4766 145.833 88.1969 147.087 88.0187C147.948 87.8972 148.617 87.3834 148.883 86.728Z" fill="#455A64"/>
<path d="M149.696 75.0429L144.582 85.3359C144.42 85.6645 144.362 86.0344 144.436 86.4115C144.638 87.4358 145.741 88.1376 146.939 88.0341C146.164 87.9938 145.324 87.0359 145.924 85.6149C146.526 84.1857 149.998 77.0126 151.05 74.6147C150.835 74.5918 150.623 74.5929 150.428 74.6212C150.037 74.6784 149.785 74.8353 149.696 75.0429Z" fill="#37474F"/>
<path d="M152.755 75.351C152.248 74.8339 151.204 74.5076 150.424 74.622C150.045 74.6776 149.799 74.8263 149.703 75.0241C149.633 75.1696 149.351 75.7193 149.276 75.8686C149.167 76.086 149.237 76.3617 149.508 76.6385C150.031 77.1719 151.107 77.5081 151.911 77.3899C152.327 77.3288 152.589 77.1583 152.673 76.9344C152.73 76.7796 152.996 76.0648 152.996 76.0648C153.08 75.8599 153.005 75.6055 152.755 75.351Z" fill="#5554ED"/>
<path d="M152.755 75.3507C153.262 75.8678 153.04 76.3799 152.26 76.4949C151.479 76.6093 150.436 76.2835 149.929 75.7659C149.422 75.2488 149.644 74.7366 150.424 74.6217C151.204 74.5067 152.248 74.8331 152.755 75.3507Z" fill="#5554ED"/>
<path opacity="0.3" d="M152.755 75.3507C153.262 75.8678 153.04 76.3799 152.26 76.4949C151.479 76.6093 150.436 76.2835 149.929 75.7659C149.422 75.2488 149.644 74.7366 150.424 74.6217C151.204 74.5067 152.248 74.8331 152.755 75.3507Z" fill="white"/>
<path d="M152.61 70.7639C153.127 70.6887 153.818 70.9056 154.154 71.2488C154.32 71.4194 154.367 71.5888 154.309 71.7256V71.7278L152.516 75.8093C152.515 75.8104 152.515 75.811 152.515 75.8121C152.454 75.9483 152.289 76.0518 152.031 76.0889C151.514 76.164 150.823 75.9472 150.488 75.6039C150.32 75.4323 150.273 75.2618 150.333 75.1244L152.126 71.0434H152.126C152.185 70.9061 152.351 70.8015 152.61 70.7639Z" fill="#37474F"/>
<path d="M152.125 71.0445C152.184 70.9067 152.35 70.802 152.61 70.7639C152.805 70.7356 153.025 70.7487 153.241 70.795L150.985 75.9281C150.788 75.8437 150.612 75.733 150.486 75.6045C150.319 75.4328 150.272 75.2623 150.331 75.125L152.125 71.0445Z" fill="#263238"/>
<path d="M154.462 72.0966C156.322 72.8028 158.73 72.4655 161.246 70.9159C166.28 67.8173 169.841 61.0452 169.2 55.7905C168.88 53.1632 167.57 51.4126 165.711 50.7059L162.287 49.4047C160.428 48.6986 158.019 49.0364 155.503 50.5855C150.469 53.6841 146.908 60.4562 147.549 65.7108C147.869 68.3382 149.179 70.0888 151.038 70.795L154.462 72.0966ZM167.875 55.9071C168.16 58.2539 167.543 61.0212 166.134 63.6992C164.726 66.3772 162.712 68.6144 160.464 69.9984C158.432 71.2499 156.494 71.6275 155.006 71.0625C153.519 70.4975 152.558 69.0176 152.299 66.8959C152.013 64.5492 152.631 61.7818 154.039 59.1038C155.447 56.4258 157.461 54.1886 159.709 52.8047C161.741 51.5537 163.68 51.1755 165.167 51.7406C166.654 52.3056 167.616 53.7849 167.875 55.9071Z" fill="#5554ED"/>
<path opacity="0.3" d="M154.462 72.0966C156.322 72.8028 158.73 72.4655 161.246 70.9159C166.28 67.8173 169.841 61.0452 169.2 55.7905C168.88 53.1632 167.57 51.4126 165.711 50.7059L162.287 49.4047C160.428 48.6986 158.019 49.0364 155.503 50.5855C150.469 53.6841 146.908 60.4562 147.549 65.7108C147.869 68.3382 149.179 70.0888 151.038 70.795L154.462 72.0966ZM167.875 55.9071C168.16 58.2539 167.543 61.0212 166.134 63.6992C164.726 66.3772 162.712 68.6144 160.464 69.9984C158.432 71.2499 156.494 71.6275 155.006 71.0625C153.519 70.4975 152.558 69.0176 152.299 66.8959C152.013 64.5492 152.631 61.7818 154.039 59.1038C155.447 56.4258 157.461 54.1886 159.709 52.8047C161.741 51.5537 163.68 51.1755 165.167 51.7406C166.654 52.3056 167.616 53.7849 167.875 55.9071Z" fill="white"/>
<path opacity="0.4" d="M166.778 52.9555C166.348 52.3959 165.806 51.9829 165.166 51.7399C163.679 51.1749 161.741 51.5525 159.709 52.804C158.764 53.3854 157.862 54.1193 157.027 54.9715L152.346 53.1925C153.302 52.1758 154.364 51.286 155.502 50.5853C158.018 49.0357 160.426 48.6979 162.286 49.4046L165.711 50.7057C166.567 51.0316 167.307 51.5819 167.887 52.3354L166.778 52.9555Z" fill="#5554ED"/>
<path opacity="0.3" d="M154.462 72.0962L151.038 70.7951C149.179 70.0884 147.869 68.3383 147.549 65.711C147.462 64.995 147.455 64.2502 147.517 63.4912L152.244 65.2675C152.219 65.827 152.236 66.3719 152.299 66.8955C152.558 69.0172 153.519 70.4971 155.006 71.0621C155.501 71.2501 156.047 71.3312 156.627 71.3133L156.999 72.4237C156.081 72.4967 155.225 72.3861 154.462 72.0962Z" fill="white"/>
<path d="M158.927 51.8853C153.894 54.984 150.333 61.756 150.974 67.0107C151.614 72.2654 156.213 74.0133 161.246 70.9146C166.28 67.816 169.841 61.0439 169.2 55.7893C168.56 50.5346 163.961 48.7867 158.927 51.8853ZM165.167 51.7393C166.655 52.3043 167.616 53.7842 167.874 55.9059C168.16 58.2526 167.542 61.0199 166.134 63.6979C164.726 66.3759 162.712 68.6131 160.465 69.9971C158.432 71.2486 156.494 71.6262 155.007 71.0612C153.52 70.4962 152.558 69.0163 152.299 66.8946C152.013 64.5479 152.631 61.7806 154.039 59.1026C155.448 56.4246 157.461 54.1874 159.709 52.8034C161.742 51.5519 163.68 51.1743 165.167 51.7393Z" fill="#5554ED"/>
<g opacity="0.5">
<path d="M158.927 51.8853C153.894 54.984 150.333 61.756 150.974 67.0107C151.614 72.2654 156.213 74.0133 161.246 70.9146C166.28 67.816 169.841 61.0439 169.2 55.7893C168.56 50.5346 163.961 48.7867 158.927 51.8853ZM165.167 51.7393C166.655 52.3043 167.616 53.7842 167.874 55.9059C168.16 58.2526 167.542 61.0199 166.134 63.6979C164.726 66.3759 162.712 68.6131 160.465 69.9971C158.432 71.2486 156.494 71.6262 155.007 71.0612C153.52 70.4962 152.558 69.0163 152.299 66.8946C152.013 64.5479 152.631 61.7806 154.039 59.1026C155.448 56.4246 157.461 54.1874 159.709 52.8034C161.742 51.5519 163.68 51.1743 165.167 51.7393Z" fill="white"/>
</g>
<path opacity="0.4" d="M158.546 72.16C157.575 72.4428 156.52 72.573 155.495 72.4144C154.471 72.2608 153.522 71.7971 152.82 71.1471C152.108 70.4981 151.638 69.6879 151.321 68.8532C151.171 68.432 151.051 68.0032 150.97 67.5695C150.932 67.3521 150.894 67.1347 150.875 66.9157L150.827 66.2586C150.803 66.0395 150.813 65.82 150.818 65.6009C150.824 65.3813 150.824 65.1618 150.834 64.9427L150.904 64.2878L150.938 63.9603C150.952 63.8514 150.977 63.7435 150.995 63.6351C151.294 61.8997 151.896 60.2073 152.725 58.6033C153.578 57.0079 154.66 55.4986 155.982 54.1517C156.065 54.0678 156.142 53.9801 156.229 53.8989L156.493 53.6581L157.021 53.177C157.206 53.0244 157.399 52.8778 157.587 52.728C157.776 52.5787 157.962 52.4262 158.17 52.2954L158.779 51.8873C158.983 51.7533 159.199 51.6323 159.414 51.5108C159.85 51.2732 160.305 51.0624 160.774 50.8771C161.717 50.5213 162.741 50.2789 163.784 50.2968C164.823 50.3083 165.862 50.6003 166.68 51.1463C167.503 51.6895 168.092 52.4447 168.491 53.2484C168.887 54.058 169.097 54.9222 169.201 55.789C169.081 54.9233 168.853 54.064 168.443 53.2658C168.031 52.473 167.431 51.7364 166.616 51.2171C165.808 50.6908 164.795 50.4145 163.782 50.4118C162.765 50.402 161.765 50.6477 160.842 51.0046C159.921 51.374 159.066 51.8573 158.287 52.4163C158.082 52.5455 157.899 52.6975 157.713 52.8452C157.527 52.9939 157.338 53.1394 157.155 53.2903L156.635 53.7676L156.374 54.0063C156.289 54.0869 156.212 54.1741 156.131 54.2574C154.827 55.594 153.76 57.094 152.92 58.6768C152.091 60.2645 151.489 61.9405 151.187 63.6579C151.168 63.7653 151.143 63.8721 151.129 63.98L151.093 64.3042L151.022 64.952C151.011 65.1683 151.011 65.3857 151.004 65.602C150.999 65.8189 150.987 66.0357 151.011 66.252C151.04 67.1189 151.186 67.9825 151.477 68.8123C151.779 69.6345 152.231 70.4317 152.918 71.0697C153.597 71.7094 154.514 72.1665 155.514 72.3278C156.514 72.4978 157.559 72.3861 158.529 72.1186C159.502 71.8456 160.407 71.4168 161.246 70.9155C160.417 71.4277 159.52 71.8712 158.546 72.16Z" fill="white"/>
<path d="M165.168 51.7387C164.584 51.5169 163.935 51.4412 163.235 51.5055C163.876 52.2579 164.293 53.3128 164.449 54.6052C164.736 56.9508 164.118 59.7193 162.71 62.3984C161.302 65.0753 159.288 67.313 157.039 68.6948C155.803 69.4587 154.6 69.8973 153.511 69.9954C153.922 70.4792 154.421 70.8405 155.006 71.0622C156.493 71.6272 158.432 71.2496 160.466 69.997C162.711 68.6141 164.726 66.3764 166.134 63.6995C167.543 61.0204 168.16 58.252 167.875 55.9074C167.617 53.7835 166.655 52.3037 165.168 51.7387Z" fill="#5554ED"/>
<path opacity="0.3" d="M165.168 51.7387C164.584 51.5169 163.935 51.4412 163.235 51.5055C163.876 52.2579 164.293 53.3128 164.449 54.6052C164.736 56.9508 164.118 59.7193 162.71 62.3984C161.302 65.0753 159.288 67.313 157.039 68.6948C155.803 69.4587 154.6 69.8973 153.511 69.9954C153.922 70.4792 154.421 70.8405 155.006 71.0622C156.493 71.6272 158.432 71.2496 160.466 69.997C162.711 68.6141 164.726 66.3764 166.134 63.6995C167.543 61.0204 168.16 58.252 167.875 55.9074C167.617 53.7835 166.655 52.3037 165.168 51.7387Z" fill="white"/>
<path opacity="0.4" d="M160.466 69.9968C158.432 71.2494 156.493 71.627 155.006 71.062C154.423 70.8402 153.923 70.479 153.512 69.9951C154.6 69.8971 155.803 69.4584 157.04 68.6945C157.545 68.3834 158.038 68.0276 158.516 67.6348C158.116 67.9721 156.984 69.0433 158.627 69.1201C160.58 69.2116 163.775 67.2507 165.098 65.4199H165.103C163.814 67.3308 162.21 68.9223 160.466 69.9968Z" fill="#5554ED"/>
<path opacity="0.7" d="M166.324 55.3167C166.61 57.6634 165.992 60.4308 164.584 63.1088C163.176 65.7868 161.162 68.024 158.914 69.4079C157.237 70.4404 155.624 70.8763 154.276 70.6807C153.205 69.9571 152.513 68.6451 152.299 66.8945C152.013 64.5477 152.631 61.7804 154.039 59.1024C155.448 56.4244 157.461 54.1872 159.709 52.8032C161.386 51.7707 162.999 51.3348 164.347 51.5304C165.418 52.254 166.111 53.566 166.324 55.3167Z" fill="white"/>
<path d="M144.726 78.5251C145.455 78.0935 146.22 77.5863 146.952 77.1913C147.736 76.7679 148.31 76.3244 149.094 75.901C149.297 75.7915 149.785 75.7615 150.042 75.8264C150.307 75.8934 150.488 76.1931 150.524 76.4067C150.601 76.8469 150.392 77.2621 150.197 77.6593C149.917 78.2325 149.491 78.749 149.017 79.2181C148.121 80.1074 147.141 80.9366 146.325 81.8825C145.002 83.4141 139.483 84.4031 139.483 84.4031C140.037 83.0262 140.332 82.4481 140.931 81.3213C141.194 80.8271 141.744 80.328 142.153 80.012C142.53 79.7211 142.973 79.4917 143.549 79.1784C143.926 78.974 144.355 78.7452 144.726 78.5251Z" fill="#FFBDA7"/>
<path d="M146.951 77.1909C147.781 76.67 148.409 76.1605 149.272 75.6685C149.898 75.2822 150.699 76.0069 150.698 76.5359C150.648 77.0399 150.479 77.5298 150.216 77.9831C149.85 78.6146 149.322 79.166 148.761 79.6793C148.473 79.9424 148.174 80.1974 147.876 80.4519C147.783 80.5303 147.092 81.1782 147.022 81.1035C146.919 80.994 147.706 80.3255 147.813 80.2208C148.915 79.1502 150.168 78.0245 150.376 76.5468C150.372 76.2052 149.873 75.6189 149.406 75.869C148.536 76.3093 147.855 76.7773 146.951 77.1909Z" fill="#F0997A"/>
<path d="M146.987 80.9757C146.706 81.0967 146.399 81.1844 146.096 81.1915C145.745 81.1991 145.391 81.1255 145.049 81.0651C145.011 81.0585 144.973 81.1266 145.013 81.1408C145.062 81.1582 145.111 81.1762 145.161 81.1931C145.515 81.3152 145.891 81.4176 146.278 81.4111C146.459 81.4078 146.648 81.3789 146.819 81.3271C146.9 81.3026 146.95 81.2302 147.003 81.1751C147.074 81.1038 147.143 81.0296 147.218 80.961C147.249 80.9332 147.28 80.9071 147.307 80.876C147.326 80.8537 147.349 80.7959 147.374 80.7817C147.253 80.8509 147.123 80.9174 146.987 80.9757Z" fill="#F0997A"/>
<path d="M153.838 81.0295C153.226 80.9908 152.657 81.3913 152.08 81.5455C151.534 81.6909 150.78 82.0309 150.272 82.2565C149.954 82.3976 149.676 82.5949 149.401 82.7905C148.705 83.2847 148.005 83.7821 147.412 84.3657C147.205 84.5694 147.001 84.8174 147.049 85.0833C147.074 85.2146 147.159 85.3333 147.267 85.4287C147.576 85.7022 148.06 85.7932 148.502 85.7463C148.945 85.6995 149.356 85.5317 149.748 85.3502C150.14 85.1688 150.525 84.9699 150.949 84.8517C151.421 84.7198 151.924 84.692 152.41 84.6016C153.254 84.4447 154.079 83.9668 154.505 83.3212C154.888 82.7414 155.078 81.242 154.122 81.0633C154.026 81.0469 153.931 81.0355 153.838 81.0295Z" fill="#FFBDA7"/>
<path d="M152.079 81.5459C151.072 81.8042 149.994 82.3523 149.247 83.005C148.537 83.5842 147.598 84.1149 147.185 84.8826C147.121 85.0614 147.207 85.2433 147.378 85.3812C147.947 85.8345 148.793 85.6667 149.445 85.3932C150.382 84.9175 151.316 84.668 152.407 84.6026C151.352 84.7415 150.43 85.0428 149.531 85.5392C148.858 85.8678 147.852 86.0383 147.213 85.5267C147.001 85.3708 146.853 85.0859 146.944 84.8292C147.387 83.9934 148.341 83.4714 149.124 82.8803C149.889 82.2531 151.052 81.7252 152.079 81.5459Z" fill="#F0997A"/>
<path d="M152.048 78.7435C151.548 78.9364 151.025 79.1314 150.547 79.3794C149.812 79.7602 148.976 80.5437 148.744 81.2907C148.704 81.4193 148.683 81.5561 148.72 81.6858C148.772 81.8705 148.963 81.9816 149.145 82.0737C149.82 82.4142 150.575 82.3292 151.284 82.1195C151.904 81.9353 152.523 81.7375 153.1 81.4689C153.572 81.2488 154.186 81.0368 154.567 80.7072C154.896 80.4222 155.063 79.8937 154.94 79.5085C154.839 79.1941 154.538 78.7097 154.241 78.5065C153.88 78.2602 153.53 78.2907 153.091 78.3784C152.705 78.4553 152.395 78.61 152.048 78.7435Z" fill="#FFBDA7"/>
<path d="M152.048 78.7437C151.005 79.215 149.86 79.9625 149.151 80.7825C148.96 81.0304 148.771 81.3715 148.841 81.6614C149.18 82.2308 150.17 82.2765 150.84 82.1474C151.606 81.9818 152.374 81.7464 153.1 81.4691C152.411 81.8314 151.666 82.0946 150.884 82.306C149.992 82.5719 148.137 82.2411 148.672 81.1509C149.222 79.9778 150.765 79.1757 152.048 78.7437Z" fill="#F0997A"/>
<path d="M151.547 84.3942C150.807 84.568 149.958 85.0922 149.287 85.4098C148.942 85.5728 148.61 85.7537 148.291 85.9509C147.971 86.1492 147.652 86.3203 147.382 86.5742C146.936 86.9938 147.371 87.3752 147.86 87.5501C148.562 87.8007 149.415 87.6264 150.11 87.4275C150.349 87.3588 150.584 87.276 150.827 87.2166C151.554 87.0401 152.264 87.0275 152.917 86.6707C153.342 86.4385 153.585 86.0533 153.706 85.6365C153.76 85.4485 153.914 84.974 153.854 84.7871C153.748 84.4536 153.368 84.2231 152.974 84.1904C152.791 84.1752 152.608 84.1981 152.427 84.2248C152.131 84.2689 151.837 84.3256 151.547 84.3942Z" fill="#FFBDA7"/>
<path d="M152.428 84.2241C150.91 84.5091 149.407 85.3656 148.166 86.1448C147.57 86.4995 146.828 86.9751 147.796 87.411C148.473 87.7063 149.254 87.5538 149.963 87.3821C150.912 87.04 152.002 87.0781 152.918 86.67C152.498 86.931 151.976 87.0383 151.481 87.1397C150.243 87.3538 148.965 88.1161 147.687 87.5908C146.537 87.0716 147.228 86.4145 148.035 85.9884C149.292 85.2141 150.881 84.3892 152.428 84.2241Z" fill="#F0997A"/>
<path d="M104.14 72.7515C110.123 73.5731 110.989 74.3768 115.481 79.1334C119.973 83.8895 127.403 92.7997 127.403 92.7997L131.496 90.6044C131.496 90.6044 129.902 93.8714 130.927 96.9532C131.951 100.035 134.761 101.01 136.101 100.501C136.101 100.501 132.503 105.371 128.721 106.823C124.938 108.275 122.258 106.332 119.264 103.853C116.269 101.375 104.685 90.0138 104.685 90.0138L104.14 72.7515Z" fill="#5554ED"/>
<path opacity="0.2" d="M104.14 72.7515C110.123 73.5731 110.989 74.3768 115.481 79.1334C119.973 83.8895 127.403 92.7997 127.403 92.7997L131.496 90.6044C131.496 90.6044 129.902 93.8714 130.927 96.9532C131.951 100.035 134.761 101.01 136.101 100.501C136.101 100.501 132.503 105.371 128.721 106.823C124.938 108.275 122.258 106.332 119.264 103.853C116.269 101.375 104.685 90.0138 104.685 90.0138L104.14 72.7515Z" fill="black"/>
<path d="M117.469 126.298C115.903 115.207 113.422 108.664 113.151 105.833C112.738 101.515 114.145 96.1534 114.145 96.1534C114.145 96.1534 117.125 92.7845 116.752 87.8007C116.379 82.8168 109.73 76.3417 104.14 72.7516L97.8257 71.9561L86.9665 71.6079L84.6725 72.2972C84.6635 72.2792 84.6558 72.2639 84.6558 72.2639L70.7592 75.6219C70.7592 75.6219 69.1651 82.3891 69.6779 89.0893C70.2656 96.7778 73.3403 105.308 73.1628 108.384C73.0346 110.602 67.5499 120.341 65.6834 131.828C63.7791 143.548 62.1087 153.563 61.6287 163.186C64.8924 165.682 70.147 166.935 70.147 166.935L72.534 150.061L74.0607 167.441C81.1197 168.913 94.0927 170.014 111.971 166.975L111.786 164.778C114.429 164.164 119.12 163.015 121.027 161.227C121.027 161.227 120.449 147.426 117.469 126.298Z" fill="#5554ED"/>
<g opacity="0.2">
<path d="M98.2808 80.9614C103.83 86.6378 104.101 99.3467 104.671 105.013C104.888 108.349 105.013 111.687 105.257 115.015C106.707 130.577 109.714 149.135 111.785 164.779C108.819 148.267 105.929 131.72 104.488 115.052C104.014 108.387 103.951 101.692 103.178 95.0505C102.716 91.8053 100.83 83.5631 98.2808 80.9614Z" fill="black"/>
</g>
<g opacity="0.2">
<path d="M100.695 91.9166C100.695 92.5225 100.117 93.0134 99.4045 93.0134C98.6918 93.0134 98.1143 92.5225 98.1143 91.9166C98.1143 91.3107 98.6918 90.8198 99.4045 90.8198C100.117 90.8198 100.695 91.3107 100.695 91.9166Z" fill="black"/>
<path d="M91.8763 92.3263C91.8763 92.9322 91.2988 93.4231 90.586 93.4231C89.8733 93.4231 89.2958 92.9322 89.2958 92.3263C89.2958 91.7204 89.8733 91.2295 90.586 91.2295C91.2988 91.2295 91.8763 91.721 91.8763 92.3263Z" fill="black"/>
<path d="M101.274 101.597C101.274 102.203 100.697 102.694 99.9839 102.694C99.2711 102.694 98.6936 102.203 98.6936 101.597C98.6936 100.991 99.2711 100.5 99.9839 100.5C100.697 100.5 101.274 100.991 101.274 101.597Z" fill="black"/>
<path d="M92.455 102.007C92.455 102.613 91.8775 103.104 91.1648 103.104C90.452 103.104 89.8745 102.613 89.8745 102.007C89.8745 101.402 90.452 100.911 91.1648 100.911C91.8775 100.911 92.455 101.402 92.455 102.007Z" fill="black"/>
<path d="M101.66 111.688C101.66 112.294 101.082 112.785 100.37 112.785C99.6569 112.785 99.0793 112.294 99.0793 111.688C99.0793 111.082 99.6569 110.591 100.37 110.591C101.082 110.591 101.66 111.083 101.66 111.688Z" fill="black"/>
<path d="M92.8415 112.098C92.8415 112.704 92.264 113.195 91.5512 113.195C90.8385 113.195 90.261 112.704 90.261 112.098C90.261 111.492 90.8385 111.001 91.5512 111.001C92.2634 111.001 92.8415 111.493 92.8415 112.098Z" fill="black"/>
<path d="M103.3 122.19C103.3 122.795 102.723 123.286 102.01 123.286C101.297 123.286 100.72 122.795 100.72 122.19C100.72 121.584 101.297 121.093 102.01 121.093C102.723 121.093 103.3 121.584 103.3 122.19Z" fill="black"/>
<path d="M93.1915 123.696C93.9041 123.696 94.4818 123.205 94.4818 122.599C94.4818 121.993 93.9041 121.502 93.1915 121.502C92.4789 121.502 91.9012 121.993 91.9012 122.599C91.9012 123.205 92.4789 123.696 93.1915 123.696Z" fill="black"/>
<path d="M104.393 133.101C104.393 133.707 103.816 134.198 103.103 134.198C102.39 134.198 101.812 133.707 101.812 133.101C101.812 132.495 102.39 132.004 103.103 132.004C103.815 132.004 104.393 132.495 104.393 133.101Z" fill="black"/>
<path d="M95.574 133.511C95.574 134.117 94.9965 134.608 94.2838 134.608C93.571 134.608 92.9935 134.117 92.9935 133.511C92.9935 132.905 93.571 132.415 94.2838 132.415C94.9965 132.415 95.574 132.905 95.574 133.511Z" fill="black"/>
</g>
<path d="M73.1616 108.384L72.8757 105.674C72.8757 105.674 83.6477 108.389 96.4144 107.984C109.181 107.578 113.089 104.877 113.089 104.877L113.461 107.58C113.461 107.58 110.771 110.09 96.9406 110.591C83.11 111.092 73.1616 108.384 73.1616 108.384Z" fill="#37474F"/>
<path d="M72.8757 105.674C83.3337 111.001 98.6975 111.744 114.214 110.592L114.778 112.785C114.778 112.785 103.156 114.378 89.8747 112.785C76.5933 111.193 73.1648 107.908 73.1648 107.908L72.8757 105.674Z" fill="#455A64"/>
<path d="M68.9733 123.696C66.9197 130.667 66.3377 147.244 64.1546 148.853C62.6304 149.976 57.877 149.734 55.0305 148.35C53.7992 147.752 52.0045 143.072 51.9033 142.064C51.5668 138.723 57.2348 124.491 60.2909 122.188C63.3476 119.887 68.9733 123.696 68.9733 123.696Z" fill="#263238"/>
<path d="M64.1552 148.853C66.3383 147.245 66.9203 130.668 68.974 123.697C68.974 123.697 67.7068 122.844 66.0531 122.189H62.0029L60.7575 129.072C58.6135 136.265 56.265 146.153 56.3765 147.198C56.4733 148.103 56.7842 148.652 59.164 149.461C61.2478 149.698 63.2592 149.513 64.1552 148.853Z" fill="#37474F"/>
<path d="M68.9734 123.696C64.5405 122.67 62.6279 124.286 61.6273 126.663C60.6261 129.04 59.1724 134.756 58.1661 134.607C57.1598 134.458 55.1466 131.987 55.035 130.561C54.9235 129.135 58.4751 122.746 60.8928 121.092C63.3105 119.438 66.6281 120.864 66.6281 120.864L68.9734 123.696Z" fill="#455A64"/>
<path d="M101.845 72.5654C94.1248 100.5 64.4701 124.464 64.4701 124.464L68.5972 125.145C68.5972 125.145 95.8503 105.054 104.14 72.7518L101.845 72.5654Z" fill="black"/>
<path d="M103.663 42.3889C100.545 38.4849 93.7311 33.9648 91.6499 34.3265C87.5766 35.0343 87.5939 37.1691 85.0192 37.9521C82.4444 38.735 78.7211 38.5874 76.5873 40.3843C74.4535 42.1813 75.9777 53.8996 75.9777 53.8996C75.9777 53.8996 82.2887 43.7554 103.663 42.3889Z" fill="#37474F"/>
<path d="M75.583 49.7245C75.7394 52.0582 75.9785 53.8998 75.9785 53.8998C75.9785 53.8998 82.2894 43.7555 103.664 42.389C103.007 41.5674 102.186 40.7185 101.281 39.8936C92.5185 39.6713 81.5722 43.9348 75.583 49.7245Z" fill="#5554ED"/>
<path d="M101.941 41.2986C111.491 41.6359 114.717 47.2616 109.146 53.8642C103.575 60.4668 91.3167 65.546 81.767 65.2088C72.2167 64.8715 68.9914 59.2453 74.562 52.6426C80.1326 46.0405 92.391 40.9613 101.941 41.2986Z" fill="#455A64"/>
<path d="M99.4063 43.8596C106.635 44.1152 109.077 48.3733 104.86 53.3713C100.643 58.3693 91.3648 62.2139 84.136 61.9583C76.9073 61.7028 74.4652 57.4447 78.6821 52.4467C82.8983 47.4492 92.1775 43.6046 99.4063 43.8596Z" fill="#37474F"/>
<path d="M98.2807 80.9614C104.201 75.7978 108.703 68.7728 108.703 68.7728C108.703 68.7728 106.198 61.4069 94.9868 59.793L98.2807 80.9614Z" fill="#5554ED"/>
<path opacity="0.2" d="M98.2807 80.9614C104.201 75.7978 108.703 68.7728 108.703 68.7728C108.703 68.7728 106.198 61.4069 94.9868 59.793L98.2807 80.9614Z" fill="black"/>
<path d="M77.0848 62.2917C76.1881 56.5455 95.4599 57.6979 96.7194 58.5212C95.4297 63.8091 96.354 69.8113 98.4974 76.2074L81.5145 71.8584L77.0848 62.2917Z" fill="#5554ED"/>
<path opacity="0.35" d="M77.0848 62.2917C76.1881 56.5455 95.4599 57.6979 96.7194 58.5212C95.4297 63.8091 96.354 69.8113 98.4974 76.2074L81.5145 71.8584L77.0848 62.2917Z" fill="black"/>
<path d="M77.083 62.2947C79.0463 70.4464 81.8902 72.9288 81.8902 72.9288L72.6898 75.1518C72.4053 67.8114 73.0398 63.2073 75.3165 59.8902C78.2874 55.5591 84.2002 56.4592 87.9582 57.8481C82.4825 58.0066 76.5747 59.0495 77.0824 62.2871L77.083 62.2947Z" fill="#263238"/>
<path d="M103.515 53.5099C98.2077 57.69 88.2125 59.8771 81.1876 58.3951C80.2312 58.1935 79.3762 57.9347 78.6314 57.6181C78.6231 57.5963 78.6058 57.5822 78.5974 57.5604C78.0558 56.6325 77.6155 55.5531 77.3367 54.4236C77.6668 53.7834 78.1154 53.1214 78.6827 52.4452C82.8976 47.4521 92.1737 43.6026 99.4101 43.862C102.651 43.9699 104.937 44.8983 106.071 46.3297C106.088 46.3438 106.105 46.3585 106.105 46.3727C107.459 48.4018 106.672 51.028 103.515 53.5099Z" fill="#263238"/>
<path d="M82.5105 63.8642C80.8799 64.2069 79.3929 63.5847 78.3295 62.6982C75.9695 60.7296 76.1156 58.6068 77.0553 57.1493C77.8276 55.9512 79.8742 55.1104 81.3959 55.8215C83.0239 56.5821 83.1188 57.2626 83.7764 58.1791C84.4513 59.1201 85.907 58.2837 85.1417 54.5084C88.1106 53.1397 86.2428 49.6466 87.7728 47.794C89.7226 45.4331 93.7197 46.3779 95.9073 47.1271C96.5521 47.3478 97.286 47.2306 97.7808 46.8155C99.0807 45.7257 101.098 45.2915 102.886 45.9965C104.801 46.7522 105.77 47.8807 105.699 51.7486C105.682 52.6308 105.789 53.5156 106.038 54.3721C106.328 55.3671 106.654 56.4677 106.74 57.1308C107.204 60.7519 106.163 65.0896 104.046 66.9901C102.844 68.0694 100.567 69.1515 97.7109 69.1488L97.8494 71.7903L98.2814 80.9614L84.7084 72.5962L84.1834 62.6982C84.1834 62.6982 84.0597 63.5389 82.5105 63.8642Z" fill="#FFBDA7"/>
<path d="M93.2268 51.4682L90.354 52.6953C89.9733 51.9924 90.3072 51.1479 91.1007 50.8089C91.8942 50.47 92.8454 50.7654 93.2268 51.4682Z" fill="#263238"/>
<path d="M104.341 51.9854L101.269 51.1185C101.519 50.3791 102.409 49.9743 103.258 50.214C104.106 50.4538 104.591 51.2466 104.341 51.9854Z" fill="#263238"/>
<path d="M103.532 53.9139C103.857 54.4653 103.597 55.1355 102.951 55.4101C102.305 55.6853 101.518 55.4608 101.193 54.9094C100.868 54.358 101.128 53.6878 101.774 53.4132C102.421 53.1386 103.208 53.3625 103.532 53.9139Z" fill="#263238"/>
<path d="M93.8414 54.2815C94.1664 54.8329 93.9061 55.503 93.26 55.7776C92.614 56.0523 91.8268 55.8283 91.5019 55.2769C91.1769 54.7255 91.4372 54.0553 92.0832 53.7807C92.7293 53.5056 93.5164 53.7295 93.8414 54.2815Z" fill="#263238"/>
<path d="M96.4143 52.6953L97.8507 59.8913L102.394 58.3706L96.4143 52.6953Z" fill="#F0997A"/>
<path d="M98.5827 62.6778C98.2334 62.5906 97.8277 62.6315 97.4655 62.6157C97.1053 62.5999 96.7496 62.5645 96.3977 62.4975C95.6445 62.3536 94.9805 62.0507 94.303 61.7499C94.0658 61.6447 94.0973 61.957 94.2101 62.0452C94.8145 62.5203 95.6202 62.7884 96.4131 62.9491C96.7887 63.0254 97.1758 63.0766 97.5623 63.0886C97.8853 63.0984 98.4032 63.1202 98.6603 62.923C98.7513 62.8527 98.6923 62.705 98.5827 62.6778Z" fill="#B16668"/>
<path d="M97.7103 69.1487C92.7729 69.243 88.1888 67.4678 86.48 65.3374C87.2267 68.2301 91.2385 69.5356 93.5966 69.9083C96.463 70.3616 97.7699 70.2809 97.7699 70.2809L97.7103 69.1487Z" fill="#F0997A"/>
<path d="M98.2807 80.9612C92.9947 76.4089 89.4085 70.3865 89.4085 70.3865C89.4085 70.3865 81.274 67.1375 77.0847 62.2915C79.0473 70.4459 81.89 72.9316 81.89 72.9316C81.89 72.9316 86.0396 77.5749 98.2807 80.9612Z" fill="#5554ED"/>
<path opacity="0.2" d="M98.2807 80.9612C92.9947 76.4089 89.4085 70.3865 89.4085 70.3865C89.4085 70.3865 81.274 67.1375 77.0847 62.2915C79.0473 70.4459 81.89 72.9316 81.89 72.9316C81.89 72.9316 86.0396 77.5749 98.2807 80.9612Z" fill="black"/>
<path d="M70.7585 75.6221C67.3044 76.6148 64.7123 78.6782 63.8329 80.7503C62.9586 82.8094 62.2529 87.663 67.2287 96.9556C72.1276 106.104 73.9851 108.265 76.565 108.598C79.9204 109.032 83.5399 106.754 86.3698 102.901C86.3698 102.901 81.6484 94.7898 80.6505 92.4115C77.3521 84.5491 75.6183 80.4457 70.7585 75.6221Z" fill="#5554ED"/>
<path opacity="0.2" d="M70.7585 75.6221C67.3044 76.6148 64.7123 78.6782 63.8329 80.7503C62.9586 82.8094 62.2529 87.663 67.2287 96.9556C72.1276 106.104 73.9851 108.265 76.565 108.598C79.9204 109.032 83.5399 106.754 86.3698 102.901C86.3698 102.901 81.6484 94.7898 80.6505 92.4115C77.3521 84.5491 75.6183 80.4457 70.7585 75.6221Z" fill="black"/>
<path opacity="0.2" d="M76.2125 92.8098C75.0421 93.6969 74.1736 94.737 73.5538 95.9608C72.9526 97.148 72.4988 98.514 72.5353 99.8162C72.5372 99.8887 72.6238 99.8952 72.6456 99.8266C72.8218 99.2676 72.916 98.6916 73.0801 98.1299C73.2807 97.4444 73.5256 96.7601 73.8429 96.1073C74.4063 94.9479 75.2094 93.8167 76.2599 92.9308C76.3003 92.8965 76.2747 92.7624 76.2125 92.8098ZM71.4534 101.225C71.429 100.623 71.4636 100.019 71.5514 99.4201C71.6482 98.7614 71.6777 98.0852 71.8104 97.4335C71.8149 97.4128 71.7937 97.3976 71.7809 97.4221C71.5841 97.8122 71.3348 98.1637 71.2201 98.5816C71.1431 98.86 71.1092 99.1548 71.0739 99.4386C70.9944 100.082 70.9765 100.733 71.0175 101.379C71.0585 102.026 71.1675 102.666 71.3399 103.296C71.4989 103.879 71.6617 104.505 72.0411 105.016C72.1245 105.128 72.2123 104.97 72.1982 104.899C72.0809 104.287 71.8232 103.703 71.6892 103.092C71.5559 102.478 71.4784 101.849 71.4534 101.225Z" fill="black"/>
<path d="M106.737 75.7859C107.583 75.5375 108.441 75.847 108.759 76.2186C109.077 76.5896 108.754 77.1345 108.178 77.4668C107.601 77.7998 106.893 78.3882 106.893 78.3882L105.344 78.137L105.907 75.6279L106.737 75.7859Z" fill="#F0997A"/>
<path d="M97.3245 73.6376C98.0314 72.5179 98.7589 72.4258 99.473 70.424C100.188 68.4222 100.849 65.5251 101.085 64.6583C101.302 63.8633 102.334 64.1777 102.819 65.1993C103.288 66.1877 103.037 67.5324 102.885 68.6794C102.734 69.8263 102.127 72.2962 101.939 72.896C101.751 73.4965 101.773 73.9057 101.773 73.9057L97.3245 73.6376Z" fill="#F0997A"/>
<path d="M97.3245 73.6373C97.7058 73.0805 98.2647 72.6511 98.7044 72.115C99.1326 71.574 99.4172 70.9615 99.6473 70.3491C100.104 69.1226 100.438 67.8711 100.776 66.6228L101.236 64.7452C101.296 64.4433 101.501 64.2739 101.805 64.3785C102.096 64.4766 102.35 64.7136 102.53 64.9697C102.903 65.4927 102.992 66.1389 102.998 66.7677C103.014 67.4019 102.929 68.0405 102.887 68.6796C103.012 68.0481 103.134 67.4161 103.179 66.7704C103.208 66.1308 103.158 65.4497 102.778 64.8498C102.59 64.5567 102.332 64.2695 101.919 64.1235C101.72 64.0494 101.429 64.0483 101.227 64.1872C101.024 64.3197 100.953 64.5223 100.907 64.6809L100.415 66.5552C100.109 67.8062 99.7704 69.0507 99.3762 70.2794C99.182 70.8912 98.9358 71.4917 98.5532 72.0316C98.1821 72.5749 97.6315 73.0462 97.3245 73.6373Z" fill="#B16668"/>
<path d="M90.3693 83.2608C91.9762 81.6742 92.905 81.01 93.4953 80.0145C94.085 79.0196 96.0034 76.0479 96.4168 75.0241C96.8302 74.0003 97.2091 73.1269 99.3992 73.1705C101.589 73.2141 105.551 73.9344 106.474 74.318C107.395 74.701 106.806 75.6965 106.338 76.5552C107.168 76.9366 107.197 77.7414 106.704 78.7722C106.211 79.8031 105.699 80.9201 105.699 80.9201C105.64 82.1106 105.533 82.3596 104.571 82.9148C103.61 83.47 102.769 83.9555 102.157 84.1228C101.544 84.2901 100.917 84.0552 100.824 83.7735C100.268 85.5498 99.464 85.6539 98.5032 86.1965C97.2373 86.9114 96.2271 87.83 94.2972 91.242C92.3544 94.6768 90.3437 99.0041 87.6812 102.416C85.491 105.223 83.0957 107.279 79.682 108.284C75.7426 109.444 74.7498 107.876 74.3011 106.222C73.5518 103.463 73.5633 100.665 75.526 97.0862C76.972 94.4496 79.4179 92.919 82.0772 90.7527C84.434 88.8315 88.1016 85.5002 90.3693 83.2608Z" fill="#FFBDA7"/>
<path d="M106.337 76.5562C105.138 76.1214 99.9004 75.1265 99.9004 75.1265C99.9004 75.1265 102.505 75.1297 106.582 76.1023L106.337 76.5562Z" fill="#F0997A"/>
<path d="M105.698 80.9202C105.661 79.5711 105.935 79.4126 104.309 78.5975C102.683 77.7823 101.048 76.7046 99.8369 76.6245C101.271 76.6387 101.284 76.7144 102.949 77.5066C104.615 78.2989 105.756 78.8906 105.917 79.0617C106.077 79.2328 106.168 79.904 106.168 79.904L105.698 80.9202Z" fill="#F0997A"/>
<path d="M100.823 83.7737C100.552 82.7177 100.24 81.2161 100.175 80.5966C100.109 79.9765 100.422 79.6502 101.318 79.9117C102.215 80.1732 102.762 80.9295 102.716 81.5893C102.914 81.0123 102.88 80.2081 101.453 79.6148C99.9171 78.9767 99.7915 79.9112 99.978 80.7541C100.164 81.5959 100.823 83.7737 100.823 83.7737Z" fill="#F0997A"/>
<path d="M36.1213 48.7261C32.6614 47.0561 27.9009 47.3117 22.6431 49.8921C12.0654 55.0831 3.49121 67.7081 3.49121 78.0904C3.49121 83.2775 5.63267 86.9205 9.09386 88.6215C10.5347 89.3298 14.1946 91.1148 15.6381 91.8215C19.1018 93.5171 23.8821 93.2714 29.1643 90.6789C39.7421 85.4875 48.3162 72.863 48.3162 62.4801C48.3162 57.3039 46.1837 53.6653 42.7347 51.9594C41.2887 51.245 37.5859 49.4334 36.1213 48.7261Z" fill="#5554ED"/>
<path opacity="0.15" d="M4.19465 72.6953C3.73893 74.5266 3.49023 76.3404 3.49023 78.0905C3.49023 83.2776 5.63169 86.9206 9.09288 88.6216C10.5338 89.33 14.193 91.1149 15.6365 91.8216C19.1002 93.5172 23.8805 93.2715 29.1633 90.679C30.9426 89.8056 32.6636 88.7181 34.2981 87.4698L4.19465 72.6953Z" fill="black"/>
<path d="M20.6101 92.6304C14.2704 92.6304 10.3317 88.2813 10.3317 81.2798C10.3317 71.0004 18.8513 58.4566 29.3234 53.3174C32.2801 51.8659 35.1042 51.1304 37.7168 51.1304C44.0565 51.1304 47.9946 55.48 47.9946 62.4809C47.9946 67.4506 46.0204 73.0965 42.4362 78.3784L42.3586 78.4928L45.5858 85.3543C45.707 85.6114 45.6724 85.8899 45.4903 86.1176C45.3096 86.3448 45.0122 86.481 44.6962 86.481C44.6372 86.481 44.5763 86.4767 44.5148 86.4669L36.5271 85.2262L36.4079 85.3347C34.0607 87.4645 31.5693 89.183 29.0035 90.4422C26.0461 91.8948 23.2227 92.6304 20.6101 92.6304Z" fill="white"/>
<path d="M37.7168 51.4023C43.8591 51.4023 47.6741 55.6473 47.6741 62.4804C47.6741 67.4033 45.7154 73.0006 42.158 78.2422L42.0029 78.471L42.1183 78.7168L45.2878 85.4556C45.3987 85.691 45.2955 85.8757 45.2244 85.9656C45.1026 86.1182 44.9052 86.2092 44.6956 86.2092C44.6552 86.2092 44.6135 86.2059 44.5719 86.1994L36.756 84.9854L36.4118 84.932L36.1727 85.1489C33.8473 87.2591 31.3809 88.9613 28.842 90.2074C25.9346 91.6344 23.1644 92.358 20.6089 92.358C14.4666 92.358 10.6516 88.1129 10.6516 81.2798C10.6516 71.0876 19.0994 58.6495 29.483 53.5529C32.3911 52.1259 35.1613 51.4023 37.7168 51.4023ZM37.7168 50.8574C35.1421 50.8574 32.2379 51.5723 29.1632 53.081C18.586 58.2719 10.0112 70.8969 10.0112 81.2798C10.0112 88.6447 14.3262 92.9028 20.6095 92.9028C23.1843 92.9028 26.0885 92.188 29.1632 90.6792C31.8161 89.377 34.3434 87.6068 36.6413 85.5216L44.4572 86.7355C44.5379 86.748 44.618 86.754 44.6956 86.754C45.5756 86.754 46.2281 85.9874 45.8826 85.2535L42.7131 78.5146C46.1743 73.4147 48.3145 67.6681 48.3145 62.4804C48.3157 55.1161 44.0001 50.8574 37.7168 50.8574Z" fill="#5554ED"/>
<path d="M28.7538 84.8379C30.221 84.1176 31.1029 82.3206 31.1029 81.0227C31.1029 79.3576 29.8985 78.9517 28.7538 79.5129C27.2853 80.2338 26.4047 82.0302 26.4047 83.3281C26.4047 84.9915 27.6071 85.4002 28.7538 84.8379Z" fill="#5554ED"/>
<path d="M28.8812 60.3015C29.6888 59.9048 30.4772 59.6646 31.2425 59.5812C32.0091 59.4978 32.6885 59.5975 33.2814 59.8814C33.8762 60.1636 34.3524 60.6393 34.7146 61.3062C35.0754 61.9737 35.2568 62.8591 35.2568 63.963C35.2568 64.8625 35.1485 65.6995 34.9344 66.4677C34.7184 67.2387 34.4434 67.971 34.1082 68.6635C33.773 69.3582 33.407 70.0213 33.0109 70.6555C32.6148 71.2886 32.2411 71.8885 31.8879 72.4563C31.5354 73.0229 31.2258 73.5858 30.9592 74.1454C30.6925 74.7038 30.5336 75.2433 30.4817 75.7641C30.4464 76.0295 30.3688 76.2823 30.249 76.521C30.1291 76.7596 29.974 76.9263 29.7843 77.0184L27.8217 77.9823C27.6332 78.0738 27.4653 78.0673 27.3192 77.9578C27.173 77.8499 27.1089 77.6668 27.1249 77.4107C27.1589 76.5161 27.3012 75.6748 27.5518 74.8875C27.8012 74.1001 28.1024 73.3564 28.4549 72.6541C28.8068 71.9523 29.1863 71.2876 29.5907 70.661C29.9945 70.0355 30.3682 69.441 30.7137 68.8765C31.0572 68.3142 31.3418 67.7803 31.5649 67.2768C31.7886 66.7723 31.9001 66.2846 31.9001 65.8117C31.9001 64.9563 31.6251 64.3863 31.0745 64.1046C30.5233 63.824 29.792 63.9074 28.8805 64.3547C27.4179 65.0723 26.3417 66.5576 25.6539 68.8095C25.568 69.0994 25.4777 69.3293 25.3834 69.4999C25.2873 69.6715 25.1283 69.8104 24.9053 69.92L22.8145 70.9459C22.6594 71.0222 22.526 71.02 22.4145 70.9394C22.303 70.8593 22.2466 70.7073 22.2466 70.4817C22.2639 69.6851 22.4491 68.7883 22.8017 67.7939C23.1548 66.799 23.6285 65.8226 24.222 64.8674C24.8149 63.9123 25.5123 63.0236 26.3128 62.202C27.1128 61.3836 27.9691 60.7488 28.8812 60.3015Z" fill="#5554ED"/>
</svg>
