<svg width="51" height="51" viewBox="0 0 51 51" fill="none" xmlns="http://www.w3.org/2000/svg">
<path d="M19.2497 21.3333C21.5509 21.3333 23.4163 19.4679 23.4163 17.1667C23.4163 14.8655 21.5509 13 19.2497 13C16.9485 13 15.083 14.8655 15.083 17.1667C15.083 19.4679 16.9485 21.3333 19.2497 21.3333Z" stroke="#667085" stroke-width="1.5" stroke-linecap="round" stroke-linejoin="round"/>
<path d="M27.5837 4.66675H19.2503C8.83366 4.66675 4.66699 8.83341 4.66699 19.2501V31.7501C4.66699 42.1667 8.83366 46.3334 19.2503 46.3334H31.7503C42.167 46.3334 46.3337 42.1667 46.3337 31.7501V21.3334" stroke="#667085" stroke-width="1.5" stroke-linecap="round" stroke-linejoin="round"/>
<path d="M38 17.1667V4.66675L42.1667 8.83341" stroke="#667085" stroke-width="1.5" stroke-linecap="round" stroke-linejoin="round"/>
<path d="M37.9997 4.66675L33.833 8.83341" stroke="#667085" stroke-width="1.5" stroke-linecap="round" stroke-linejoin="round"/>
<path d="M6.0625 39.9792L16.3333 33.0834C17.9792 31.9792 20.3542 32.1042 21.8333 33.3751L22.5208 33.9792C24.1458 35.3751 26.7708 35.3751 28.3958 33.9792L37.0625 26.5417C38.6875 25.1459 41.3125 25.1459 42.9375 26.5417L46.3333 29.4584" stroke="#667085" stroke-width="1.5" stroke-linecap="round" stroke-linejoin="round"/>
</svg>
