<svg width="183" height="178" viewBox="0 0 183 178" fill="none" xmlns="http://www.w3.org/2000/svg">
<g opacity="0.1">
<path d="M91.4998 0.0517578C141.456 0.0517578 182.017 39.9095 182.017 89.0001C182.017 138.091 141.456 177.948 91.4998 177.948C41.5432 177.948 0.982422 138.091 0.982422 89.0001C0.982422 39.9095 41.5432 0.0517578 91.4998 0.0517578Z" fill="#FD8C00" fill-opacity="0.5"/>
</g>
<path d="M91.4997 40.106C118.96 40.106 141.256 62.0154 141.256 89.0001C141.256 115.985 118.96 137.894 91.4997 137.894C64.039 137.894 41.7432 115.985 41.7432 89.0001C41.7432 62.0154 64.039 40.106 91.4997 40.106Z" fill="#FD8C00"/>
<path d="M83.3699 106.702C84.3553 107.666 86.0305 107.666 87.016 106.702L115.988 78.3407C116.973 77.376 116.973 75.7361 115.988 74.7715L112.44 71.2987C111.455 70.334 109.878 70.334 108.893 71.2987L85.2422 94.4505L74.1067 83.6464C73.1213 82.6817 71.5446 82.6817 70.5591 83.6464L67.0115 87.1191C66.0261 88.0838 66.0261 89.7237 67.0115 90.6883L83.3699 106.702Z" fill="white"/>
</svg>
