<svg width="24" height="24" viewBox="0 0 24 24" fill="none" xmlns="http://www.w3.org/2000/svg">
<path d="M8.625 11.998C8.625 12.0975 8.58549 12.1929 8.51517 12.2632C8.44484 12.3335 8.34946 12.373 8.25 12.373C8.15054 12.373 8.05516 12.3335 7.98484 12.2632C7.91451 12.1929 7.875 12.0975 7.875 11.998C7.875 11.8986 7.91451 11.8032 7.98484 11.7329C8.05516 11.6626 8.15054 11.623 8.25 11.623C8.34946 11.623 8.44484 11.6626 8.51517 11.7329C8.58549 11.8032 8.625 11.8986 8.625 11.998ZM8.625 11.998H8.25M12.375 11.998C12.375 12.0975 12.3355 12.1929 12.2652 12.2632C12.1948 12.3335 12.0995 12.373 12 12.373C11.9005 12.373 11.8052 12.3335 11.7348 12.2632C11.6645 12.1929 11.625 12.0975 11.625 11.998C11.625 11.8986 11.6645 11.8032 11.7348 11.7329C11.8052 11.6626 11.9005 11.623 12 11.623C12.0995 11.623 12.1948 11.6626 12.2652 11.7329C12.3355 11.8032 12.375 11.8986 12.375 11.998ZM12.375 11.998H12M16.125 11.998C16.125 12.0975 16.0855 12.1929 16.0152 12.2632C15.9448 12.3335 15.8495 12.373 15.75 12.373C15.6505 12.373 15.5552 12.3335 15.4848 12.2632C15.4145 12.1929 15.375 12.0975 15.375 11.998C15.375 11.8986 15.4145 11.8032 15.4848 11.7329C15.5552 11.6626 15.6505 11.623 15.75 11.623C15.8495 11.623 15.9448 11.6626 16.0152 11.7329C16.0855 11.8032 16.125 11.8986 16.125 11.998ZM16.125 11.998H15.75M21 11.998C21 16.554 16.97 20.248 12 20.248C11.1372 20.2491 10.278 20.1358 9.445 19.911C8.27076 20.7369 6.83833 21.1121 5.41 20.968C5.25119 20.9527 5.09307 20.931 4.936 20.903C5.42887 20.3222 5.76547 19.6252 5.914 18.878C6.004 18.421 5.781 17.977 5.447 17.652C3.93 16.176 3 14.187 3 11.998C3 7.44205 7.03 3.74805 12 3.74805C16.97 3.74805 21 7.44205 21 11.998Z" stroke="#667085" stroke-width="1.5" stroke-linecap="round" stroke-linejoin="round"/>
</svg>
