<svg width="24" height="24" viewBox="0 0 24 24" fill="none" xmlns="http://www.w3.org/2000/svg">
<path d="M13.9933 3.19968L13.9936 3.19986L19.7535 7.2298C19.7535 7.22982 19.7536 7.22984 19.7536 7.22986C20.2228 7.55833 20.6671 8.0969 20.9945 8.72408C21.3219 9.35129 21.5102 10.0244 21.5102 10.6002V17.3802C21.5102 19.654 19.6641 21.5002 17.3902 21.5002H6.61023C4.33778 21.5002 2.49023 19.6454 2.49023 17.3702V10.4702C2.49023 9.93574 2.66062 9.29667 2.95881 8.69105C3.25686 8.0857 3.6613 7.55706 4.08775 7.22443L4.08786 7.22435L9.09648 3.31542C9.0967 3.31525 9.09692 3.31508 9.09714 3.31491C10.434 2.27962 12.603 2.22559 13.9933 3.19968ZM12.0002 19.2502C12.6864 19.2502 13.2502 18.6863 13.2502 18.0002V15.0002C13.2502 14.314 12.6864 13.7502 12.0002 13.7502C11.3141 13.7502 10.7502 14.314 10.7502 15.0002V18.0002C10.7502 18.6863 11.3141 19.2502 12.0002 19.2502Z" fill="#FD8C00" stroke="#FD8C00"/>
</svg>
