<svg width="24" height="24" viewBox="0 0 24 24" fill="none" xmlns="http://www.w3.org/2000/svg">
<path d="M14.8575 17.084C16.7207 16.8634 18.5513 16.4236 20.3115 15.774C18.8209 14.1228 17.9972 11.9765 18.0005 9.75195V9.00195C18.0005 7.41065 17.3683 5.88453 16.2431 4.75931C15.1179 3.63409 13.5918 3.00195 12.0005 3.00195C10.4092 3.00195 8.88305 3.63409 7.75784 4.75931C6.63262 5.88453 6.00048 7.41065 6.00048 9.00195V9.75195C6.00349 11.9766 5.17946 14.1229 3.68848 15.774C5.42148 16.414 7.24848 16.859 9.14348 17.084M14.8575 17.084C12.9595 17.3091 11.0415 17.3091 9.14348 17.084M14.8575 17.084C15.0016 17.5338 15.0374 18.0113 14.9621 18.4777C14.8867 18.944 14.7023 19.3859 14.4239 19.7675C14.1454 20.1491 13.7808 20.4595 13.3597 20.6736C12.9386 20.8876 12.4729 20.9991 12.0005 20.9991C11.5281 20.9991 11.0624 20.8876 10.6413 20.6736C10.2202 20.4595 9.85555 20.1491 9.5771 19.7675C9.29865 19.3859 9.11424 18.944 9.03889 18.4777C8.96354 18.0113 8.99937 17.5338 9.14348 17.084" stroke="#667085" stroke-width="1.5" stroke-linecap="round" stroke-linejoin="round"/>
</svg>
