<svg width="24" height="25" viewBox="0 0 24 25" fill="none" xmlns="http://www.w3.org/2000/svg">
<path d="M18 7.66C17.94 7.65 17.87 7.65 17.81 7.66C16.43 7.61 15.33 6.48 15.33 5.08C15.33 3.65 16.48 2.5 17.91 2.5C19.34 2.5 20.49 3.66 20.49 5.08C20.48 6.48 19.38 7.61 18 7.66Z" stroke="#667085" stroke-width="1.5" stroke-linecap="round" stroke-linejoin="round"/>
<path d="M16.97 14.9402C18.34 15.1702 19.85 14.9302 20.91 14.2202C22.32 13.2802 22.32 11.7402 20.91 10.8002C19.84 10.0902 18.31 9.85016 16.94 10.0902" stroke="#667085" stroke-width="1.5" stroke-linecap="round" stroke-linejoin="round"/>
<path d="M5.97 7.66C6.03 7.65 6.1 7.65 6.16 7.66C7.54 7.61 8.64 6.48 8.64 5.08C8.64 3.65 7.49 2.5 6.06 2.5C4.63 2.5 3.48 3.66 3.48 5.08C3.49 6.48 4.59 7.61 5.97 7.66Z" stroke="#667085" stroke-width="1.5" stroke-linecap="round" stroke-linejoin="round"/>
<path d="M7 14.9402C5.63 15.1702 4.12 14.9302 3.06 14.2202C1.65 13.2802 1.65 11.7402 3.06 10.8002C4.13 10.0902 5.66 9.85016 7.03 10.0902" stroke="#667085" stroke-width="1.5" stroke-linecap="round" stroke-linejoin="round"/>
<path d="M12 15.1297C11.94 15.1197 11.87 15.1197 11.81 15.1297C10.43 15.0797 9.33 13.9497 9.33 12.5497C9.33 11.1197 10.48 9.96973 11.91 9.96973C13.34 9.96973 14.49 11.1297 14.49 12.5497C14.48 13.9497 13.38 15.0897 12 15.1297Z" stroke="#667085" stroke-width="1.5" stroke-linecap="round" stroke-linejoin="round"/>
<path d="M9.09 18.2794C7.68 19.2194 7.68 20.7594 9.09 21.6994C10.69 22.7694 13.31 22.7694 14.91 21.6994C16.32 20.7594 16.32 19.2194 14.91 18.2794C13.32 17.2194 10.69 17.2194 9.09 18.2794Z" stroke="#667085" stroke-width="1.5" stroke-linecap="round" stroke-linejoin="round"/>
</svg>
