<svg width="24" height="24" viewBox="0 0 24 24" fill="none" xmlns="http://www.w3.org/2000/svg">
<path d="M15.75 6.00195C15.75 6.99651 15.3549 7.95034 14.6516 8.6536C13.9484 9.35686 12.9946 9.75195 12 9.75195C11.0054 9.75195 10.0516 9.35686 9.34835 8.6536C8.64509 7.95034 8.25 6.99651 8.25 6.00195C8.25 5.00739 8.64509 4.05356 9.34835 3.3503C10.0516 2.64704 11.0054 2.25195 12 2.25195C12.9946 2.25195 13.9484 2.64704 14.6516 3.3503C15.3549 4.05356 15.75 5.00739 15.75 6.00195ZM4.501 20.12C4.53313 18.1523 5.33734 16.2761 6.74018 14.896C8.14302 13.5159 10.0321 12.7424 12 12.7424C13.9679 12.7424 15.857 13.5159 17.2598 14.896C18.6627 16.2761 19.4669 18.1523 19.499 20.12C17.1464 21.1987 14.5881 21.7555 12 21.752C9.324 21.752 6.784 21.168 4.501 20.12Z" stroke="#667085" stroke-width="1.5" stroke-linecap="round" stroke-linejoin="round"/>
</svg>
