<svg width="141" height="137" viewBox="0 0 141 137" fill="none" xmlns="http://www.w3.org/2000/svg">
<path d="M0.907715 0.680664H6.47509V6.1062H0.907715V0.680664ZM6.47509 0.680664H12.0425V6.1062H6.47509V0.680664ZM12.0425 0.680664H17.6098V6.1062H12.0425V0.680664ZM17.6098 0.680664H23.1772V6.1062H17.6098V0.680664ZM23.1772 0.680664H28.7446V6.1062H23.1772V0.680664ZM28.7446 0.680664H34.312V6.1062H28.7446V0.680664ZM34.312 0.680664H39.8793V6.1062H34.312V0.680664ZM62.1488 0.680664H67.7162V6.1062H62.1488V0.680664ZM78.851 0.680664H84.4184V6.1062H78.851V0.680664ZM84.4184 0.680664H89.9857V6.1062H84.4184V0.680664ZM89.9857 0.680664H95.5531V6.1062H89.9857V0.680664ZM101.12 0.680664H106.688V6.1062H101.12V0.680664ZM106.688 0.680664H112.255V6.1062H106.688V0.680664ZM112.255 0.680664H117.823V6.1062H112.255V0.680664ZM117.823 0.680664H123.39V6.1062H117.823V0.680664ZM123.39 0.680664H128.957V6.1062H123.39V0.680664ZM128.957 0.680664H134.525V6.1062H128.957V0.680664ZM134.525 0.680664H140.092V6.1062H134.525V0.680664ZM0.907715 6.1062H6.47509V11.5317H0.907715V6.1062ZM34.312 6.1062H39.8793V11.5317H34.312V6.1062ZM51.0141 6.1062H56.5815V11.5317H51.0141V6.1062ZM73.2836 6.1062H78.851V11.5317H73.2836V6.1062ZM78.851 6.1062H84.4184V11.5317H78.851V6.1062ZM89.9857 6.1062H95.5531V11.5317H89.9857V6.1062ZM101.12 6.1062H106.688V11.5317H101.12V6.1062ZM134.525 6.1062H140.092V11.5317H134.525V6.1062ZM0.907715 11.5317H6.47509V16.9573H0.907715V11.5317ZM12.0425 11.5317H17.6098V16.9573H12.0425V11.5317ZM17.6098 11.5317H23.1772V16.9573H17.6098V11.5317ZM23.1772 11.5317H28.7446V16.9573H23.1772V11.5317ZM34.312 11.5317H39.8793V16.9573H34.312V11.5317ZM51.0141 11.5317H56.5815V16.9573H51.0141V11.5317ZM56.5815 11.5317H62.1488V16.9573H56.5815V11.5317ZM67.7162 11.5317H73.2836V16.9573H67.7162V11.5317ZM78.851 11.5317H84.4184V16.9573H78.851V11.5317ZM84.4184 11.5317H89.9857V16.9573H84.4184V11.5317ZM101.12 11.5317H106.688V16.9573H101.12V11.5317ZM112.255 11.5317H117.823V16.9573H112.255V11.5317ZM117.823 11.5317H123.39V16.9573H117.823V11.5317ZM123.39 11.5317H128.957V16.9573H123.39V11.5317ZM134.525 11.5317H140.092V16.9573H134.525V11.5317ZM0.907715 16.9573H6.47509V22.3828H0.907715V16.9573ZM12.0425 16.9573H17.6098V22.3828H12.0425V16.9573ZM17.6098 16.9573H23.1772V22.3828H17.6098V16.9573ZM23.1772 16.9573H28.7446V22.3828H23.1772V16.9573ZM34.312 16.9573H39.8793V22.3828H34.312V16.9573ZM45.4467 16.9573H51.0141V22.3828H45.4467V16.9573ZM51.0141 16.9573H56.5815V22.3828H51.0141V16.9573ZM67.7162 16.9573H73.2836V22.3828H67.7162V16.9573ZM78.851 16.9573H84.4184V22.3828H78.851V16.9573ZM84.4184 16.9573H89.9857V22.3828H84.4184V16.9573ZM101.12 16.9573H106.688V22.3828H101.12V16.9573ZM112.255 16.9573H117.823V22.3828H112.255V16.9573ZM117.823 16.9573H123.39V22.3828H117.823V16.9573ZM123.39 16.9573H128.957V22.3828H123.39V16.9573ZM134.525 16.9573H140.092V22.3828H134.525V16.9573ZM0.907715 22.3828H6.47509V27.8083H0.907715V22.3828ZM12.0425 22.3828H17.6098V27.8083H12.0425V22.3828ZM17.6098 22.3828H23.1772V27.8083H17.6098V22.3828ZM23.1772 22.3828H28.7446V27.8083H23.1772V22.3828ZM34.312 22.3828H39.8793V27.8083H34.312V22.3828ZM56.5815 22.3828H62.1488V27.8083H56.5815V22.3828ZM62.1488 22.3828H67.7162V27.8083H62.1488V22.3828ZM67.7162 22.3828H73.2836V27.8083H67.7162V22.3828ZM73.2836 22.3828H78.851V27.8083H73.2836V22.3828ZM78.851 22.3828H84.4184V27.8083H78.851V22.3828ZM101.12 22.3828H106.688V27.8083H101.12V22.3828ZM112.255 22.3828H117.823V27.8083H112.255V22.3828ZM117.823 22.3828H123.39V27.8083H117.823V22.3828ZM123.39 22.3828H128.957V27.8083H123.39V22.3828ZM134.525 22.3828H140.092V27.8083H134.525V22.3828ZM0.907715 27.8083H6.47509V33.2339H0.907715V27.8083ZM34.312 27.8083H39.8793V33.2339H34.312V27.8083ZM45.4467 27.8083H51.0141V33.2339H45.4467V27.8083ZM62.1488 27.8083H67.7162V33.2339H62.1488V27.8083ZM89.9857 27.8083H95.5531V33.2339H89.9857V27.8083ZM101.12 27.8083H106.688V33.2339H101.12V27.8083ZM134.525 27.8083H140.092V33.2339H134.525V27.8083ZM0.907715 33.2339H6.47509V38.6594H0.907715V33.2339ZM6.47509 33.2339H12.0425V38.6594H6.47509V33.2339ZM12.0425 33.2339H17.6098V38.6594H12.0425V33.2339ZM17.6098 33.2339H23.1772V38.6594H17.6098V33.2339ZM23.1772 33.2339H28.7446V38.6594H23.1772V33.2339ZM28.7446 33.2339H34.312V38.6594H28.7446V33.2339ZM34.312 33.2339H39.8793V38.6594H34.312V33.2339ZM45.4467 33.2339H51.0141V38.6594H45.4467V33.2339ZM56.5815 33.2339H62.1488V38.6594H56.5815V33.2339ZM67.7162 33.2339H73.2836V38.6594H67.7162V33.2339ZM78.851 33.2339H84.4184V38.6594H78.851V33.2339ZM89.9857 33.2339H95.5531V38.6594H89.9857V33.2339ZM101.12 33.2339H106.688V38.6594H101.12V33.2339ZM106.688 33.2339H112.255V38.6594H106.688V33.2339ZM112.255 33.2339H117.823V38.6594H112.255V33.2339ZM117.823 33.2339H123.39V38.6594H117.823V33.2339ZM123.39 33.2339H128.957V38.6594H123.39V33.2339ZM128.957 33.2339H134.525V38.6594H128.957V33.2339ZM134.525 33.2339H140.092V38.6594H134.525V33.2339ZM45.4467 38.6594H51.0141V44.0849H45.4467V38.6594ZM51.0141 38.6594H56.5815V44.0849H51.0141V38.6594ZM56.5815 38.6594H62.1488V44.0849H56.5815V38.6594ZM78.851 38.6594H84.4184V44.0849H78.851V38.6594ZM84.4184 38.6594H89.9857V44.0849H84.4184V38.6594ZM89.9857 38.6594H95.5531V44.0849H89.9857V38.6594ZM6.47509 44.0849H12.0425V49.5105H6.47509V44.0849ZM12.0425 44.0849H17.6098V49.5105H12.0425V44.0849ZM34.312 44.0849H39.8793V49.5105H34.312V44.0849ZM73.2836 44.0849H78.851V49.5105H73.2836V44.0849ZM78.851 44.0849H84.4184V49.5105H78.851V44.0849ZM89.9857 44.0849H95.5531V49.5105H89.9857V44.0849ZM101.12 44.0849H106.688V49.5105H101.12V44.0849ZM106.688 44.0849H112.255V49.5105H106.688V44.0849ZM117.823 44.0849H123.39V49.5105H117.823V44.0849ZM6.47509 49.5105H12.0425V54.936H6.47509V49.5105ZM12.0425 49.5105H17.6098V54.936H12.0425V49.5105ZM23.1772 49.5105H28.7446V54.936H23.1772V49.5105ZM39.8793 49.5105H45.4467V54.936H39.8793V49.5105ZM56.5815 49.5105H62.1488V54.936H56.5815V49.5105ZM62.1488 49.5105H67.7162V54.936H62.1488V49.5105ZM67.7162 49.5105H73.2836V54.936H67.7162V49.5105ZM73.2836 49.5105H78.851V54.936H73.2836V49.5105ZM78.851 49.5105H84.4184V54.936H78.851V49.5105ZM84.4184 49.5105H89.9857V54.936H84.4184V49.5105ZM89.9857 49.5105H95.5531V54.936H89.9857V49.5105ZM101.12 49.5105H106.688V54.936H101.12V49.5105ZM106.688 49.5105H112.255V54.936H106.688V49.5105ZM117.823 49.5105H123.39V54.936H117.823V49.5105ZM128.957 49.5105H134.525V54.936H128.957V49.5105ZM134.525 49.5105H140.092V54.936H134.525V49.5105ZM34.312 54.936H39.8793V60.3615H34.312V54.936ZM62.1488 54.936H67.7162V60.3615H62.1488V54.936ZM84.4184 54.936H89.9857V60.3615H84.4184V54.936ZM95.5531 54.936H101.12V60.3615H95.5531V54.936ZM106.688 54.936H112.255V60.3615H106.688V54.936ZM117.823 54.936H123.39V60.3615H117.823V54.936ZM123.39 54.936H128.957V60.3615H123.39V54.936ZM134.525 54.936H140.092V60.3615H134.525V54.936ZM0.907715 60.3615H6.47509V65.787H0.907715V60.3615ZM6.47509 60.3615H12.0425V65.787H6.47509V60.3615ZM23.1772 60.3615H28.7446V65.787H23.1772V60.3615ZM39.8793 60.3615H45.4467V65.787H39.8793V60.3615ZM51.0141 60.3615H56.5815V65.787H51.0141V60.3615ZM56.5815 60.3615H62.1488V65.787H56.5815V60.3615ZM73.2836 60.3615H78.851V65.787H73.2836V60.3615ZM84.4184 60.3615H89.9857V65.787H84.4184V60.3615ZM95.5531 60.3615H101.12V65.787H95.5531V60.3615ZM106.688 60.3615H112.255V65.787H106.688V60.3615ZM117.823 60.3615H123.39V65.787H117.823V60.3615ZM0.907715 65.787H6.47509V71.2126H0.907715V65.787ZM6.47509 65.787H12.0425V71.2126H6.47509V65.787ZM17.6098 65.787H23.1772V71.2126H17.6098V65.787ZM34.312 65.787H39.8793V71.2126H34.312V65.787ZM39.8793 65.787H45.4467V71.2126H39.8793V65.787ZM45.4467 65.787H51.0141V71.2126H45.4467V65.787ZM51.0141 65.787H56.5815V71.2126H51.0141V65.787ZM56.5815 65.787H62.1488V71.2126H56.5815V65.787ZM73.2836 65.787H78.851V71.2126H73.2836V65.787ZM84.4184 65.787H89.9857V71.2126H84.4184V65.787ZM89.9857 65.787H95.5531V71.2126H89.9857V65.787ZM101.12 65.787H106.688V71.2126H101.12V65.787ZM106.688 65.787H112.255V71.2126H106.688V65.787ZM134.525 65.787H140.092V71.2126H134.525V65.787ZM12.0425 71.2126H17.6098V76.6381H12.0425V71.2126ZM17.6098 71.2126H23.1772V76.6381H17.6098V71.2126ZM23.1772 71.2126H28.7446V76.6381H23.1772V71.2126ZM56.5815 71.2126H62.1488V76.6381H56.5815V71.2126ZM62.1488 71.2126H67.7162V76.6381H62.1488V71.2126ZM67.7162 71.2126H73.2836V76.6381H67.7162V71.2126ZM84.4184 71.2126H89.9857V76.6381H84.4184V71.2126ZM89.9857 71.2126H95.5531V76.6381H89.9857V71.2126ZM101.12 71.2126H106.688V76.6381H101.12V71.2126ZM106.688 71.2126H112.255V76.6381H106.688V71.2126ZM128.957 71.2126H134.525V76.6381H128.957V71.2126ZM134.525 71.2126H140.092V76.6381H134.525V71.2126ZM0.907715 76.6381H6.47509V82.0636H0.907715V76.6381ZM6.47509 76.6381H12.0425V82.0636H6.47509V76.6381ZM17.6098 76.6381H23.1772V82.0636H17.6098V76.6381ZM28.7446 76.6381H34.312V82.0636H28.7446V76.6381ZM34.312 76.6381H39.8793V82.0636H34.312V76.6381ZM45.4467 76.6381H51.0141V82.0636H45.4467V76.6381ZM51.0141 76.6381H56.5815V82.0636H51.0141V76.6381ZM56.5815 76.6381H62.1488V82.0636H56.5815V76.6381ZM67.7162 76.6381H73.2836V82.0636H67.7162V76.6381ZM84.4184 76.6381H89.9857V82.0636H84.4184V76.6381ZM89.9857 76.6381H95.5531V82.0636H89.9857V76.6381ZM101.12 76.6381H106.688V82.0636H101.12V76.6381ZM117.823 76.6381H123.39V82.0636H117.823V76.6381ZM123.39 76.6381H128.957V82.0636H123.39V76.6381ZM134.525 76.6381H140.092V82.0636H134.525V76.6381ZM12.0425 82.0636H17.6098V87.4892H12.0425V82.0636ZM17.6098 82.0636H23.1772V87.4892H17.6098V82.0636ZM23.1772 82.0636H28.7446V87.4892H23.1772V82.0636ZM39.8793 82.0636H45.4467V87.4892H39.8793V82.0636ZM56.5815 82.0636H62.1488V87.4892H56.5815V82.0636ZM78.851 82.0636H84.4184V87.4892H78.851V82.0636ZM84.4184 82.0636H89.9857V87.4892H84.4184V82.0636ZM89.9857 82.0636H95.5531V87.4892H89.9857V82.0636ZM95.5531 82.0636H101.12V87.4892H95.5531V82.0636ZM101.12 82.0636H106.688V87.4892H101.12V82.0636ZM106.688 82.0636H112.255V87.4892H106.688V82.0636ZM112.255 82.0636H117.823V87.4892H112.255V82.0636ZM117.823 82.0636H123.39V87.4892H117.823V82.0636ZM0.907715 87.4892H6.47509V92.9147H0.907715V87.4892ZM6.47509 87.4892H12.0425V92.9147H6.47509V87.4892ZM12.0425 87.4892H17.6098V92.9147H12.0425V87.4892ZM23.1772 87.4892H28.7446V92.9147H23.1772V87.4892ZM34.312 87.4892H39.8793V92.9147H34.312V87.4892ZM45.4467 87.4892H51.0141V92.9147H45.4467V87.4892ZM62.1488 87.4892H67.7162V92.9147H62.1488V87.4892ZM89.9857 87.4892H95.5531V92.9147H89.9857V87.4892ZM95.5531 87.4892H101.12V92.9147H95.5531V87.4892ZM101.12 87.4892H106.688V92.9147H101.12V87.4892ZM106.688 87.4892H112.255V92.9147H106.688V87.4892ZM112.255 87.4892H117.823V92.9147H112.255V87.4892ZM128.957 87.4892H134.525V92.9147H128.957V87.4892ZM45.4467 92.9147H51.0141V98.3402H45.4467V92.9147ZM51.0141 92.9147H56.5815V98.3402H51.0141V92.9147ZM56.5815 92.9147H62.1488V98.3402H56.5815V92.9147ZM62.1488 92.9147H67.7162V98.3402H62.1488V92.9147ZM73.2836 92.9147H78.851V98.3402H73.2836V92.9147ZM78.851 92.9147H84.4184V98.3402H78.851V92.9147ZM89.9857 92.9147H95.5531V98.3402H89.9857V92.9147ZM112.255 92.9147H117.823V98.3402H112.255V92.9147ZM134.525 92.9147H140.092V98.3402H134.525V92.9147ZM0.907715 98.3402H6.47509V103.766H0.907715V98.3402ZM6.47509 98.3402H12.0425V103.766H6.47509V98.3402ZM12.0425 98.3402H17.6098V103.766H12.0425V98.3402ZM17.6098 98.3402H23.1772V103.766H17.6098V98.3402ZM23.1772 98.3402H28.7446V103.766H23.1772V98.3402ZM28.7446 98.3402H34.312V103.766H28.7446V98.3402ZM34.312 98.3402H39.8793V103.766H34.312V98.3402ZM56.5815 98.3402H62.1488V103.766H56.5815V98.3402ZM62.1488 98.3402H67.7162V103.766H62.1488V98.3402ZM78.851 98.3402H84.4184V103.766H78.851V98.3402ZM89.9857 98.3402H95.5531V103.766H89.9857V98.3402ZM101.12 98.3402H106.688V103.766H101.12V98.3402ZM112.255 98.3402H117.823V103.766H112.255V98.3402ZM134.525 98.3402H140.092V103.766H134.525V98.3402ZM0.907715 103.766H6.47509V109.191H0.907715V103.766ZM34.312 103.766H39.8793V109.191H34.312V103.766ZM51.0141 103.766H56.5815V109.191H51.0141V103.766ZM56.5815 103.766H62.1488V109.191H56.5815V103.766ZM67.7162 103.766H73.2836V109.191H67.7162V103.766ZM73.2836 103.766H78.851V109.191H73.2836V103.766ZM89.9857 103.766H95.5531V109.191H89.9857V103.766ZM112.255 103.766H117.823V109.191H112.255V103.766ZM128.957 103.766H134.525V109.191H128.957V103.766ZM0.907715 109.191H6.47509V114.617H0.907715V109.191ZM12.0425 109.191H17.6098V114.617H12.0425V109.191ZM17.6098 109.191H23.1772V114.617H17.6098V109.191ZM23.1772 109.191H28.7446V114.617H23.1772V109.191ZM34.312 109.191H39.8793V114.617H34.312V109.191ZM51.0141 109.191H56.5815V114.617H51.0141V109.191ZM56.5815 109.191H62.1488V114.617H56.5815V109.191ZM78.851 109.191H84.4184V114.617H78.851V109.191ZM84.4184 109.191H89.9857V114.617H84.4184V109.191ZM89.9857 109.191H95.5531V114.617H89.9857V109.191ZM95.5531 109.191H101.12V114.617H95.5531V109.191ZM101.12 109.191H106.688V114.617H101.12V109.191ZM106.688 109.191H112.255V114.617H106.688V109.191ZM112.255 109.191H117.823V114.617H112.255V109.191ZM128.957 109.191H134.525V114.617H128.957V109.191ZM134.525 109.191H140.092V114.617H134.525V109.191ZM0.907715 114.617H6.47509V120.042H0.907715V114.617ZM12.0425 114.617H17.6098V120.042H12.0425V114.617ZM17.6098 114.617H23.1772V120.042H17.6098V114.617ZM23.1772 114.617H28.7446V120.042H23.1772V114.617ZM34.312 114.617H39.8793V120.042H34.312V114.617ZM51.0141 114.617H56.5815V120.042H51.0141V114.617ZM56.5815 114.617H62.1488V120.042H56.5815V114.617ZM62.1488 114.617H67.7162V120.042H62.1488V114.617ZM67.7162 114.617H73.2836V120.042H67.7162V114.617ZM84.4184 114.617H89.9857V120.042H84.4184V114.617ZM95.5531 114.617H101.12V120.042H95.5531V114.617ZM112.255 114.617H117.823V120.042H112.255V114.617ZM123.39 114.617H128.957V120.042H123.39V114.617ZM128.957 114.617H134.525V120.042H128.957V114.617ZM0.907715 120.042H6.47509V125.468H0.907715V120.042ZM12.0425 120.042H17.6098V125.468H12.0425V120.042ZM17.6098 120.042H23.1772V125.468H17.6098V120.042ZM23.1772 120.042H28.7446V125.468H23.1772V120.042ZM34.312 120.042H39.8793V125.468H34.312V120.042ZM45.4467 120.042H51.0141V125.468H45.4467V120.042ZM73.2836 120.042H78.851V125.468H73.2836V120.042ZM78.851 120.042H84.4184V125.468H78.851V120.042ZM84.4184 120.042H89.9857V125.468H84.4184V120.042ZM89.9857 120.042H95.5531V125.468H89.9857V120.042ZM95.5531 120.042H101.12V125.468H95.5531V120.042ZM106.688 120.042H112.255V125.468H106.688V120.042ZM112.255 120.042H117.823V125.468H112.255V120.042ZM117.823 120.042H123.39V125.468H117.823V120.042ZM128.957 120.042H134.525V125.468H128.957V120.042ZM134.525 120.042H140.092V125.468H134.525V120.042ZM0.907715 125.468H6.47509V130.893H0.907715V125.468ZM34.312 125.468H39.8793V130.893H34.312V125.468ZM45.4467 125.468H51.0141V130.893H45.4467V125.468ZM51.0141 125.468H56.5815V130.893H51.0141V125.468ZM56.5815 125.468H62.1488V130.893H56.5815V125.468ZM73.2836 125.468H78.851V130.893H73.2836V125.468ZM89.9857 125.468H95.5531V130.893H89.9857V125.468ZM95.5531 125.468H101.12V130.893H95.5531V125.468ZM101.12 125.468H106.688V130.893H101.12V125.468ZM106.688 125.468H112.255V130.893H106.688V125.468ZM112.255 125.468H117.823V130.893H112.255V125.468ZM0.907715 130.893H6.47509V136.319H0.907715V130.893ZM6.47509 130.893H12.0425V136.319H6.47509V130.893ZM12.0425 130.893H17.6098V136.319H12.0425V130.893ZM17.6098 130.893H23.1772V136.319H17.6098V130.893ZM23.1772 130.893H28.7446V136.319H23.1772V130.893ZM28.7446 130.893H34.312V136.319H28.7446V130.893ZM34.312 130.893H39.8793V136.319H34.312V130.893ZM56.5815 130.893H62.1488V136.319H56.5815V130.893ZM67.7162 130.893H73.2836V136.319H67.7162V130.893ZM89.9857 130.893H95.5531V136.319H89.9857V130.893ZM101.12 130.893H106.688V136.319H101.12V130.893ZM117.823 130.893H123.39V136.319H117.823V130.893ZM134.525 130.893H140.092V136.319H134.525V130.893Z" fill="black"/>
</svg>
