<svg width="209" height="178" viewBox="0 0 209 178" fill="none" xmlns="http://www.w3.org/2000/svg">
<path d="M144.487 116.772L63.5132 116.849V173.757L144.487 173.68V116.772Z" fill="white"/>
<path d="M144.487 116.772L63.5132 116.849V173.757L144.487 173.68V116.772Z" stroke="#5554ED" stroke-width="8" stroke-linejoin="round"/>
<path d="M109.715 117.359V173.324H98.2852V117.359H109.715Z" fill="white"/>
<path d="M109.715 117.359V173.324H98.2852V117.359H109.715Z" stroke="#5554ED" stroke-width="8" stroke-linejoin="round"/>
<path d="M112.255 101.676L112.255 120.741L95.7451 120.742L95.7449 101.677L112.255 101.676ZM149.249 101.704L58.7505 101.782L58.7506 121.021L149.25 120.944L149.249 101.704Z" fill="white"/>
<path d="M112.255 101.676L112.255 120.741L95.7451 120.742L95.745 101.677L112.255 101.676ZM149.249 101.704L58.7505 101.782L58.7506 121.021L149.25 120.944L149.249 101.704Z" stroke="#5554ED" stroke-width="8" stroke-linejoin="round"/>
<path d="M112.255 101.677L112.255 120.742L95.7448 120.742L95.7446 101.677L112.255 101.677Z" fill="white"/>
<path d="M112.255 101.677L112.255 120.742L95.7448 120.742L95.7446 101.677L112.255 101.677Z" stroke="#5554ED" stroke-width="8" stroke-linejoin="round"/>
<path d="M83.7589 74.1064C74.8689 74.1064 74.0752 80.7177 74.0753 85.4071C74.0753 90.0964 78.5204 99.0908 103.841 99.0906C103.841 87.175 92.6489 74.1063 83.7589 74.1064Z" stroke="#5554ED" stroke-width="8"/>
<path d="M88.8394 86.4834C88.8394 89.4815 97.6501 98.8602 103.444 98.8602" stroke="#5554ED" stroke-width="8" stroke-linecap="round" stroke-linejoin="round"/>
<path d="M124.24 74.1065C133.13 74.1065 133.924 80.7177 133.924 85.4071C133.924 90.0964 129.479 99.0909 104.158 99.091C104.158 87.1754 115.35 74.1066 124.24 74.1065Z" stroke="#5554ED" stroke-width="8"/>
<path d="M119.16 86.4834C119.16 89.4815 110.35 98.8603 104.555 98.8604" stroke="#5554ED" stroke-width="8" stroke-linecap="round" stroke-linejoin="round"/>
<g opacity="0.280508">
<path d="M24.415 76.5404L19.1208 72.3177L19.7533 65.5779L13.9219 69.2899L7.59068 66.7436L9.28061 73.2604L4.73538 78.4259L11.6117 78.742L15.1331 84.4809L17.6931 78.1589L24.415 76.5404Z" fill="white"/>
<path d="M24.415 76.5404L19.1208 72.3177L19.7533 65.5779L13.9219 69.2899L7.59068 66.7436L9.28061 73.2604L4.73538 78.4259L11.6117 78.742L15.1331 84.4809L17.6931 78.1589L24.415 76.5404Z" stroke="#5554ED" stroke-width="4.16"/>
</g>
<g opacity="0.394032">
<path d="M199.362 17.1866L193.527 13.6553L193.248 6.92266L187.947 11.2926L181.307 9.54221L183.865 15.7743L180.04 21.4245L186.922 20.9066L191.198 26.1493L192.893 19.5965L199.362 17.1866Z" fill="white"/>
<path d="M199.362 17.1866L193.527 13.6553L193.248 6.92266L187.947 11.2926L181.307 9.54221L183.865 15.7743L180.04 21.4245L186.922 20.9066L191.198 26.1493L192.893 19.5965L199.362 17.1866Z" stroke="#5554ED" stroke-width="4.15674"/>
</g>
<g opacity="0.115284">
<path d="M73.1627 50.4962L66.6651 52.4016L61.3495 48.2943L61.2254 54.8719L55.5603 58.4913L61.981 60.6513L63.7949 66.9951L67.888 61.7523L74.6739 62.0542L70.7824 56.6536L73.1627 50.4962Z" fill="#5554ED"/>
</g>
<g opacity="0.0254504">
<path d="M136.633 19.1255L127.167 21.5973L119.667 15.4364L119.204 24.9303L110.867 29.9133L120.046 33.3095L122.393 42.5494L128.53 35.1541L138.317 35.8826L132.93 27.9153L136.633 19.1255Z" fill="#5554ED"/>
</g>
<g opacity="0.407492">
<path d="M181.82 65.3419L182.704 73.878L175.979 79.3257L184.595 81.2615L187.94 89.2347L192.381 81.8953L201.172 81.3756L195.301 74.9028L197.39 66.609L189.32 69.9485L181.82 65.3419Z" fill="#5554ED"/>
</g>
<mask id="mask0_2032_24982" style="mask-type:luminance" maskUnits="userSpaceOnUse" x="10" y="86" width="64" height="62">
<path d="M10.3374 86.0625H73.8374V147.562H10.3374V86.0625Z" fill="white"/>
</mask>
<g mask="url(#mask0_2032_24982)">
<mask id="mask1_2032_24982" style="mask-type:luminance" maskUnits="userSpaceOnUse" x="10" y="86" width="64" height="62">
<path d="M10.3374 86.0625H73.8374V147.562H10.3374V86.0625Z" fill="white"/>
</mask>
<g mask="url(#mask1_2032_24982)">
<path d="M42.3475 97.5918H41.8271V98.1428H42.3475V97.5918Z" fill="#5554ED"/>
</g>
<mask id="mask2_2032_24982" style="mask-type:luminance" maskUnits="userSpaceOnUse" x="-2" y="74" width="88" height="85">
<path d="M53.3418 74.8066L85.4588 128.419L30.8332 158.817L-1.28383 105.205L53.3418 74.8066Z" fill="white"/>
</mask>
<g mask="url(#mask2_2032_24982)">
<path d="M59.4055 107.423L59.1421 106.983L58.6525 107.256L58.9159 107.695L59.4055 107.423Z" fill="#5554ED"/>
</g>
<mask id="mask3_2032_24982" style="mask-type:luminance" maskUnits="userSpaceOnUse" x="-2" y="74" width="88" height="85">
<path d="M85.459 105.205L53.342 158.817L-1.28364 128.419L30.8334 74.8069L85.459 105.205Z" fill="white"/>
</mask>
<g mask="url(#mask3_2032_24982)">
<path d="M59.1419 126.641L59.4053 126.201L58.9157 125.929L58.6523 126.368L59.1419 126.641Z" fill="#5554ED"/>
</g>
<mask id="mask4_2032_24982" style="mask-type:luminance" maskUnits="userSpaceOnUse" x="10" y="86" width="64" height="62">
<path d="M73.8374 147.562H10.3374V86.0625H73.8374V147.562Z" fill="white"/>
</mask>
<g mask="url(#mask4_2032_24982)">
<path d="M41.8273 136.033H42.3477V135.482H41.8273V136.033Z" fill="#5554ED"/>
</g>
<mask id="mask5_2032_24982" style="mask-type:luminance" maskUnits="userSpaceOnUse" x="-2" y="74" width="88" height="85">
<path d="M30.8335 158.817L-1.2835 105.205L53.3421 74.8068L85.4591 128.419L30.8335 158.817Z" fill="white"/>
</mask>
<g mask="url(#mask5_2032_24982)">
<path d="M24.7698 126.201L25.0332 126.641L25.5228 126.368L25.2594 125.929L24.7698 126.201Z" fill="#5554ED"/>
</g>
<mask id="mask6_2032_24982" style="mask-type:luminance" maskUnits="userSpaceOnUse" x="-2" y="74" width="88" height="85">
<path d="M-1.28369 128.419L30.8333 74.8066L85.4589 105.205L53.3419 158.817L-1.28369 128.419Z" fill="white"/>
</mask>
<g mask="url(#mask6_2032_24982)">
<path d="M25.0334 106.983L24.77 107.423L25.2596 107.695L25.523 107.256L25.0334 106.983Z" fill="#5554ED"/>
</g>
</g>
<mask id="mask7_2032_24982" style="mask-type:luminance" maskUnits="userSpaceOnUse" x="151" y="86" width="58" height="57">
<path d="M151.308 86.9443H208.458V142.294H151.308V86.9443Z" fill="white"/>
</mask>
<g mask="url(#mask7_2032_24982)">
<mask id="mask8_2032_24982" style="mask-type:luminance" maskUnits="userSpaceOnUse" x="151" y="86" width="58" height="57">
<path d="M151.308 86.9443H208.458V142.294H151.308V86.9443Z" fill="white"/>
</mask>
<g mask="url(#mask8_2032_24982)">
<path d="M180.582 97.5498H179.184V99.0303H180.582V97.5498Z" fill="#5554ED"/>
</g>
<mask id="mask9_2032_24982" style="mask-type:luminance" maskUnits="userSpaceOnUse" x="140" y="76" width="79" height="77">
<path d="M190.012 76.8145L218.918 125.066L169.754 152.424L140.849 104.173L190.012 76.8145Z" fill="white"/>
</mask>
<g mask="url(#mask9_2032_24982)">
<path d="M195.496 106.679L194.789 105.498L193.473 106.23L194.181 107.411L195.496 106.679Z" fill="#5554ED"/>
</g>
<mask id="mask10_2032_24982" style="mask-type:luminance" maskUnits="userSpaceOnUse" x="140" y="76" width="79" height="77">
<path d="M218.917 104.173L190.012 152.424L140.849 125.066L169.754 76.8145L218.917 104.173Z" fill="white"/>
</mask>
<g mask="url(#mask10_2032_24982)">
<path d="M194.788 123.741L195.496 122.56L194.18 121.828L193.473 123.009L194.788 123.741Z" fill="#5554ED"/>
</g>
<mask id="mask11_2032_24982" style="mask-type:luminance" maskUnits="userSpaceOnUse" x="151" y="86" width="58" height="57">
<path d="M208.458 142.294H151.308V86.9439H208.458V142.294Z" fill="white"/>
</mask>
<g mask="url(#mask11_2032_24982)">
<path d="M179.184 131.688H180.582V130.208H179.184V131.688Z" fill="#5554ED"/>
</g>
<mask id="mask12_2032_24982" style="mask-type:luminance" maskUnits="userSpaceOnUse" x="140" y="76" width="79" height="77">
<path d="M169.753 152.424L140.848 104.173L190.011 76.8143L218.916 125.065L169.753 152.424Z" fill="white"/>
</mask>
<g mask="url(#mask12_2032_24982)">
<path d="M164.269 122.559L164.977 123.74L166.292 123.008L165.585 121.827L164.269 122.559Z" fill="#5554ED"/>
</g>
<mask id="mask13_2032_24982" style="mask-type:luminance" maskUnits="userSpaceOnUse" x="140" y="76" width="79" height="77">
<path d="M140.849 125.065L169.754 76.8143L218.917 104.173L190.012 152.424L140.849 125.065Z" fill="white"/>
</mask>
<g mask="url(#mask13_2032_24982)">
<path d="M164.978 105.498L164.27 106.679L165.585 107.411L166.293 106.23L164.978 105.498Z" fill="#5554ED"/>
</g>
</g>
<mask id="mask14_2032_24982" style="mask-type:luminance" maskUnits="userSpaceOnUse" x="24" y="0" width="49" height="47">
<path d="M24.9424 0.844727H72.5674V46.9697H24.9424V0.844727Z" fill="white"/>
</mask>
<g mask="url(#mask14_2032_24982)">
<mask id="mask15_2032_24982" style="mask-type:luminance" maskUnits="userSpaceOnUse" x="24" y="0" width="49" height="47">
<path d="M24.9424 0.844727H72.5674V46.9697H24.9424V0.844727Z" fill="white"/>
</mask>
<g mask="url(#mask15_2032_24982)">
<path d="M49.6405 10.9639H47.8696V12.9093H49.6405V10.9639Z" fill="#5554ED"/>
</g>
<mask id="mask16_2032_24982" style="mask-type:luminance" maskUnits="userSpaceOnUse" x="16" y="-8" width="66" height="64">
<path d="M57.1953 -7.59668L81.2831 32.6126L40.3138 55.4112L16.2261 15.202L57.1953 -7.59668Z" fill="white"/>
</mask>
<g mask="url(#mask16_2032_24982)">
<path d="M60.7719 18.1895L59.8755 16.6934L58.1468 17.6553L59.0431 19.1514L60.7719 18.1895Z" fill="#5554ED"/>
</g>
<mask id="mask17_2032_24982" style="mask-type:luminance" maskUnits="userSpaceOnUse" x="16" y="-8" width="66" height="64">
<path d="M81.2837 15.2021L57.1959 55.4114L16.2267 32.6128L40.3145 -7.59649L81.2837 15.2021Z" fill="white"/>
</mask>
<g mask="url(#mask17_2032_24982)">
<path d="M59.8756 31.1221L60.772 29.626L59.0433 28.6641L58.1469 30.1603L59.8756 31.1221Z" fill="#5554ED"/>
</g>
<mask id="mask18_2032_24982" style="mask-type:luminance" maskUnits="userSpaceOnUse" x="24" y="0" width="49" height="47">
<path d="M72.5674 46.9697H24.9424V0.844727H72.5674V46.9697Z" fill="white"/>
</mask>
<g mask="url(#mask18_2032_24982)">
<path d="M47.8692 36.8506H49.6401V34.9051H47.8692V36.8506Z" fill="#5554ED"/>
</g>
<mask id="mask19_2032_24982" style="mask-type:luminance" maskUnits="userSpaceOnUse" x="16" y="-8" width="66" height="64">
<path d="M40.3145 55.4111L16.2267 15.2018L57.1959 -7.59679L81.2837 32.6125L40.3145 55.4111Z" fill="white"/>
</mask>
<g mask="url(#mask19_2032_24982)">
<path d="M36.7379 29.6249L37.6343 31.1211L39.363 30.1592L38.4666 28.663L36.7379 29.6249Z" fill="#5554ED"/>
</g>
<mask id="mask20_2032_24982" style="mask-type:luminance" maskUnits="userSpaceOnUse" x="16" y="-8" width="66" height="64">
<path d="M16.2266 32.6123L40.3143 -7.59699L81.2835 15.2016L57.1958 55.4109L16.2266 32.6123Z" fill="white"/>
</mask>
<g mask="url(#mask20_2032_24982)">
<path d="M37.6347 16.6923L36.7383 18.1885L38.467 19.1503L39.3634 17.6542L37.6347 16.6923Z" fill="#5554ED"/>
</g>
</g>
<mask id="mask21_2032_24982" style="mask-type:luminance" maskUnits="userSpaceOnUse" x="136" y="47" width="37" height="35">
<path d="M136.703 47.2773H172.263V81.7173H136.703V47.2773Z" fill="white"/>
</mask>
<g mask="url(#mask21_2032_24982)">
<mask id="mask22_2032_24982" style="mask-type:luminance" maskUnits="userSpaceOnUse" x="136" y="47" width="37" height="35">
<path d="M136.703 47.2773H172.263V81.7173H136.703V47.2773Z" fill="white"/>
</mask>
<g mask="url(#mask22_2032_24982)">
<path d="M155.144 56.1191H153.821V61.8338H155.144V56.1191Z" fill="#5554ED"/>
</g>
<mask id="mask23_2032_24982" style="mask-type:luminance" maskUnits="userSpaceOnUse" x="130" y="40" width="49" height="49">
<path d="M160.785 40.9746L178.771 70.9975L148.18 88.0205L130.195 57.9976L160.785 40.9746Z" fill="white"/>
</mask>
<g mask="url(#mask23_2032_24982)">
<path d="M162.305 60.8769L161.634 59.7539L156.534 62.5972L157.206 63.7202L162.305 60.8769Z" fill="#5554ED"/>
</g>
<mask id="mask24_2032_24982" style="mask-type:luminance" maskUnits="userSpaceOnUse" x="130" y="40" width="49" height="49">
<path d="M178.771 57.9971L160.785 88.02L130.195 70.997L148.18 40.9741L178.771 57.9971Z" fill="white"/>
</mask>
<g mask="url(#mask24_2032_24982)">
<path d="M161.634 69.2412L162.305 68.1182L157.205 65.2749L156.534 66.3979L161.634 69.2412Z" fill="#5554ED"/>
</g>
<mask id="mask25_2032_24982" style="mask-type:luminance" maskUnits="userSpaceOnUse" x="136" y="47" width="37" height="35">
<path d="M172.263 81.7178H136.703V47.2778H172.263V81.7178Z" fill="white"/>
</mask>
<g mask="url(#mask25_2032_24982)">
<path d="M153.822 72.876H155.144V67.1613H153.822V72.876Z" fill="#5554ED"/>
</g>
<mask id="mask26_2032_24982" style="mask-type:luminance" maskUnits="userSpaceOnUse" x="130" y="40" width="49" height="49">
<path d="M148.18 88.0205L130.195 57.9976L160.785 40.9746L178.771 70.9975L148.18 88.0205Z" fill="white"/>
</mask>
<g mask="url(#mask26_2032_24982)">
<path d="M146.66 68.1182L147.332 69.2412L152.431 66.3979L151.76 65.2749L146.66 68.1182Z" fill="#5554ED"/>
</g>
<mask id="mask27_2032_24982" style="mask-type:luminance" maskUnits="userSpaceOnUse" x="130" y="40" width="49" height="49">
<path d="M130.195 70.9971L148.18 40.9741L178.771 57.9971L160.785 88.0201L130.195 70.9971Z" fill="white"/>
</mask>
<g mask="url(#mask27_2032_24982)">
<path d="M147.332 59.7529L146.66 60.876L151.76 63.7192L152.431 62.5962L147.332 59.7529Z" fill="#5554ED"/>
</g>
</g>
</svg>
