<svg width="20" height="21" viewBox="0 0 20 21" fill="none" xmlns="http://www.w3.org/2000/svg">
<path d="M16.25 10.4999C16.25 9.47328 16.2117 8.45578 16.135 7.44828C16.076 6.65007 15.7323 5.89961 15.1663 5.33365C14.6003 4.7677 13.8499 4.42391 13.0517 4.36495C11.0201 4.21168 8.97989 4.21168 6.94833 4.36495C6.15012 4.42391 5.39966 4.7677 4.8337 5.33365C4.26775 5.89961 3.92396 6.65007 3.865 7.44828C3.85083 7.63162 3.83833 7.81578 3.82667 7.99995M16.25 10.4999L18.75 7.99995M16.25 10.4999L13.75 7.99995M3.75 10.4999C3.75 11.5266 3.78833 12.5441 3.865 13.5516C3.92396 14.3498 4.26775 15.1003 4.8337 15.6662C5.39966 16.2322 6.15012 16.576 6.94833 16.6349C8.97989 16.7883 11.0201 16.7883 13.0517 16.6349C13.8499 16.576 14.6003 16.2322 15.1663 15.6662C15.7323 15.1003 16.076 14.3498 16.135 13.5516C16.1492 13.3683 16.1617 13.1841 16.1733 12.9999M3.75 10.4999L6.25 12.9999M3.75 10.4999L1.25 12.9999" stroke="#28282B" stroke-width="1.5" stroke-linecap="round" stroke-linejoin="round"/>
</svg>
