<svg width="20" height="21" viewBox="0 0 20 21" fill="none" xmlns="http://www.w3.org/2000/svg">
<path d="M14.0517 4.23937L15.4575 2.83271C15.7506 2.53964 16.148 2.375 16.5625 2.375C16.977 2.375 17.3744 2.53964 17.6675 2.83271C17.9606 3.12577 18.1252 3.52325 18.1252 3.93771C18.1252 4.35216 17.9606 4.74964 17.6675 5.04271L8.81833 13.8919C8.37777 14.3322 7.83447 14.6558 7.2375 14.8335L5 15.5002L5.66667 13.2627C5.8444 12.6657 6.16803 12.1224 6.60833 11.6819L14.0517 4.23937ZM14.0517 4.23937L16.25 6.43771M15 12.1669V16.1252C15 16.6225 14.8025 17.0994 14.4508 17.451C14.0992 17.8027 13.6223 18.0002 13.125 18.0002H4.375C3.87772 18.0002 3.40081 17.8027 3.04917 17.451C2.69754 17.0994 2.5 16.6225 2.5 16.1252V7.37521C2.5 6.87793 2.69754 6.40101 3.04917 6.04938C3.40081 5.69775 3.87772 5.50021 4.375 5.50021H8.33333" stroke="#667085" stroke-linecap="round" stroke-linejoin="round"/>
</svg>
