<svg width="20" height="20" viewBox="0 0 20 20" fill="none" xmlns="http://www.w3.org/2000/svg">
<path d="M4.75005 0.994141V3.24414M15.25 0.994141V3.24414M0.998047 16.7441V5.49114C0.998047 4.8944 1.2351 4.32211 1.65706 3.90015C2.07901 3.47819 2.65131 3.24114 3.24805 3.24114H16.748C17.3448 3.24114 17.9171 3.47819 18.339 3.90015C18.761 4.32211 18.998 4.8944 18.998 5.49114V16.7421M18.998 16.7421C18.998 17.3389 18.761 17.9112 18.339 18.3331C17.9171 18.7551 17.3448 18.9921 16.748 18.9921H3.24805C2.65131 18.9921 2.07901 18.7551 1.65706 18.3331C1.2351 17.9112 0.998047 17.3389 0.998047 16.7421V9.24214C0.998047 8.6454 1.2351 8.07311 1.65706 7.65115C2.07901 7.22919 2.65131 6.99214 3.24805 6.99214H16.748C17.3448 6.99214 17.9171 7.22919 18.339 7.65115C18.761 8.07311 18.998 8.6454 18.998 9.24214V16.7421ZM12.248 10.7421H14.498M5.49805 12.9921H9.99805M10 10.7421H10.005V10.7481H10V10.7421ZM9.99905 15.2421H10.005V15.2481H9.99905V15.2421ZM7.74905 15.2431H7.75405V15.2491H7.75005V15.2431H7.74905ZM5.49905 15.2431H5.50405V15.2481H5.49805V15.2431H5.49905ZM12.249 12.9961H12.254V13.0011H12.249V12.9961ZM12.249 15.2431H12.255V15.2491H12.249V15.2431ZM14.499 12.9951H14.505V13.0001H14.5L14.499 12.9951Z" stroke="black" stroke-linecap="round" stroke-linejoin="round"/>
</svg>
