<svg width="24" height="25" viewBox="0 0 24 25" fill="none" xmlns="http://www.w3.org/2000/svg">
<path d="M6 14V4.25M6 14C6.39782 14 6.77936 14.158 7.06066 14.4393C7.34196 14.7206 7.5 15.1022 7.5 15.5C7.5 15.8978 7.34196 16.2794 7.06066 16.5607C6.77936 16.842 6.39782 17 6 17M6 14C5.60218 14 5.22064 14.158 4.93934 14.4393C4.65804 14.7206 4.5 15.1022 4.5 15.5C4.5 15.8978 4.65804 16.2794 4.93934 16.5607C5.22064 16.842 5.60218 17 6 17M6 17V20.75M18 14V4.25M18 14C18.3978 14 18.7794 14.158 19.0607 14.4393C19.342 14.7206 19.5 15.1022 19.5 15.5C19.5 15.8978 19.342 16.2794 19.0607 16.5607C18.7794 16.842 18.3978 17 18 17M18 14C17.6022 14 17.2206 14.158 16.9393 14.4393C16.658 14.7206 16.5 15.1022 16.5 15.5C16.5 15.8978 16.658 16.2794 16.9393 16.5607C17.2206 16.842 17.6022 17 18 17M18 17V20.75M12 8V4.25M12 8C12.3978 8 12.7794 8.15804 13.0607 8.43934C13.342 8.72064 13.5 9.10218 13.5 9.5C13.5 9.89782 13.342 10.2794 13.0607 10.5607C12.7794 10.842 12.3978 11 12 11M12 8C11.6022 8 11.2206 8.15804 10.9393 8.43934C10.658 8.72064 10.5 9.10218 10.5 9.5C10.5 9.89782 10.658 10.2794 10.9393 10.5607C11.2206 10.842 11.6022 11 12 11M12 11V20.75" stroke="black" stroke-width="1.5" stroke-linecap="round" stroke-linejoin="round"/>
</svg>
