<svg width="24" height="25" viewBox="0 0 24 25" fill="none" xmlns="http://www.w3.org/2000/svg">
<path d="M21.9301 7.26196L18.5601 20.792C18.3201 21.802 17.4201 22.502 16.3801 22.502H3.24013C1.73013 22.502 0.650145 21.0219 1.10015 19.5719L5.31014 6.052C5.60014 5.112 6.47015 4.46191 7.45015 4.46191H19.7501C20.7001 4.46191 21.4901 5.04192 21.8201 5.84192C22.0101 6.27192 22.0501 6.76196 21.9301 7.26196Z" stroke="#667085" stroke-width="1.5" stroke-miterlimit="10"/>
<path d="M16 22.502H20.78C22.07 22.502 23.08 21.4119 22.99 20.1219L22 6.50195" stroke="#667085" stroke-width="1.5" stroke-miterlimit="10" stroke-linecap="round" stroke-linejoin="round"/>
<path d="M9.67969 6.88245L10.7197 2.5625" stroke="#667085" stroke-width="1.5" stroke-miterlimit="10" stroke-linecap="round" stroke-linejoin="round"/>
<path d="M16.3799 6.89172L17.3199 2.55176" stroke="#667085" stroke-width="1.5" stroke-miterlimit="10" stroke-linecap="round" stroke-linejoin="round"/>
<path d="M7.7002 12.502H15.7002" stroke="#667085" stroke-width="1.5" stroke-miterlimit="10" stroke-linecap="round" stroke-linejoin="round"/>
<path d="M6.7002 16.502H14.7002" stroke="#667085" stroke-width="1.5" stroke-miterlimit="10" stroke-linecap="round" stroke-linejoin="round"/>
</svg>
