<svg width="24" height="24" viewBox="0 0 24 24" fill="none" xmlns="http://www.w3.org/2000/svg">
<path d="M14.74 9.0015L14.394 18.0015M9.606 18.0015L9.26 9.0015M19.228 5.7915C19.57 5.8435 19.91 5.8985 20.25 5.9575M19.228 5.7915L18.16 19.6745C18.1164 20.2397 17.8611 20.7677 17.445 21.1527C17.029 21.5378 16.4829 21.7517 15.916 21.7515H8.084C7.5171 21.7517 6.97102 21.5378 6.55498 21.1527C6.13894 20.7677 5.88359 20.2397 5.84 19.6745L4.772 5.7915M19.228 5.7915C18.0739 5.61701 16.9138 5.48459 15.75 5.3945M4.772 5.7915C4.43 5.8425 4.09 5.8975 3.75 5.9565M4.772 5.7915C5.92613 5.61702 7.08623 5.4846 8.25 5.3945M15.75 5.3945V4.4785C15.75 3.2985 14.84 2.3145 13.66 2.2775C12.5536 2.24214 11.4464 2.24214 10.34 2.2775C9.16 2.3145 8.25 3.2995 8.25 4.4785V5.3945M15.75 5.3945C13.2537 5.20158 10.7463 5.20158 8.25 5.3945" stroke="#B3261E" stroke-width="1.5" stroke-linecap="round" stroke-linejoin="round"/>
</svg>
