<svg width="24" height="25" viewBox="0 0 24 25" fill="none" xmlns="http://www.w3.org/2000/svg">
<path d="M8.25002 19.3472C8.25002 19.745 8.09198 20.1265 7.81068 20.4078C7.52937 20.6891 7.14784 20.8472 6.75002 20.8472C6.35219 20.8472 5.97066 20.6891 5.68936 20.4078C5.40805 20.1265 5.25002 19.745 5.25002 19.3472M8.25002 19.3472C8.25002 18.9493 8.09198 18.5678 7.81068 18.2865C7.52937 18.0052 7.14784 17.8472 6.75002 17.8472C6.35219 17.8472 5.97066 18.0052 5.68936 18.2865C5.40805 18.5678 5.25002 18.9493 5.25002 19.3472M8.25002 19.3472H14.25M5.25002 19.3472H3.37502C3.07665 19.3472 2.7905 19.2286 2.57952 19.0177C2.36855 18.8067 2.25002 18.5205 2.25002 18.2222V14.8472M14.25 19.3472H16.5M14.25 19.3472V14.8472M2.25002 14.8472V7.21216C2.24843 6.93833 2.34848 6.67364 2.53081 6.46933C2.71313 6.26502 2.96477 6.13562 3.23702 6.10616C6.57006 5.76019 9.92997 5.76019 13.263 6.10616C13.828 6.16416 14.25 6.64416 14.25 7.21216V8.17016M2.25002 14.8472H14.25M19.5 19.3472C19.5 19.745 19.342 20.1265 19.0607 20.4078C18.7794 20.6891 18.3978 20.8472 18 20.8472C17.6022 20.8472 17.2207 20.6891 16.9394 20.4078C16.6581 20.1265 16.5 19.745 16.5 19.3472M19.5 19.3472C19.5 18.9493 19.342 18.5678 19.0607 18.2865C18.7794 18.0052 18.3978 17.8472 18 17.8472C17.6022 17.8472 17.2207 18.0052 16.9394 18.2865C16.6581 18.5678 16.5 18.9493 16.5 19.3472M19.5 19.3472H20.625C21.246 19.3472 21.754 18.8432 21.715 18.2232C21.5141 14.9208 20.4019 11.7387 18.502 9.03016C18.3211 8.77644 18.0848 8.56718 17.8111 8.41819C17.5373 8.2692 17.2333 8.18439 16.922 8.17016H14.25M14.25 8.17016V14.8472" stroke="#667085" stroke-width="1.5" stroke-linecap="round" stroke-linejoin="round"/>
</svg>
