<svg width="314" height="297" viewBox="0 0 314 297" fill="none" xmlns="http://www.w3.org/2000/svg">
<path d="M169.118 242.474H67.2833C39.8339 242.474 15.1901 225.168 6.4067 199.181C6.20824 198.594 6.01282 197.999 5.81967 197.396C-1.78138 173.662 -5.90875 146.007 19.3531 109.044C44.615 72.0793 27.2859 37.4081 59.7656 24.7864C92.2452 12.1646 118.596 27.9031 155.586 12.5767C192.576 -2.74961 266.557 -1.84784 271.068 60.3593C275.579 122.567 257.535 119.862 264.752 140.598C271.97 161.334 296.33 247.884 169.118 242.474Z" fill="#E4F1FF"/>
<path d="M89.1942 297C128.819 297 160.94 288.758 160.94 278.591C160.94 268.424 128.819 260.182 89.1942 260.182C49.5697 260.182 17.4478 268.424 17.4478 278.591C17.4478 288.758 49.5697 297 89.1942 297Z" fill="#E4F1FF"/>
<path d="M16.5759 242.354H308.714" stroke="#1C004F" stroke-width="0.5" stroke-miterlimit="10" stroke-linecap="round"/>
<path d="M55.7959 285.566L115.517 285.627C117.438 285.63 118.998 284.135 119 282.289L119.064 225.582L55.8633 225.517L55.7959 285.566Z" fill="#5554ED"/>
<path d="M55.8641 225.514L119.034 225.579L99.1446 210.357C97.7663 209.302 96.0495 208.726 94.2788 208.723L41.3918 208.669C40.0761 208.668 39.4222 210.186 40.3614 211.061L55.8641 225.514Z" fill="#5554ED"/>
<path d="M38.1001 265.726L37.9027 213.548C37.9075 209.573 40.5944 208.922 40.5944 208.922L40.107 209.902C39.8684 210.407 40.367 210.996 40.7815 211.385L55.8712 225.517L55.803 285.562L40.042 270.233C38.8031 269.027 38.1064 267.411 38.1001 265.726Z" fill="#5554ED"/>
<path d="M73.4426 225.534L58.5003 225.519C57.0443 225.518 55.8625 226.65 55.8609 228.049L55.8435 243.203" stroke="white" stroke-width="0.5" stroke-miterlimit="10"/>
<path d="M55.8332 252.787L55.7991 283.033" stroke="white" stroke-width="0.5" stroke-miterlimit="10"/>
<path d="M46.5334 216.854L55.7832 225.516" stroke="white" stroke-width="0.5" stroke-miterlimit="10"/>
<path d="M40.5065 208.922L40.019 209.902C39.7804 210.407 40.279 210.996 40.6935 211.385L44.9118 215.335" stroke="white" stroke-width="0.5" stroke-miterlimit="10"/>
<path d="M203.534 242.654H120.646C113.228 242.654 107.214 236.878 107.214 229.754V55.0928C107.214 47.9684 113.228 42.193 120.646 42.193H203.534C210.952 42.193 216.965 47.9684 216.965 55.0928V229.754C216.965 236.878 210.952 242.654 203.534 242.654Z" fill="#1C004F"/>
<path d="M204.326 237.685H119.852C115.5 237.685 111.971 234.296 111.971 230.116V54.7304C111.971 50.5505 115.5 47.1615 119.852 47.1615H204.326C208.679 47.1615 212.207 50.5505 212.207 54.7304V230.115C212.207 234.296 208.679 237.685 204.326 237.685Z" fill="white"/>
<path d="M178.755 58.6279H145.424C141.307 58.6279 137.969 55.4224 137.969 51.4678V45.0598C137.969 44.8497 138.146 44.6799 138.365 44.6799H186.211V51.4678C186.211 55.4224 182.873 58.6279 178.755 58.6279Z" fill="#1C004F"/>
<path d="M136.896 35.6973C136.972 48.3565 126.349 58.678 113.167 58.7511C99.9863 58.8242 89.2393 48.6207 89.164 35.9622C89.0879 23.3022 99.7113 12.9814 112.892 12.9083C126.073 12.8353 136.82 23.038 136.896 35.6973Z" fill="#5554ED"/>
<path d="M130.793 35.3684C130.851 44.9927 122.775 52.8387 112.755 52.8935C102.734 52.949 94.5641 45.1929 94.5062 35.5694C94.4484 25.9452 102.524 18.0992 112.544 18.0436C122.565 17.9888 130.735 25.7442 130.793 35.3684Z" fill="#5554ED"/>
<path d="M131.31 36.0917C131.367 45.5858 123.399 53.3275 113.513 53.3815C103.627 53.4363 95.5675 45.7844 95.5105 36.2896C95.4534 26.7948 103.421 19.0539 113.307 18.9991C123.192 18.945 131.252 26.5977 131.31 36.0917Z" fill="#FF725E"/>
<path d="M131.31 36.0917C131.367 45.5858 123.399 53.3275 113.513 53.3815C103.627 53.4363 95.5675 45.7844 95.5105 36.2896C95.4534 26.7948 103.421 19.0539 113.307 18.9991C123.192 18.945 131.252 26.5977 131.31 36.0917Z" fill="#4C4CD5"/>
<path d="M114.114 34.6971L114.088 30.2987C114.095 30.2987 114.103 30.2987 114.11 30.2987C114.906 30.3824 115.731 30.5819 116.548 30.8948C117.23 31.2297 117.692 31.5791 117.692 31.5791L117.752 31.4428L118.449 29.8557L118.609 29.491L117.788 28.672L117.396 28.844C116.393 28.3682 115.25 27.9975 114.073 27.9427L114.059 25.5235L113.271 24.9214L113.275 25.5281L112.199 25.5342L112.214 27.9968C108.677 28.3431 107.009 30.2919 107.022 32.5146C107.041 35.5436 109.746 36.3132 112.267 36.8871L112.293 41.2452C110.568 41.1021 108.862 40.4794 107.745 39.6139L106.738 41.8207C107.924 42.7951 110.083 43.4802 112.307 43.5989L112.319 45.4251L111.433 45.4449L112.323 46.0173L114.183 46.0067L114.168 43.5662C117.727 43.1977 119.418 41.2711 119.405 39.0483C119.385 36.0186 116.636 35.2711 114.114 34.6971ZM112.25 34.2495C110.932 33.8864 109.953 33.4121 109.947 32.3662C109.942 31.4078 110.618 30.6192 112.227 30.371L112.25 34.2495ZM114.153 41.1904L114.13 37.3332C115.493 37.6963 116.494 38.1919 116.501 39.2591C116.507 40.197 115.808 40.9415 114.153 41.1904Z" fill="#5554ED"/>
<path d="M113.394 42.9725L113.409 45.4137L111.548 45.4236L111.534 43.0044C109.309 42.8857 107.149 42.2006 105.963 41.2262L106.972 39.0202C108.089 39.8857 109.794 40.5076 111.52 40.6507L111.494 36.2919C108.972 35.7179 106.267 34.9476 106.249 31.9186C106.235 29.6951 107.903 27.7464 111.441 27.4L111.426 24.9374L113.287 24.9268L113.301 27.3459C114.982 27.4236 116.686 27.894 117.917 28.6499L116.999 30.856C115.793 30.1869 114.519 29.8238 113.316 29.6997L113.342 34.1019C115.865 34.6766 118.615 35.4241 118.633 38.453C118.645 40.6766 116.955 42.604 113.394 42.9725ZM111.477 33.655L111.454 29.7758C109.844 30.0247 109.168 30.8126 109.174 31.7717C109.18 32.8177 110.159 33.2919 111.477 33.655ZM115.728 38.6662C115.722 37.5982 114.72 37.1026 113.357 36.7395L113.38 40.5974C115.035 40.3485 115.734 39.6033 115.728 38.6662Z" fill="white"/>
<path d="M177.709 14.4385C177.757 22.4588 171.026 28.9978 162.676 29.0442C154.325 29.0906 147.517 22.6263 147.468 14.6059C147.42 6.58564 154.15 0.0466756 162.502 0.000240574C170.852 -0.0454332 177.661 6.41817 177.709 14.4385Z" fill="#5554ED"/>
<path d="M173.843 14.2308C173.879 20.3282 168.763 25.299 162.415 25.334C156.066 25.3691 150.89 20.4553 150.854 14.3579C150.817 8.26043 155.934 3.2896 162.282 3.25458C168.63 3.21956 173.805 8.13331 173.843 14.2308Z" fill="#5554ED"/>
<path d="M174.169 14.6882C174.206 20.7034 169.157 25.608 162.894 25.6423C156.631 25.6773 151.525 20.829 151.489 14.8138C151.452 8.79853 156.5 3.89469 162.764 3.85968C169.028 3.82542 174.133 8.67293 174.169 14.6882Z" fill="#FF725E"/>
<path d="M174.169 14.6882C174.206 20.7034 169.157 25.608 162.894 25.6423C156.631 25.6773 151.525 20.829 151.489 14.8138C151.452 8.79853 156.5 3.89469 162.764 3.85968C169.028 3.82542 174.133 8.67293 174.169 14.6882Z" fill="#4C4CD5"/>
<path d="M163.275 13.8043L163.259 11.0182C163.264 11.0182 163.268 11.0182 163.273 11.0182C163.777 11.0715 164.3 11.1978 164.818 11.3958C165.251 11.6081 165.543 11.8297 165.543 11.8297L165.581 11.7436L166.023 10.7381L166.124 10.5067L165.604 9.98749L165.356 10.0963C164.72 9.7949 163.996 9.55968 163.251 9.52543L163.242 7.99308L162.743 7.61169L162.745 7.99612L162.064 7.99992L162.073 9.55968C159.832 9.77892 158.775 11.0136 158.784 12.4219C158.796 14.341 160.508 14.8282 162.106 15.1928L162.123 17.9538C161.03 17.8632 159.95 17.4689 159.242 16.9208L158.604 18.3184C159.355 18.9357 160.723 19.3696 162.133 19.445L162.14 20.6021L161.579 20.6143L162.142 20.9774L163.321 20.9713L163.311 19.4252C165.567 19.1923 166.638 17.9713 166.629 16.563C166.616 14.6417 164.873 14.1682 163.275 13.8043ZM162.095 13.5211C161.26 13.2912 160.64 12.9905 160.636 12.3283C160.632 11.7208 161.061 11.2214 162.08 11.0639L162.095 13.5211ZM163.3 17.9187L163.286 15.4752C164.15 15.7051 164.784 16.0195 164.788 16.6955C164.791 17.2892 164.349 17.7612 163.3 17.9187Z" fill="#5554ED"/>
<path d="M162.819 19.0478L162.828 20.5946L161.65 20.6007L161.64 19.0684C160.231 18.993 158.862 18.5591 158.111 17.9417L158.75 16.5441C159.457 17.0922 160.538 17.4865 161.632 17.5771L161.615 14.8154C160.017 14.4515 158.303 13.9636 158.292 12.0445C158.283 10.6362 159.339 9.40074 161.581 9.18151L161.571 7.62098L162.75 7.61414L162.759 9.14649C163.823 9.19597 164.903 9.49361 165.683 9.97242L165.102 11.37C164.338 10.946 163.531 10.7161 162.768 10.637L162.785 13.4261C164.383 13.79 166.126 14.2635 166.137 16.1833C166.146 17.5931 165.075 18.8141 162.819 19.0478ZM161.605 13.1445L161.59 10.6865C160.57 10.844 160.141 11.3434 160.145 11.9509C160.149 12.6139 160.77 12.9146 161.605 13.1445ZM164.298 16.3196C164.294 15.6428 163.659 15.3292 162.795 15.0993L162.809 17.5436C163.859 17.3853 164.302 16.9133 164.298 16.3196Z" fill="white"/>
<path d="M274.387 155.812H310.783C312.559 155.812 314 154.429 314 152.723V116.614C314 114.909 312.56 113.525 310.783 113.525H274.387C272.61 113.525 271.17 114.908 271.17 116.614V152.723C271.17 154.429 272.61 155.812 274.387 155.812Z" fill="#5554ED"/>
<path d="M310.782 113.525H274.386C272.609 113.525 271.169 114.909 271.169 116.615V125.702H313.998V116.615C313.999 114.909 312.559 113.525 310.782 113.525Z" fill="#5554ED"/>
<path d="M302.207 136.256H307.93C308.275 136.256 308.554 135.988 308.554 135.657V130.161C308.554 129.829 308.274 129.562 307.93 129.562H302.207C301.863 129.562 301.584 129.83 301.584 130.161V135.657C301.583 135.988 301.863 136.256 302.207 136.256Z" fill="#E4F1FF"/>
<path d="M294.032 136.256H299.755C300.1 136.256 300.379 135.988 300.379 135.657V130.161C300.379 129.829 300.099 129.562 299.755 129.562H294.032C293.688 129.562 293.409 129.83 293.409 130.161V135.657C293.409 135.988 293.688 136.256 294.032 136.256Z" fill="white"/>
<path d="M282.395 116.69C281.608 116.69 280.968 116.076 280.968 115.319V110.465C280.968 109.707 281.608 109.094 282.395 109.094C283.183 109.094 283.823 109.707 283.823 110.465V115.319C283.823 116.076 283.184 116.69 282.395 116.69Z" fill="#5554ED"/>
<path d="M289.622 116.697C288.834 116.697 288.194 116.084 288.194 115.326V110.472C288.194 109.715 288.834 109.101 289.622 109.101C290.41 109.101 291.049 109.715 291.049 110.472V115.326C291.049 116.084 290.41 116.697 289.622 116.697Z" fill="#5554ED"/>
<path d="M296.512 116.692C295.724 116.692 295.084 116.079 295.084 115.321V110.467C295.084 109.709 295.724 109.096 296.512 109.096C297.3 109.096 297.939 109.709 297.939 110.467V115.321C297.939 116.079 297.3 116.692 296.512 116.692Z" fill="#5554ED"/>
<path d="M285.8 136.256H291.523C291.868 136.256 292.147 135.988 292.147 135.657V130.161C292.147 129.829 291.868 129.562 291.523 129.562H285.8C285.456 129.562 285.177 129.83 285.177 130.161V135.657C285.177 135.988 285.456 136.256 285.8 136.256Z" fill="#E4F1FF"/>
<path d="M277.625 136.256H283.348C283.693 136.256 283.972 135.988 283.972 135.657V130.161C283.972 129.829 283.692 129.562 283.348 129.562H277.625C277.281 129.562 277.002 129.83 277.002 130.161V135.657C277.002 135.988 277.281 136.256 277.625 136.256Z" fill="#E4F1FF"/>
<path d="M302.148 143.709H307.871C308.216 143.709 308.495 143.44 308.495 143.11V137.614C308.495 137.283 308.216 137.015 307.871 137.015H302.148C301.803 137.015 301.524 137.283 301.524 137.614V143.11C301.524 143.44 301.803 143.709 302.148 143.709Z" fill="#E4F1FF"/>
<path d="M293.973 143.709H299.696C300.041 143.709 300.32 143.44 300.32 143.11V137.614C300.32 137.283 300.04 137.015 299.696 137.015H293.973C293.628 137.015 293.349 137.283 293.349 137.614V143.11C293.349 143.44 293.629 143.709 293.973 143.709Z" fill="white"/>
<path d="M285.742 143.709H291.464C291.809 143.709 292.088 143.44 292.088 143.11V137.614C292.088 137.283 291.808 137.015 291.464 137.015H285.742C285.397 137.015 285.118 137.283 285.118 137.614V143.11C285.117 143.44 285.397 143.709 285.742 143.709Z" fill="#E4F1FF"/>
<path d="M277.567 143.709H283.289C283.634 143.709 283.913 143.44 283.913 143.11V137.614C283.913 137.283 283.633 137.015 283.289 137.015H277.567C277.222 137.015 276.943 137.283 276.943 137.614V143.11C276.943 143.44 277.222 143.709 277.567 143.709Z" fill="#E4F1FF"/>
<path d="M302.09 151.225H307.813C308.158 151.225 308.437 150.956 308.437 150.626V145.129C308.437 144.798 308.157 144.53 307.813 144.53H302.09C301.745 144.53 301.466 144.799 301.466 145.129V150.626C301.466 150.956 301.745 151.225 302.09 151.225Z" fill="#E4F1FF"/>
<path d="M293.915 151.225H299.638C299.983 151.225 300.262 150.956 300.262 150.626V145.129C300.262 144.798 299.982 144.53 299.638 144.53H293.915C293.57 144.53 293.291 144.799 293.291 145.129V150.626C293.291 150.956 293.571 151.225 293.915 151.225Z" fill="white"/>
<path d="M285.684 151.225H291.407C291.751 151.225 292.03 150.956 292.03 150.626V145.129C292.03 144.798 291.751 144.53 291.407 144.53H285.684C285.339 144.53 285.06 144.799 285.06 145.129V150.626C285.059 150.956 285.339 151.225 285.684 151.225Z" fill="#E4F1FF"/>
<path d="M277.509 151.225H283.232C283.576 151.225 283.855 150.956 283.855 150.626V145.129C283.855 144.798 283.576 144.53 283.232 144.53H277.509C277.164 144.53 276.885 144.799 276.885 145.129V150.626C276.885 150.956 277.164 151.225 277.509 151.225Z" fill="#E4F1FF"/>
<path d="M303.419 116.692C302.631 116.692 301.991 116.079 301.991 115.321V110.467C301.991 109.709 302.631 109.096 303.419 109.096C304.207 109.096 304.846 109.709 304.846 110.467V115.321C304.846 116.079 304.207 116.692 303.419 116.692Z" fill="#5554ED"/>
<path opacity="0.35" d="M242.786 83.6823H138.374C134.982 83.6823 132.231 86.3237 132.231 89.5818V90.5029V141.767C132.231 145.025 134.982 147.666 138.374 147.666H242.785C246.178 147.666 248.928 145.025 248.928 141.767V132.513V89.5818C248.928 86.3237 246.178 83.6823 242.786 83.6823Z" fill="#5554ED"/>
<path d="M240.083 145.617H135.671C132.279 145.617 129.529 142.975 129.529 139.717V87.5317C129.529 84.2737 132.279 81.6322 135.671 81.6322H240.083C243.475 81.6322 246.225 84.2737 246.225 87.5317V139.717C246.225 142.976 243.475 145.617 240.083 145.617Z" fill="#5554ED"/>
<path d="M246.225 87.5325C246.225 84.2744 243.475 81.6329 240.083 81.6329H135.671C132.279 81.6329 129.529 84.2744 129.529 87.5325V88.4536C142.307 89.0108 167.076 93.0339 184.353 114.335C204.238 138.852 230.96 136.455 246.225 130.463V87.5325H246.225Z" fill="#5554ED"/>
<path d="M156.037 117.307H141.461C140.17 117.307 139.123 116.302 139.123 115.061V107.732C139.123 106.492 140.17 105.486 141.461 105.486H156.037C157.328 105.486 158.375 106.492 158.375 107.732V115.061C158.375 116.302 157.329 117.307 156.037 117.307Z" fill="white"/>
<path d="M238.202 93.059H217.097C216.563 93.059 216.13 92.6434 216.13 92.1303V88.229C216.13 87.7159 216.563 87.3003 217.097 87.3003H238.202C238.736 87.3003 239.169 87.7159 239.169 88.229V92.1303C239.169 92.6426 238.736 93.059 238.202 93.059Z" fill="#1C004F"/>
<path d="M158.533 127.295H140.472C139.343 127.295 138.428 126.416 138.428 125.332C138.428 124.248 139.343 123.369 140.472 123.369H158.533C159.661 123.369 160.577 124.247 160.577 125.332C160.577 126.416 159.661 127.295 158.533 127.295Z" fill="white"/>
<path d="M184.102 127.295H166.042C164.913 127.295 163.998 126.416 163.998 125.332C163.998 124.248 164.913 123.369 166.042 123.369H184.102C185.231 123.369 186.146 124.247 186.146 125.332C186.146 126.416 185.231 127.295 184.102 127.295Z" fill="white"/>
<path d="M209.863 127.295H191.802C190.674 127.295 189.758 126.416 189.758 125.332C189.758 124.248 190.674 123.369 191.802 123.369H209.863C210.992 123.369 211.907 124.247 211.907 125.332C211.906 126.416 210.992 127.295 209.863 127.295Z" fill="white"/>
<path d="M235.432 127.295H217.371C216.243 127.295 215.327 126.416 215.327 125.332C215.327 124.248 216.242 123.369 217.371 123.369H235.432C236.56 123.369 237.476 124.247 237.476 125.332C237.476 126.416 236.561 127.295 235.432 127.295Z" fill="white"/>
<path d="M164.237 140.535H140.744C140.058 140.535 139.502 140.001 139.502 139.343C139.502 138.683 140.058 138.149 140.744 138.149H164.237C164.923 138.149 165.48 138.683 165.48 139.343C165.48 140.001 164.923 140.535 164.237 140.535Z" fill="#1C004F"/>
<path d="M235.368 140.535H223.776C223.09 140.535 222.534 140.001 222.534 139.343C222.534 138.683 223.091 138.149 223.776 138.149H235.368C236.055 138.149 236.61 138.683 236.61 139.343C236.61 140.001 236.055 140.535 235.368 140.535Z" fill="#1C004F"/>
<mask id="mask0_866_2971" style="mask-type:luminance" maskUnits="userSpaceOnUse" x="139" y="105" width="20" height="13">
<path d="M156.037 117.307H141.461C140.17 117.307 139.123 116.302 139.123 115.061V107.732C139.123 106.492 140.17 105.486 141.461 105.486H156.037C157.328 105.486 158.375 106.492 158.375 107.732V115.061C158.375 116.302 157.329 117.307 156.037 117.307Z" fill="white"/>
</mask>
<g mask="url(#mask0_866_2971)">
<path d="M142.636 105.283C144.342 107.388 147.044 112.164 142.408 117.618" stroke="#5554ED" stroke-width="0.5" stroke-miterlimit="10" stroke-linecap="round"/>
</g>
<mask id="mask1_866_2971" style="mask-type:luminance" maskUnits="userSpaceOnUse" x="139" y="105" width="20" height="13">
<path d="M156.037 117.307H141.461C140.17 117.307 139.123 116.302 139.123 115.061V107.732C139.123 106.492 140.17 105.486 141.461 105.486H156.037C157.328 105.486 158.375 106.492 158.375 107.732V115.061C158.375 116.302 157.329 117.307 156.037 117.307Z" fill="white"/>
</mask>
<g mask="url(#mask1_866_2971)">
<path d="M137.883 111.289H144.946" stroke="#5554ED" stroke-width="0.5" stroke-miterlimit="10"/>
</g>
<mask id="mask2_866_2971" style="mask-type:luminance" maskUnits="userSpaceOnUse" x="139" y="105" width="20" height="13">
<path d="M156.037 117.307H141.461C140.17 117.307 139.123 116.302 139.123 115.061V107.732C139.123 106.492 140.17 105.486 141.461 105.486H156.037C157.328 105.486 158.375 106.492 158.375 107.732V115.061C158.375 116.302 157.329 117.307 156.037 117.307Z" fill="white"/>
</mask>
<g mask="url(#mask2_866_2971)">
<path d="M154.331 105.283C152.625 107.388 149.922 112.164 154.559 117.618" stroke="#5554ED" stroke-width="0.5" stroke-miterlimit="10" stroke-linecap="round"/>
</g>
<mask id="mask3_866_2971" style="mask-type:luminance" maskUnits="userSpaceOnUse" x="139" y="105" width="20" height="13">
<path d="M156.037 117.307H141.461C140.17 117.307 139.123 116.302 139.123 115.061V107.732C139.123 106.492 140.17 105.486 141.461 105.486H156.037C157.328 105.486 158.375 106.492 158.375 107.732V115.061C158.375 116.302 157.329 117.307 156.037 117.307Z" fill="white"/>
</mask>
<g mask="url(#mask3_866_2971)">
<path d="M159.083 111.289H152.02" stroke="#5554ED" stroke-width="0.5" stroke-miterlimit="10"/>
</g>
<path d="M249.066 213.621C249.066 213.621 249.201 196.873 259.981 195.674C270.761 194.475 274.475 197.55 275.952 198.119C277.427 198.686 273.54 199.45 270.252 202.539C266.964 205.629 266.997 209.481 259.583 210.741C252.169 212.002 249.41 217.247 249.41 217.247L249.066 213.621Z" fill="#5554ED"/>
<path d="M249.409 217.247C249.409 217.247 252.866 200.066 269.576 199.367" stroke="#1A2E9D" stroke-width="0.5" stroke-miterlimit="10" stroke-linecap="round"/>
<path d="M249.951 207.67C249.951 207.67 251.564 193.229 242.402 191.17C233.239 189.11 229.722 191.405 228.392 191.754C227.062 192.103 230.332 193.13 232.845 196.105C235.359 199.08 234.932 202.395 241.188 204.187C247.444 205.979 249.28 210.76 249.28 210.76L249.951 207.67Z" fill="#5554ED"/>
<path d="M249.281 210.76C249.281 210.76 248.078 195.631 233.755 193.437" stroke="#1A2E9D" stroke-width="0.5" stroke-miterlimit="10" stroke-linecap="round"/>
<path d="M250.949 174.674C250.953 174.674 250.967 174.73 250.989 174.84C251.012 174.963 251.043 175.126 251.082 175.332C251.121 175.554 251.169 175.821 251.224 176.134C251.266 176.456 251.312 176.824 251.365 177.237C251.553 178.896 251.696 181.321 251.519 184.305C251.372 187.292 250.908 190.824 250.39 194.736C249.865 198.647 249.416 202.964 249.343 207.513C249.132 216.62 250.288 224.834 251.53 230.669C252.132 233.595 252.785 235.927 253.216 237.543C253.447 238.336 253.628 238.956 253.755 239.393C253.811 239.596 253.856 239.756 253.889 239.875C253.918 239.984 253.931 240.041 253.927 240.042C253.927 240.042 252.643 236.55 251.36 230.702C250.073 224.867 248.886 216.636 249.097 207.508C249.171 202.95 249.628 198.62 250.165 194.708C250.697 190.796 251.177 187.273 251.346 184.296C251.544 181.321 251.428 178.904 251.269 177.247C251.225 176.834 251.186 176.466 251.151 176.144C251.105 175.83 251.065 175.562 251.032 175.34C251.003 175.133 250.98 174.968 250.963 174.845C250.951 174.733 250.945 174.675 250.949 174.674Z" fill="#1C004F"/>
<path d="M261.134 224.803H240.476C239.982 224.803 239.583 224.419 239.583 223.946V221.559C239.583 221.085 239.983 220.701 240.476 220.701H261.134C261.627 220.701 262.027 221.086 262.027 221.559V223.946C262.028 224.419 261.627 224.803 261.134 224.803Z" fill="#21212A"/>
<path d="M256.508 242.14H245.864C245.005 242.14 244.27 241.547 244.124 240.733L241.142 224.143H260.469L258.259 240.661C258.146 241.506 257.396 242.14 256.508 242.14Z" fill="#21212A"/>
<path d="M250.7 190.06C250.7 190.06 252.164 179.092 259.329 179.124C266.493 179.155 268.675 181.452 269.596 181.936C270.517 182.42 267.907 182.626 265.497 184.402C263.087 186.178 262.793 188.706 257.83 188.969C252.867 189.233 250.627 192.463 250.627 192.463L250.7 190.06Z" fill="#5554ED"/>
<path d="M250.627 192.463C250.627 192.463 254.305 181.463 265.315 182.271" stroke="#1A2E9D" stroke-width="0.5" stroke-miterlimit="10" stroke-linecap="round"/>
<path d="M252.119 181.773C252.119 181.773 254.778 171.014 248.063 168.615C241.348 166.216 238.463 167.626 237.423 167.767C236.384 167.908 238.751 168.985 240.353 171.463C241.955 173.942 241.302 176.407 245.849 178.336C250.396 180.265 251.305 184.046 251.305 184.046L252.119 181.773Z" fill="#5554ED"/>
<path d="M251.304 184.045C251.304 184.045 251.905 172.506 241.306 169.531" stroke="#1A2E9D" stroke-width="0.5" stroke-miterlimit="10" stroke-linecap="round"/>
<path d="M79.491 62.9258C79.491 61.5167 78.3021 60.3749 76.835 60.3749H37.6364C36.1693 60.3749 34.9804 61.5167 34.9804 62.9258V83.2689C34.9804 84.6779 36.1693 85.8197 37.6364 85.8197H69.9424L72.9829 89.7994C73.9301 91.0395 75.5684 90.9245 76.3182 89.5657L78.9465 84.8005C79.2833 84.3726 79.491 83.8459 79.491 83.2681V62.9258Z" fill="#5554ED"/>
<path d="M72.05 69.4906H42.0512C41.5828 69.4906 41.2031 69.126 41.2031 68.6761C41.2031 68.2262 41.5828 67.8616 42.0512 67.8616H72.05C72.5184 67.8616 72.8981 68.2262 72.8981 68.6761C72.8981 69.1252 72.5184 69.4906 72.05 69.4906Z" fill="white"/>
<path d="M62.9326 73.3059H42.0512C41.5828 73.3059 41.2031 72.9413 41.2031 72.4914C41.2031 72.0415 41.5828 71.6769 42.0512 71.6769H62.9326C63.401 71.6769 63.7807 72.0415 63.7807 72.4914C63.7807 72.9413 63.401 73.3059 62.9326 73.3059Z" fill="white"/>
<path d="M67.9981 77.2019H42.0512C41.5828 77.2019 41.2031 76.8373 41.2031 76.3874C41.2031 75.9375 41.5828 75.5729 42.0512 75.5729H67.9981C68.4666 75.5729 68.8462 75.9375 68.8462 76.3874C68.847 76.8373 68.4666 77.2019 67.9981 77.2019Z" fill="white"/>
<g opacity="0.35">
<path d="M188.79 194.325C188.865 206.759 178.43 216.897 165.484 216.97C152.536 217.041 141.981 207.02 141.907 194.585C141.832 182.15 152.266 172.013 165.213 171.941C178.16 171.87 188.716 181.891 188.79 194.325Z" fill="#5554ED"/>
</g>
<path d="M187.015 194.124C187.739 181.582 177.739 170.853 164.681 170.158C151.623 169.464 140.451 179.067 139.728 191.608C139.005 204.149 149.004 214.879 162.062 215.574C175.12 216.268 186.292 206.665 187.015 194.124Z" fill="#5554ED"/>
<path d="M180.99 192.417C181.047 201.966 173.035 209.75 163.092 209.805C153.15 209.86 145.045 202.165 144.988 192.616C144.931 183.067 152.942 175.283 162.885 175.228C172.827 175.173 180.933 182.868 180.99 192.417Z" fill="#5554ED"/>
<path d="M181.502 193.134C181.559 202.554 173.654 210.234 163.845 210.288C154.037 210.342 146.04 202.751 145.984 193.33C145.928 183.91 153.832 176.23 163.641 176.176C173.449 176.122 181.445 183.714 181.502 193.134Z" fill="#FF725E"/>
<path d="M181.502 193.134C181.559 202.554 173.654 210.234 163.845 210.288C154.037 210.342 146.04 202.751 145.984 193.33C145.928 183.91 153.832 176.23 163.641 176.176C173.449 176.122 181.445 183.714 181.502 193.134Z" fill="#4C4CD5"/>
<path d="M164.441 191.75L164.415 187.387C164.422 187.386 164.43 187.387 164.438 187.387C165.227 187.47 166.046 187.668 166.856 187.978C167.533 188.31 167.991 188.657 167.991 188.657L168.05 188.522L168.741 186.947L168.901 186.585L168.086 185.773L167.698 185.944C166.701 185.472 165.568 185.103 164.401 185.049L164.387 182.649L163.605 182.051L163.609 182.654L162.542 182.66L162.557 185.102C159.047 185.446 157.393 187.379 157.405 189.585C157.424 192.59 160.107 193.353 162.609 193.923L162.635 198.247C160.923 198.105 159.231 197.487 158.123 196.628L157.123 198.817C158.3 199.784 160.443 200.464 162.649 200.581L162.66 202.393L161.781 202.413L162.664 202.981L164.51 202.971L164.495 200.549C168.027 200.184 169.704 198.272 169.691 196.066C169.672 193.062 166.944 192.32 164.441 191.75ZM162.593 191.306C161.285 190.946 160.314 190.476 160.308 189.438C160.302 188.488 160.973 187.705 162.57 187.458L162.593 191.306ZM164.416 187.383C164.415 187.383 164.415 187.383 164.416 187.383V187.383ZM164.48 198.193L164.457 194.367C165.81 194.727 166.803 195.218 166.81 196.277C166.816 197.207 166.122 197.946 164.48 198.193Z" fill="#5554ED"/>
<path d="M163.727 199.961L163.742 202.383L161.896 202.393L161.881 199.993C159.674 199.875 157.531 199.195 156.354 198.228L157.355 196.039C158.463 196.897 160.155 197.515 161.868 197.657L161.842 193.333C159.339 192.762 156.656 191.999 156.637 188.994C156.624 186.788 158.279 184.854 161.789 184.511L161.774 182.067L163.62 182.057L163.634 184.457C165.301 184.534 166.992 185 168.213 185.751L167.303 187.939C166.106 187.276 164.842 186.915 163.648 186.792L163.674 191.16C166.176 191.73 168.905 192.472 168.924 195.478C168.938 197.683 167.26 199.595 163.727 199.961ZM161.826 190.716L161.803 186.867C160.206 187.114 159.535 187.897 159.541 188.848C159.547 189.886 160.518 190.356 161.826 190.716ZM166.043 195.688C166.037 194.628 165.043 194.136 163.69 193.776L163.713 197.604C165.356 197.357 166.05 196.618 166.043 195.688Z" fill="white"/>
<path d="M181.307 185.811C186.634 185.811 190.953 181.663 190.953 176.547C190.953 171.431 186.634 167.283 181.307 167.283C175.979 167.283 171.661 171.431 171.661 176.547C171.661 181.663 175.979 185.811 181.307 185.811Z" fill="#E4F1FF"/>
<path d="M178.047 176.35L179.342 179.138C179.473 179.421 179.863 179.482 180.08 179.255L184.918 174.205" stroke="#5554ED" stroke-width="1.5236" stroke-miterlimit="10" stroke-linecap="round"/>
<path d="M181.28 184.2C185.696 184.2 189.276 180.762 189.276 176.521C189.276 172.28 185.696 168.842 181.28 168.842C176.864 168.842 173.284 172.28 173.284 176.521C173.284 180.762 176.864 184.2 181.28 184.2Z" stroke="white" stroke-width="0.5" stroke-miterlimit="10"/>
<path d="M53.8437 105.429C53.8437 105.429 56.7677 97.6554 69.0967 101.019C77.3153 103.261 82.0924 109.525 81.5486 118.726C80.9748 128.446 87.3719 125.462 83.6475 139.509C81.1293 149.006 93.093 156.83 82.2097 171.747C73.3974 183.824 23.5596 176.867 24.0606 156.028C24.2968 146.187 32.8538 150.788 33.3698 134.916C33.5885 128.178 46.952 130.426 45.1543 120.208C44.2587 115.119 48.5015 104.783 53.8437 105.429Z" fill="#2E2C2C"/>
<path d="M68.9366 135.673C68.9366 135.673 72.3258 137.671 71.4841 142.03C70.6423 146.389 70.269 150.502 74.1464 153.684" stroke="#463D3E" stroke-width="0.5" stroke-miterlimit="10" stroke-linecap="round"/>
<path d="M78.0017 125.532C78.8347 129.037 80.4104 131.379 78.2347 136.136C73.6415 146.179 82.8192 148.271 78.4138 157.468C76.8342 160.764 76.1969 163.611 75.8711 166.095" stroke="#463D3E" stroke-width="0.5" stroke-miterlimit="10" stroke-linecap="round"/>
<path d="M79.9602 175.207L95.7007 175.209L90.8753 170.15L80.5484 171.649L79.9602 175.207Z" fill="#F7C2A0"/>
<path d="M51.3573 131.175C51.3573 131.175 46.8481 133.577 47.4529 138.135C48.2685 144.284 41.8983 145.244 43.4835 149.091" stroke="#463D3E" stroke-width="0.5" stroke-miterlimit="10" stroke-linecap="round"/>
<path d="M49.3314 114.735C49.3314 114.735 47.5068 118.562 47.9847 122.42C48.9636 130.33 37.783 130.499 37.699 138.481C37.6467 143.47 33.3119 146.517 30.4973 149.412" stroke="#463D3E" stroke-width="0.5" stroke-miterlimit="10" stroke-linecap="round"/>
<path d="M126.186 265.902L126.154 275.124L117.294 275.192L115.891 267.674L126.186 265.902Z" fill="#E8977B"/>
<path d="M99.7057 268.793L98.8386 278.853L89.2615 279.687L87.6953 272.121L99.7057 268.793Z" fill="#E8977B"/>
<path d="M60.1751 200.71C70.357 205.96 91.5561 216.361 103.582 218.457C104.569 218.629 105.339 219.371 105.485 220.325L112.812 268.246C112.942 269.103 113.576 269.81 114.441 270.056C117.225 270.846 123.533 271.857 128.416 266.846C128.863 266.389 129.1 265.778 129.055 265.152C128.547 258.082 125.191 212.396 122.775 206.404C120.315 200.303 85.9603 193.889 81.7745 193.128C81.4987 193.078 81.2173 193.077 80.9407 193.124L60.8615 196.561C58.6992 196.93 58.2395 199.712 60.1751 200.71Z" fill="#556BFF"/>
<path d="M45.4294 203.794C45.4769 203.806 37.1965 218.787 78.6691 222.307C79.5837 222.385 80.2638 223.159 80.3573 224.037L85.5117 272.38C85.5933 273.146 86.1307 273.79 86.89 274.037C89.485 274.877 95.6722 276.131 101.235 271.526C101.725 271.12 102.016 270.537 101.999 269.915C101.797 262.854 100.408 217.046 98.2513 210.961C96.1763 205.107 65.6338 197.842 58.7959 196.283C57.9788 196.096 57.133 196.411 56.6551 197.074L45.4294 203.794Z" fill="#556BFF"/>
<path d="M43.5096 142.414C56.4554 138.716 72.1427 141.926 74.7132 142.666C77.6466 143.511 81.3132 146.892 85.2731 154.499C89.233 162.106 89.233 162.106 89.233 162.106L81.3132 164.36V193.377C74.2423 199.146 65.736 203.057 56.6234 204.729L45.9239 206.567C44.8864 206.745 43.9424 205.96 43.9781 204.948L45.2035 168.025L31.7632 168.705C31.7632 168.705 31.1394 145.95 43.5096 142.414Z" fill="#FFFEFC"/>
<path d="M70.2817 169.228L46.1498 175.602L45.2035 168.025L33.9864 168.511C33.9864 168.511 31.4588 187.229 38.1286 187.63C48.2297 188.236 74.2598 175.956 74.2598 175.956L70.2817 169.228Z" fill="#F7C2A0"/>
<path d="M66.4082 110.864C67.7604 110.341 69.7229 110.759 70.72 111.751C73.4576 114.475 76.8706 119.234 75.7134 125.312C74.3755 132.339 72.6405 136.714 68.6069 136.642C67.2975 136.618 66.7268 137.616 66.6848 138.795L66.4359 142.469C65.2438 148.895 55.4567 149.824 52.6572 143.777L52.1982 142.786C51.8622 142.06 51.8749 141.234 52.2307 140.517C53.4101 138.142 56.2818 134.101 53.0654 125.137C52.845 124.523 51.8638 122.426 52.4891 120.951C53.0225 119.692 54.7267 119.506 55.8102 120.381C56.0487 120.573 56.3721 120.608 56.9777 120.203C59.0749 118.802 59.2596 113.634 66.4082 110.864Z" fill="#F7C2A0"/>
<path d="M67.2785 110.681C67.2785 110.681 67.3918 113.05 71.4999 115.084C76.5243 117.572 73.4331 120.55 75.757 124.071C78.2046 127.779 76.0788 120.714 76.0788 120.714L75.3663 112.656C73.9475 107.427 71.8653 104.009 66.642 105.055C63.8401 105.617 61.131 106.63 59.6765 108.437C55.8458 113.196 55.0081 124.038 55.0081 124.038C55.0081 124.038 59.2184 124.118 61.4322 119.037C63.9368 113.293 63.6428 112.369 67.2785 110.681Z" fill="#2E2C2C"/>
<path d="M91.1551 175.732H81.547C80.7584 175.732 80.1188 175.118 80.1188 174.361V154.342C80.1188 153.585 80.7584 152.97 81.547 152.97H91.1551C91.9437 152.97 92.5834 153.585 92.5834 154.342V174.361C92.5834 175.118 91.9437 175.732 91.1551 175.732Z" fill="#1C004F"/>
<path d="M99.4387 168.212C96.831 164.717 93.1897 158.148 91.9509 158.013C91.2859 157.941 91.0695 158.503 91.3635 159.83C92.2386 163.773 93.6526 164.543 89.8092 163.91C89.2544 163.818 86.4351 163.291 84.8911 163.001C83.7561 162.788 82.7613 163.873 83.2218 164.892C83.3471 165.17 83.5523 165.472 83.8654 165.798C83.8654 165.798 82.9571 168.253 85.388 168.863C85.388 168.863 85.6734 171.652 87.5011 171.777C87.5011 171.777 89.447 172.939 93.5432 174.566C95.4066 175.762 97.9097 175.41 99.338 173.751L99.6503 173.388C100.963 171.862 100.872 169.633 99.4387 168.212Z" fill="#F7C2A0"/>
<path d="M84.2911 165.827C85.6377 166.233 87.704 166.841 88.9912 166.783" stroke="#F18884" stroke-width="0.5" stroke-miterlimit="10" stroke-linecap="round"/>
<path d="M85.7138 168.914C85.7138 168.914 88.0924 169.789 89.7878 169.667" stroke="#F18884" stroke-width="0.5" stroke-miterlimit="10" stroke-linecap="round"/>
<path d="M70.2817 169.228L73.2112 167.188C75.325 163.146 79.2199 155.823 79.9269 156.177C80.7053 156.566 80.9122 157.384 80.3859 158.989C79.1248 162.835 79.7462 164.721 82.0179 164.555C82.7994 164.499 89.5136 164.46 89.5136 164.46C89.5136 164.46 91.121 165.841 88.9841 167.405C88.9841 167.405 89.4359 169.974 86.9312 170.169C86.9312 170.169 86.1466 172.869 84.3236 172.688C84.3236 172.688 82.197 173.508 77.8693 174.429L74.2582 175.956L70.2817 169.228Z" fill="#F7C2A0"/>
<path d="M88.5601 167.362C87.1611 167.537 85.0155 167.792 83.7592 167.52" stroke="#F18884" stroke-width="0.5" stroke-miterlimit="10" stroke-linecap="round"/>
<path d="M86.6015 170.166C86.6015 170.166 84.1008 170.632 82.4538 170.229" stroke="#F18884" stroke-width="0.5" stroke-miterlimit="10" stroke-linecap="round"/>
<path d="M79.9269 156.176C80.7053 156.565 80.9121 157.383 80.3859 158.988C79.1248 162.834 79.7462 164.72 82.0178 164.555C82.7994 164.498 89.5136 164.459 89.5136 164.459C89.5136 164.459 91.121 165.84 88.9841 167.404C88.9841 167.404 89.4359 169.973 86.9312 170.169C86.9312 170.169 86.1465 172.868 84.3235 172.687C84.3235 172.687 82.197 173.507 77.8693 174.428" stroke="#F18884" stroke-width="0.5" stroke-miterlimit="10" stroke-linecap="round"/>
<path d="M87.5019 171.777C88.4546 172.227 91.9619 173.938 93.544 174.566" stroke="#F18884" stroke-width="0.5" stroke-miterlimit="10" stroke-linecap="round"/>
<path d="M127.033 273.534C127.033 273.534 124.198 275.738 116.199 274.56C116.199 274.56 115.635 279.367 113.458 281.88C111.279 284.393 117.591 287.428 122.325 286.019C127.06 284.61 130.596 287.964 135.276 287.419C139.956 286.873 146.706 281.983 144.203 280.524C141.701 279.066 132.806 279.121 130.59 275.782C129.284 273.814 127.033 273.534 127.033 273.534Z" fill="#1C004F"/>
<path d="M133 285.549C137.289 286.773 142.08 281.992 142.08 281.992" stroke="white" stroke-width="0.5" stroke-miterlimit="10" stroke-linecap="round"/>
<path d="M115.406 282.679C115.406 282.679 117.108 284.631 121.021 284.244C124.934 283.858 128.711 284.325 132.999 285.549" stroke="white" stroke-width="0.5" stroke-miterlimit="10" stroke-linecap="round"/>
<path d="M99.9229 277.019C99.9229 277.019 95.4653 280.063 87.5479 278.457C87.5479 278.457 87.6549 283.03 85.3341 285.422C83.0134 287.814 89.1379 291.184 93.9474 290.031C98.757 288.878 102.092 292.417 106.796 292.123C111.501 291.829 118.525 287.309 116.111 285.719C113.698 284.129 103.937 283.064 101.918 279.611C100.727 277.575 99.9229 277.019 99.9229 277.019Z" fill="#1C004F"/>
<path d="M104.633 290.135C108.843 291.587 113.905 287.071 113.905 287.071" stroke="white" stroke-width="0.5" stroke-miterlimit="10" stroke-linecap="round"/>
<path d="M87.2332 286.325C87.2332 286.325 88.8192 288.365 92.7482 288.189C96.6772 288.013 100.421 288.682 104.633 290.135" stroke="white" stroke-width="0.5" stroke-miterlimit="10" stroke-linecap="round"/>
<path d="M99.5718 220.042C99.1731 215.628 98.7316 212.314 98.2521 210.961C97.0616 207.604 86.5056 203.781 76.4292 200.838" stroke="white" stroke-width="0.5" stroke-miterlimit="10" stroke-linecap="round"/>
<path d="M99.292 243.856C98.9861 236.937 98.608 229.656 98.1657 223.513" stroke="white" stroke-width="0.5" stroke-miterlimit="10" stroke-linecap="round"/>
<path d="M90.9316 273.081C93.5432 272.955 96.5591 272.134 99.4109 269.774C99.9015 269.367 100.192 268.785 100.175 268.163C100.11 265.886 99.9213 259.578 99.6233 251.872" stroke="white" stroke-width="0.5" stroke-miterlimit="10" stroke-linecap="round"/>
<path d="M87.9418 210.661C87.9418 210.661 88.201 217.016 95.8568 219.259" stroke="white" stroke-width="0.5" stroke-miterlimit="10"/>
<path d="M114.151 205.302C114.151 205.302 115.708 211.159 122.195 214.399" stroke="white" stroke-width="0.5" stroke-miterlimit="10"/>
<path d="M115.891 267.675C115.891 267.675 121.935 267.856 126.866 264.243" stroke="white" stroke-width="0.5" stroke-miterlimit="10"/>
<path d="M50.6931 143.601C50.6931 143.601 52.0556 151.223 62.2359 149.235" stroke="#315782" stroke-width="0.5" stroke-miterlimit="10" stroke-linecap="round"/>
<path d="M67.5876 144.135C67.5876 144.135 67.6764 146.259 64.7572 147.958" stroke="#315782" stroke-width="0.5" stroke-miterlimit="10" stroke-linecap="round"/>
<path d="M33.621 166.889L42.0402 166.818" stroke="#315782" stroke-width="0.5" stroke-miterlimit="10" stroke-linecap="round"/>
<path d="M45.278 167.869L46.1625 162.46" stroke="#315782" stroke-width="0.5" stroke-miterlimit="10" stroke-linecap="round"/>
<path d="M58.0707 201.162C54.8519 201.998 51.2423 202.7 47.2389 203.159" stroke="#315782" stroke-width="0.5" stroke-miterlimit="10" stroke-linecap="round"/>
<path d="M78.2157 191.804C78.2157 191.804 73.3657 196.082 63.5088 199.516" stroke="#315782" stroke-width="0.5" stroke-miterlimit="10" stroke-linecap="round"/>
<path d="M65.3247 194.904C63.1949 195.68 60.9701 196.213 58.7967 196.282" stroke="#315782" stroke-width="0.5" stroke-miterlimit="10" stroke-linecap="round"/>
<path d="M78.0976 187.375C78.0976 187.375 74.4056 190.522 69.4558 193.077" stroke="#315782" stroke-width="0.5" stroke-miterlimit="10" stroke-linecap="round"/>
<path d="M59.5267 206.424C59.5267 206.424 62.2517 212.031 57.7101 216.143" stroke="white" stroke-width="0.5" stroke-miterlimit="10"/>
</svg>
