<svg width="336" height="297" viewBox="0 0 336 297" fill="none" xmlns="http://www.w3.org/2000/svg">
<path d="M66.9097 258.915C122.387 286.274 212.335 286.275 267.812 258.916C323.29 231.556 323.29 187.197 267.812 159.837C212.335 132.478 122.387 132.478 66.9083 159.837C11.4307 187.197 11.4307 231.556 66.9097 258.915Z" fill="#E4F1FF"/>
<path d="M172.82 198.528C196.354 198.528 215.432 188.13 215.432 175.303C215.432 162.477 196.354 152.079 172.82 152.079C149.287 152.079 130.209 162.477 130.209 175.303C130.209 188.13 149.287 198.528 172.82 198.528Z" fill="#E4F1FF"/>
<path d="M252.788 240.882C264.6 240.882 274.176 235.663 274.176 229.226C274.176 222.788 264.6 217.569 252.788 217.569C240.976 217.569 231.401 222.788 231.401 229.226C231.401 235.663 240.976 240.882 252.788 240.882Z" fill="#E4F1FF"/>
<path d="M118.226 216.23C141.76 216.23 160.838 205.832 160.838 193.005C160.838 180.178 141.76 169.781 118.226 169.781C94.6926 169.781 75.6148 180.178 75.6148 193.005C75.6148 205.832 94.6926 216.23 118.226 216.23Z" fill="#E4F1FF"/>
<path d="M104.099 80.4087C102.442 80.4087 100.953 81.8164 100.953 85.8726C100.953 89.9288 100.615 93.1831 103.25 93.1831L104.099 80.4087Z" fill="#5554ED"/>
<path opacity="0.1" d="M104.099 80.4087C102.442 80.4087 100.953 81.8164 100.953 85.8726C100.953 89.9288 100.615 93.1831 103.25 93.1831L104.099 80.4087Z" fill="black"/>
<path d="M108.485 110.471L122.548 109.557C125.439 109.076 127.783 106.473 127.783 103.744V80.0484C127.783 77.3193 126.047 75.8926 122.548 75.9783L108.485 76.8918C105.594 77.3732 103.25 79.9755 103.25 82.7046V106.4C103.25 109.13 105.594 110.952 108.485 110.471Z" fill="#5554ED"/>
<path d="M140.109 100.739C141.599 104.088 146.288 109.159 147.44 110.397C148.297 111.317 150.35 113.087 151.014 114.138C152.035 115.75 156.834 119.594 155.473 120.945C153.035 123.367 149.634 120.916 148.333 119.946C146.552 118.618 144.489 116.717 142.886 115.2C139.73 112.214 136.681 108.483 134.83 105.973C133.817 104.599 128.203 91.4811 128.058 88.2838C128.003 87.0703 127.806 79.3423 129.463 78.7942C132.775 79.0118 134.178 80.297 134.83 81.9458C135.477 83.5818 135.81 85.6334 136.28 87.3228C137.275 90.9038 139.576 99.5428 140.109 100.739Z" fill="#B16668"/>
<path d="M92.9302 174.543C91.9 174.043 91.2455 175.278 90.3114 176.268C89.6562 176.963 88.6348 178.063 88.4836 178.855C88.2598 180.026 89.3787 181.871 90.6178 182.889C91.857 183.905 93.2951 184.634 93.7453 186.864C94.1956 189.093 95.1128 190.419 97.5609 191.415C100.244 192.508 103.837 192.158 105.056 191.415C106.5 190.535 105.181 189.569 103.158 186.835C100.518 183.269 98.4621 180.721 98.4614 177.394L92.9302 174.543Z" fill="#263238"/>
<path d="M95.0409 171.622L92.873 174.622C91.9336 175.922 92.2259 177.734 93.6049 178.618C93.627 178.632 93.6492 178.646 93.6721 178.66C94.9912 179.467 96.7599 179.146 97.8223 178.051L101.206 174.565L95.0409 171.622Z" fill="#B16668"/>
<path d="M129.271 194.544L134.634 193.393L132.858 186.02L127.495 187.171L129.271 194.544Z" fill="#B16668"/>
<path d="M134.032 190.889L133.858 190.165C134.422 190.266 136.829 194.04 139.218 195.68C141.834 197.475 144.104 198.537 145.273 199.347C146.836 200.43 144.573 202.647 140.725 202.845C138.816 202.942 135.338 202.394 134.266 201.434C133.195 200.475 132.419 198.886 131.57 198.195C130.721 197.505 129.002 196.901 128.419 196.016C128.099 195.53 128.05 194.327 128.086 193.293C128.119 192.345 128.152 191.302 128.496 191.317C128.523 191.426 128.629 191.869 128.629 191.869C129.117 192.192 130.645 192.603 131.891 192.548C132.795 192.507 134.481 192.308 134.032 190.889Z" fill="#263238"/>
<path d="M134.02 112.837C134.157 116.66 134.87 132.445 131.916 139.76C129.15 146.609 126.647 150.273 125.767 151.696C124.886 153.118 99.5185 176.432 99.5185 176.432C99.5185 176.432 95.2143 176.134 94.5295 172.194C94.5295 172.194 104.924 155.513 107.174 152.092C109.424 148.671 117.397 143.425 117.397 143.425L116.672 109.512L134.02 112.837Z" fill="#5554ED"/>
<path opacity="0.3" d="M134.02 112.837C134.157 116.66 134.87 132.445 131.916 139.76C129.15 146.609 126.647 150.273 125.767 151.696C124.886 153.118 99.5185 176.432 99.5185 176.432C99.5185 176.432 95.2143 176.134 94.5295 172.194C94.5295 172.194 104.924 155.513 107.174 152.092C109.424 148.671 117.397 143.425 117.397 143.425L116.672 109.512L134.02 112.837Z" fill="black"/>
<path d="M125.079 124.509C125.079 124.509 127.165 122.852 129.982 119.177C134.082 113.83 133.451 109.082 133.451 109.082H131.772L109.59 109.511C107.39 112.913 106.912 118.074 107.654 123.099C109.196 133.531 118.35 153.431 118.35 153.431C118.222 154.857 117.582 160.854 119.025 166.17C121.299 174.557 127.497 188.751 127.497 188.751C127.497 188.751 131.379 189.274 133.308 187.153C133.308 187.153 129.876 158.337 128.951 150.953C127.951 142.965 125.079 124.509 125.079 124.509Z" fill="#5554ED"/>
<path opacity="0.3" d="M125.079 124.509C125.079 124.509 127.165 122.852 129.982 119.177C134.082 113.83 133.451 109.082 133.451 109.082H131.772L109.59 109.511C107.39 112.913 106.912 118.074 107.654 123.099C109.196 133.531 118.35 153.431 118.35 153.431C118.222 154.857 117.582 160.854 119.025 166.17C121.299 174.557 127.497 188.751 127.497 188.751C127.497 188.751 131.379 189.274 133.308 187.153C133.308 187.153 129.876 158.337 128.951 150.953C127.951 142.965 125.079 124.509 125.079 124.509Z" fill="black"/>
<path opacity="0.3" d="M128.273 146.064C128.273 146.064 125.688 126.882 125.079 124.509C125.079 124.509 129.636 122.87 131.037 121.367C131.037 121.367 130.037 123.469 126.777 125.337L128.273 146.064Z" fill="black"/>
<path opacity="0.3" d="M117.316 153.896C116.602 156.398 116.671 160.525 116.671 160.525L118.112 159.339C118.073 158.346 118.349 153.431 118.349 153.431C117.242 152.005 114.808 145.226 114.808 145.226L117.316 153.896Z" fill="black"/>
<path d="M132.775 97.3187C133.122 100.352 134.019 112.837 134.019 112.837C123.407 118.183 110.245 114.642 108.23 112.438C110.055 106.768 112.688 104.373 114.189 102.864L110.75 93.808C110.75 93.808 110.34 92.8818 110.348 92.8736C110.578 92.5025 115.376 87.3983 110.822 79.2909L117.013 78.7568L126.08 78.5094C128.056 78.6141 129.463 78.7936 129.463 78.7936C130.73 79.9114 132.725 82.9849 134.019 86.1111C134.854 88.1272 135.755 91.3473 132.775 97.3187Z" fill="#37474F"/>
<path d="M112.138 97.4608L118.107 104.693L114.192 102.864L112.138 97.4608Z" fill="#263238"/>
<path d="M99.7618 121.013C99.9963 123.187 100.261 126.123 100.719 127.792C102.31 133.587 104.35 135.322 107.066 135.494C111.402 135.767 111.43 134.235 109.484 131.598C108.047 129.652 107.549 127.83 107.549 127.83C108.402 128.435 109.088 128.897 109.631 129.098C110.712 129.496 111.403 128.951 111.586 128.597C111.727 128.322 110.976 128.045 110.146 127.089C109.084 125.867 108.541 124.895 107.083 123.882C106.54 123.505 106.37 122.809 106.205 122.191C105.984 121.367 105.833 108.229 106.619 105.509L110.349 92.8737C113.383 90.9071 115.435 81.3591 110.822 79.291C104.973 79.8918 104.516 84.9192 99.796 101.424C98.9601 104.346 99.2766 116.519 99.7618 121.013Z" fill="#B16668"/>
<path d="M113.346 79.0734C113.346 79.0734 114.815 79.8302 115.123 83.8496C115.517 89.0052 112.915 95.1834 110.086 97.4608V102.002C110.086 102.002 115.559 97.7069 117.404 92.3084C119.248 86.9098 119.391 81.6356 117.014 78.7581C117.013 78.7575 114.944 78.2639 113.346 79.0734Z" fill="#5554ED"/>
<path opacity="0.2" d="M113.346 79.0734C113.346 79.0734 114.815 79.8302 115.123 83.8496C115.517 89.0052 112.915 95.1834 110.086 97.4608V102.002C110.086 102.002 115.559 97.7069 117.404 92.3084C119.248 86.9098 119.391 81.6356 117.014 78.7581C117.013 78.7575 114.944 78.2639 113.346 79.0734Z" fill="black"/>
<path d="M126.047 78.4853C126.047 78.4853 131.135 80.2444 133.121 84.161C133.121 84.161 133.305 81.0443 130.754 79.2916C128.201 77.5388 126.047 78.4853 126.047 78.4853Z" fill="#5554ED"/>
<path opacity="0.2" d="M126.047 78.4853C126.047 78.4853 131.135 80.2444 133.121 84.161C133.121 84.161 133.305 81.0443 130.754 79.2916C128.201 77.5388 126.047 78.4853 126.047 78.4853Z" fill="black"/>
<path d="M135.755 77.5388H124.507C116.299 77.5388 109.644 71.2572 109.644 63.5077C109.644 56.7008 115.489 51.183 122.7 51.183C129.91 51.183 135.755 56.7008 135.755 63.5077V77.5388Z" fill="#263238"/>
<path d="M131.092 56.551C132.471 57.3205 134.176 60.5945 134.008 67.4585C133.865 73.2757 131.868 74.7132 130.865 75.1275C129.862 75.5417 127.927 75.2899 126.047 74.9936V78.4852C126.047 78.4852 128.646 81.3349 128.482 82.936C128.319 84.5372 124.729 84.9153 122.297 83.3515C119.865 81.7878 117.816 78.739 117.816 78.739L117.859 70.711C117.859 70.711 116.752 71.726 114.875 70.1768C113.326 68.8979 112.804 66.7417 114.011 65.5852C115.218 64.4281 117.449 64.7434 118.305 66.3927C118.305 66.3927 121.304 66.4962 125.298 64.4249C129.293 62.3537 130.827 58.8062 131.092 56.551Z" fill="#B16668"/>
<path d="M127.128 65.997C127.15 66.4163 126.822 66.7716 126.394 66.7906C125.967 66.8096 125.602 66.4855 125.58 66.0661C125.558 65.6468 125.886 65.2916 126.314 65.2725C126.741 65.2535 127.105 65.5783 127.128 65.997Z" fill="#263238"/>
<g opacity="0.5">
<path d="M127.335 70.9286L129.134 71.471C128.985 71.9569 128.461 72.2303 127.964 72.0806C127.466 71.9303 127.185 71.4145 127.335 70.9286Z" fill="#9A4A4D"/>
</g>
<path d="M133.481 63.7506L131.914 62.7248C132.2 62.3023 132.782 62.1894 133.216 62.473C133.648 62.7559 133.768 63.3281 133.481 63.7506Z" fill="#263238"/>
<path d="M133.12 65.4679C133.142 65.8873 132.814 66.2425 132.386 66.2615C131.959 66.2806 131.594 65.9564 131.572 65.5371C131.549 65.1178 131.877 64.7625 132.305 64.7435C132.733 64.7244 133.098 65.0492 133.12 65.4679Z" fill="#263238"/>
<g opacity="0.5">
<path d="M129.464 65.0492L129.587 69.453L132.043 68.7349L129.464 65.0492Z" fill="#9A4A4D"/>
</g>
<g opacity="0.5">
<path d="M126.047 74.9937C124.065 74.7482 119.988 73.6425 119.353 72.1206C119.353 72.1206 119.564 73.0772 120.782 74.0624C122 75.0476 126.047 76.1584 126.047 76.1584V74.9937Z" fill="#9A4A4D"/>
</g>
<path d="M111.717 57.3739L108.69 55.8399C109.119 55.021 110.145 54.7006 110.981 55.1244C111.817 55.5481 112.147 56.5549 111.717 57.3739Z" fill="#263238"/>
<path d="M157.746 65.0492C155.778 65.0492 154.008 66.722 154.008 71.5408C154.008 76.3595 153.606 80.2267 156.737 80.2267L157.746 65.0492Z" fill="#455A64"/>
<path d="M162.957 100.765L179.664 98.5024C183.099 97.9309 185.883 94.8389 185.883 91.596V63.4442C185.883 60.2019 183.099 58.0368 179.664 58.6084L162.957 60.8706C159.522 61.4421 156.737 64.5341 156.737 67.777V95.9288C156.738 99.1711 159.522 101.336 162.957 100.765Z" fill="#37474F"/>
<path d="M148.526 162.598C147.496 162.097 146.841 163.333 145.907 164.323C145.252 165.017 144.231 166.118 144.079 166.909C143.856 168.081 144.975 169.926 146.214 170.943C147.453 171.96 148.891 172.688 149.341 174.918C149.791 177.148 150.709 178.473 153.157 179.47C155.84 180.562 159.433 180.213 160.652 179.47C162.096 178.59 160.778 177.623 158.755 174.89C156.114 171.323 154.059 168.776 154.058 165.448L148.526 162.598Z" fill="#263238"/>
<path d="M150.637 159.677L148.469 162.677C147.529 163.977 147.822 165.788 149.201 166.673C149.223 166.687 149.245 166.701 149.268 166.715C150.587 167.522 152.356 167.2 153.418 166.106L156.802 162.62L150.637 159.677Z" fill="#F28F8F"/>
<path d="M184.867 182.599L190.231 181.448L188.455 174.075L183.091 175.226L184.867 182.599Z" fill="#F28F8F"/>
<path d="M189.628 178.943L189.454 178.219C190.018 178.32 192.425 182.094 194.814 183.734C197.43 185.529 199.7 186.591 200.869 187.401C202.432 188.484 200.169 190.701 196.321 190.899C194.412 190.997 190.934 190.448 189.862 189.489C188.79 188.529 188.015 186.94 187.165 186.249C186.317 185.559 184.597 184.955 184.014 184.07C183.695 183.584 183.645 182.381 183.681 181.347C183.714 180.399 183.747 179.356 184.091 179.37C184.118 179.479 184.224 179.922 184.224 179.922C184.712 180.246 186.241 180.656 187.486 180.602C188.391 180.561 190.076 180.362 189.628 178.943Z" fill="#263238"/>
<path d="M192.082 98.3476C192.22 102.17 190.466 120.499 187.511 127.814C184.745 134.663 182.242 138.327 181.362 139.75C180.481 141.172 155.114 164.486 155.114 164.486C155.114 164.486 150.125 164.913 150.125 160.248C150.125 160.248 160.611 144.135 162.861 140.714C165.111 137.293 171.739 130.386 171.739 130.386L172.94 98.0615L192.082 98.3476Z" fill="#37474F"/>
<path d="M181.347 113.058C181.347 113.058 183.432 111.402 186.25 107.727C190.35 102.38 190.343 97.8199 190.343 97.8199L188.04 97.6315L163.727 99.147C163.727 103.043 163.455 106.594 163.922 111.649C164.881 122.018 172.412 141.812 172.412 141.812C172.284 143.239 173.178 148.909 174.619 154.226C176.893 162.613 183.091 176.806 183.091 176.806C183.091 176.806 186.974 177.329 188.903 175.208C188.903 175.208 185.471 146.392 184.546 139.009C183.546 131.019 181.347 113.058 181.347 113.058Z" fill="#37474F"/>
<path d="M183.869 134.118C183.869 134.118 181.957 115.432 181.347 113.059C181.347 113.059 185.905 111.42 187.305 109.917C187.305 109.917 186.305 112.019 183.045 113.887L183.869 134.118Z" fill="#263238"/>
<path d="M169.302 132.991L172.412 141.812C172.412 141.812 172.643 145.302 173.142 147.757L171.801 149.015C171.801 149.015 171.088 144.962 171.504 142.023L169.302 132.991Z" fill="#263238"/>
<path d="M190.243 91.0321C185.56 80.037 185.356 70.4059 184.399 67.5328L194.78 78.8952C194.78 78.8952 196.125 85.8448 197.809 90.6572C199.289 94.8859 201.258 100.147 203.32 103.346C203.685 103.913 204.272 104.319 204.944 104.513C206.747 105.034 207.635 105.812 209.124 106.667C210.29 107.336 211.128 107.364 211.09 107.681C211.041 108.087 210.56 108.847 209.354 108.809C208.747 108.789 207.904 108.558 206.844 108.241C206.844 108.241 207.999 109.869 210.121 111.313C212.997 113.27 213.529 114.785 209.169 115.928C206.437 116.644 203.799 115.602 200.12 110.427C199.06 108.936 197.395 106.581 196.379 104.517C193.731 99.1438 191.659 94.3562 190.243 91.0321Z" fill="#FFA8A7"/>
<path d="M182.781 60.9333C187.115 60.9752 191.38 61.8932 192.849 66.2494C194.282 70.5017 196.131 82.8378 196.131 82.8378C196.131 82.8378 194.307 85.119 188.231 84.746L182.781 60.9333Z" fill="#5554ED"/>
<path opacity="0.1" d="M182.781 60.9333C187.115 60.9752 191.38 61.8932 192.849 66.2494C194.282 70.5017 196.131 82.8378 196.131 82.8378C196.131 82.8378 194.307 85.119 188.231 84.746L182.781 60.9333Z" fill="black"/>
<path d="M192.161 70.6381C192.161 66.4011 189.667 61.3108 182.781 60.9327L173.883 61.1789C171.684 61.6788 169.24 62.112 166.941 62.8276L165.262 80.7856L163.533 100.935C167.573 105.085 183.485 105.785 192.308 99.7021C192.308 99.7021 192.161 74.8757 192.161 70.6381Z" fill="#5554ED"/>
<path d="M168.351 62.4255C168.351 62.4255 170.829 63.9118 171.107 69.743C171.525 78.5405 165.051 83.1778 165.051 83.1778L164.661 87.7802C164.661 87.7802 173.413 84.3489 175.274 73.2581C176.497 65.9735 173.277 61.3147 173.277 61.3147C171.836 60.5883 168.274 61.9294 168.351 62.4255Z" fill="#455A64"/>
<path d="M191.161 66.1125C191.161 66.1125 188.296 61.7404 182.955 60.9335C182.955 60.9335 185.267 60.3327 187.098 61.2792C187.098 61.2792 190.454 62.52 191.161 66.1125Z" fill="#455A64"/>
<path d="M169.081 46.4378L170.99 53.5543C171.4 55.0787 172.853 56.1463 174.518 56.1463H176.753V46.2196L169.081 46.4378Z" fill="#263238"/>
<path d="M192.287 45.5911C193.312 41.493 190.624 37.3864 186.283 36.4187C181.941 35.4511 177.591 37.9887 176.566 42.0868C175.541 46.1849 178.229 50.2915 182.571 51.2592C186.912 52.2269 191.262 49.6892 192.287 45.5911Z" fill="#263238"/>
<path d="M171.944 39.4946C171.944 39.4946 170.516 39.2637 169.403 40.3377C168.312 41.3908 168.538 43.3409 169.404 47.8221L172.777 48.1875L171.944 39.4946Z" fill="#263238"/>
<path d="M173.526 48.1894C173.026 48.4717 172.312 47.5639 171.694 46.9537C171.076 46.344 169.06 45.5105 168.055 47.5107C167.03 49.5489 168.634 52.238 170.171 52.8369C172.326 53.6768 173.28 51.905 173.28 51.905L173.883 61.1796C173.883 61.1796 175.674 65.3157 180.523 65.9361C185.372 66.5566 184.374 62.7826 182.781 60.9334L182.774 58.099C182.774 58.099 185.258 58.4898 186.46 58.2779C188.231 57.9658 189.1 56.4148 189.935 54.4311C191.179 51.4711 191.943 47.2829 190.868 41.9725C189.443 34.9322 181.189 34.7832 176.455 37.596C171.721 40.4088 173.526 48.1894 173.526 48.1894Z" fill="#FFA8A7"/>
<path d="M173.527 48.9849C173.275 48.9893 172.317 47.4897 171.694 46.9543C170.83 46.2127 171.945 39.4946 171.945 39.4946C172.384 33.9895 180.986 33.5708 183.363 33.4103C188.812 33.0411 192.519 35.8888 191.04 39.4743C190.052 41.1034 188.039 41.5519 186.151 41.7689C182.947 42.1368 177.488 40.5128 176.805 40.4253C175.877 40.3054 175.678 41.1554 175.177 43.4772C174.737 45.5149 174.373 48.969 173.527 48.9849Z" fill="#263238"/>
<path d="M171.949 40.0167L168.922 38.4828C169.351 37.6638 170.377 37.3434 171.213 37.7672C172.049 38.1909 172.379 39.1983 171.949 40.0167Z" fill="#263238"/>
<path d="M182.774 58.099C182.774 58.099 178.284 57.2451 176.714 56.4572C175.663 55.9301 174.799 55.0166 174.545 54.431C174.545 54.431 174.838 55.6884 175.777 56.8214C176.925 58.2068 182.773 59.2269 182.773 59.2269L182.774 58.099Z" fill="#F28F8F"/>
<path d="M182.916 48.0352C182.916 48.5231 182.514 48.917 182.016 48.9151C181.519 48.9138 181.117 48.518 181.117 48.0302C181.117 47.543 181.519 47.149 182.016 47.1503C182.514 47.1522 182.916 47.548 182.916 48.0352Z" fill="#263238"/>
<path d="M181.962 44.8284L180.037 45.8313C179.754 45.3092 179.954 44.6615 180.486 44.3843C181.018 44.1077 181.679 44.3069 181.962 44.8284Z" fill="#263238"/>
<path d="M182.367 53.7141L184.421 54.4417C184.218 54.9975 183.594 55.2855 183.026 55.0844C182.459 54.8833 182.164 54.2698 182.367 53.7141Z" fill="#F28F8F"/>
<path d="M190.472 45.5357L188.716 44.2594C189.075 43.7849 189.757 43.6859 190.242 44.0386C190.727 44.3913 190.83 45.0612 190.472 45.5357Z" fill="#263238"/>
<path d="M189.935 47.5449C189.935 48.0321 189.532 48.426 189.035 48.4247C188.538 48.4235 188.135 48.0276 188.135 47.5404C188.135 47.0526 188.538 46.6586 189.035 46.6605C189.532 46.6612 189.935 47.0577 189.935 47.5449Z" fill="#263238"/>
<path d="M186.161 47.6907L185.313 52.7429L188.278 52.4136L186.161 47.6907Z" fill="#F28F8F"/>
<path d="M164.041 81.4231C164.041 81.4231 159.863 90.8258 157.734 97.155C156.374 101.2 154.485 106.398 154.739 109.958C154.781 110.603 155.084 111.193 155.574 111.647C156.856 112.834 157.245 113.861 158.105 115.199C158.779 116.25 159.48 116.625 159.303 116.88C159.067 117.198 158.308 117.644 157.303 117.111C156.797 116.84 156.19 116.298 155.438 115.589C155.438 115.589 155.658 117.445 156.788 119.548C158.307 122.407 156.172 123.299 153.827 123.068C151.135 122.797 149.73 120.743 149.029 114.833C148.826 113.129 148.859 110.103 149.119 107.949C149.902 101.485 150.349 96.5847 151.191 93.2619C153.256 85.1006 155.86 76.7014 158.343 71.1018C159.58 68.3131 162.203 65.1177 164.801 64.791C169.681 73.2098 164.041 81.4231 164.041 81.4231Z" fill="#FFA8A7"/>
<path d="M166.941 62.8282C163.84 63.7938 161.004 65.2744 159.396 68.1272C156.237 73.7307 153.035 84.9966 153.035 84.9966C154.647 86.7811 160.04 88.3499 162.738 87.5785L165.262 80.7862L167.732 76.1584C167.732 76.1584 172.569 66.1841 166.941 62.8282Z" fill="#5554ED"/>
<path opacity="0.1" d="M166.941 62.8282C163.84 63.7938 161.004 65.2744 159.396 68.1272C156.237 73.7307 153.035 84.9966 153.035 84.9966C154.647 86.7811 160.04 88.3499 162.738 87.5785L165.262 80.7862L167.732 76.1584C167.732 76.1584 172.569 66.1841 166.941 62.8282Z" fill="black"/>
<path d="M155.438 115.589C154.324 115.316 153.226 114.675 152.785 115.754C152.344 116.834 152.719 118.997 153.719 119.98C154.719 120.963 157.509 121.671 158.176 121.121C158.843 120.571 157.438 116.079 155.438 115.589Z" fill="#B16668"/>
<path d="M273.746 146.405L263.775 140.999L263.773 141.001C259.014 137.995 252.406 138.123 245.098 142.106C230.603 150.006 218.852 170.065 218.852 186.909V190.743C218.852 207.587 242.841 225.89 242.841 225.89L252.65 231.127C252.65 231.127 246.758 224.785 247.429 223.484C253.853 211.037 271.345 175.883 271.345 162.132V158.299C271.345 155.225 270.95 152.475 270.222 150.075L271.346 150.688L273.746 146.405ZM245.099 185.021C237.852 188.971 231.976 185.769 231.976 177.868C235.877 177.289 245.687 161.481 245.098 156.411C252.346 152.461 258.222 155.663 258.222 163.564C258.222 171.464 252.347 181.071 245.099 185.021Z" fill="#5554ED"/>
<g opacity="0.2">
<path d="M273.746 146.405L263.775 140.999L263.773 141.001C259.014 137.995 252.406 138.123 245.098 142.106C230.603 150.006 218.852 170.065 218.852 186.909V190.743C218.852 207.587 242.841 225.89 242.841 225.89L252.65 231.127C252.65 231.127 246.758 224.785 247.429 223.484C253.853 211.037 271.345 175.883 271.345 162.132V158.299C271.345 155.225 270.95 152.475 270.222 150.075L271.346 150.688L273.746 146.405ZM245.099 185.021C237.852 188.971 231.976 185.769 231.976 177.868C235.877 177.289 245.687 161.481 245.098 156.411C252.346 152.461 258.222 155.663 258.222 163.564C258.222 171.464 252.347 181.071 245.099 185.021Z" fill="black"/>
</g>
<path d="M281.843 164.022C281.843 147.178 270.092 139.928 255.597 147.828C241.101 155.729 229.351 175.788 229.351 192.632V196.466C229.351 209.436 244.915 224.485 252.073 230.721C253.818 232.242 256.611 231.755 257.653 229.74C263.836 217.795 281.844 181.808 281.844 167.856V164.022H281.843ZM255.597 190.743C248.35 194.694 242.474 191.491 242.474 183.591C242.474 175.69 248.349 166.083 255.596 162.134C262.844 158.183 268.72 161.386 268.72 169.286C268.721 177.186 262.845 186.793 255.597 190.743Z" fill="#5554ED"/>
<path d="M54.0906 68.4166C53.9468 68.4166 53.8043 68.3588 53.7049 68.2472C53.5255 68.0461 53.553 67.746 53.766 67.5767C54.2922 67.1586 54.8318 66.7545 55.3674 66.377C55.5912 66.221 55.9064 66.2635 56.073 66.4735C56.2397 66.6841 56.194 66.9822 55.9709 67.1396C55.4501 67.5069 54.9266 67.8983 54.4152 68.3043C54.3204 68.3798 54.2049 68.4166 54.0906 68.4166Z" fill="#E0E0E0"/>
<path d="M74.6088 122.714C73.9429 122.714 73.2641 122.7 72.5915 122.67C72.3133 122.658 72.0982 122.435 72.1116 122.172C72.1244 121.91 72.3663 121.707 72.6385 121.719C74.0141 121.78 75.3977 121.777 76.7263 121.711C77.0052 121.7 77.2417 121.898 77.2565 122.161C77.2713 122.424 77.0576 122.647 76.7794 122.661C76.067 122.696 75.3372 122.714 74.6088 122.714ZM69.179 122.394C69.1582 122.394 69.1374 122.392 69.1165 122.39C67.7336 122.228 66.3459 122.005 64.9918 121.726C64.7203 121.671 64.5476 121.417 64.6068 121.16C64.6666 120.904 64.9327 120.742 65.2068 120.796C66.5307 121.069 67.8875 121.287 69.2402 121.446C69.5164 121.478 69.7126 121.716 69.6783 121.976C69.6474 122.217 69.4297 122.394 69.179 122.394ZM80.1824 122.34C79.9371 122.34 79.7214 122.17 79.6844 121.934C79.6434 121.674 79.8336 121.432 80.1085 121.393C81.5203 121.194 82.8549 120.917 84.0746 120.567C84.342 120.492 84.6223 120.633 84.7036 120.885C84.7842 121.136 84.6337 121.402 84.3676 121.478C83.1009 121.841 81.7179 122.129 80.257 122.334C80.2328 122.339 80.2072 122.34 80.1824 122.34ZM61.7669 120.904C61.7158 120.904 61.6641 120.897 61.6123 120.881C60.2676 120.472 58.9546 119.974 57.7107 119.401C57.4607 119.285 57.3572 119 57.4788 118.764C57.6005 118.528 57.9022 118.43 58.1529 118.546C59.3537 119.099 60.6218 119.58 61.9214 119.976C62.1869 120.056 62.332 120.324 62.2467 120.574C62.1775 120.776 61.9799 120.904 61.7669 120.904ZM54.9347 117.843C54.8399 117.843 54.7445 117.819 54.6598 117.766C53.4878 117.045 52.3636 116.231 51.318 115.35C51.1103 115.175 51.0922 114.874 51.2776 114.678C51.4624 114.482 51.7816 114.465 51.9893 114.64C52.9973 115.49 54.0812 116.274 55.2102 116.969C55.4434 117.113 55.5092 117.408 55.3567 117.628C55.2599 117.767 55.0986 117.843 54.9347 117.843ZM49.2287 113.159C49.0883 113.159 48.9485 113.104 48.849 112.997C47.9365 112.012 47.083 110.947 46.3129 109.831C46.161 109.611 46.2269 109.317 46.4601 109.173C46.6919 109.029 47.0057 109.092 47.1576 109.312C47.9015 110.39 48.7267 111.419 49.6077 112.37C49.7912 112.568 49.7697 112.868 49.56 113.041C49.4646 113.12 49.347 113.159 49.2287 113.159ZM45.0206 107.226C44.8365 107.226 44.6584 107.13 44.5704 106.964C43.9495 105.797 43.3964 104.57 42.928 103.315C42.8353 103.067 42.9731 102.795 43.2358 102.708C43.4999 102.621 43.7862 102.751 43.8789 102.998C44.3332 104.215 44.8694 105.406 45.4709 106.536C45.5959 106.771 45.4957 107.057 45.2471 107.175C45.1745 107.209 45.0966 107.226 45.0206 107.226ZM42.4234 100.512C42.1962 100.512 41.9899 100.366 41.9335 100.149C41.6055 98.8749 41.3542 97.563 41.1855 96.2504C41.1519 95.9897 41.3488 95.7524 41.625 95.7207C41.9032 95.6903 42.1525 95.8749 42.1861 96.1356C42.3501 97.4114 42.5947 98.6858 42.9133 99.9235C42.9791 100.179 42.8131 100.436 42.5423 100.498C42.5027 100.508 42.4623 100.512 42.4234 100.512ZM41.4375 93.4224C41.164 93.4224 40.9396 93.2156 40.9335 92.9561C40.9295 92.748 40.9268 92.5406 40.9268 92.3344C40.9268 91.2186 40.994 90.0951 41.1257 88.9944C41.1566 88.7331 41.4093 88.5434 41.6828 88.5751C41.9597 88.6043 42.1586 88.8396 42.127 89.101C42 90.1668 41.9348 91.2547 41.9348 92.3344C41.9348 92.5349 41.9368 92.736 41.9415 92.9377C41.9469 93.2004 41.7258 93.4173 41.4476 93.423C41.4443 93.4224 41.4409 93.4224 41.4375 93.4224ZM42.205 86.3148C42.168 86.3148 42.1304 86.311 42.0927 86.3028C41.8213 86.2444 41.6512 85.9894 41.7131 85.7331C42.0208 84.4574 42.4254 83.1785 42.9146 81.9319C43.0114 81.6851 43.3017 81.5602 43.5624 81.6515C43.8231 81.7429 43.9562 82.0163 43.8594 82.2631C43.385 83.4703 42.9939 84.7092 42.6962 85.9444C42.6424 86.1651 42.4348 86.3148 42.205 86.3148ZM44.7532 79.586C44.6779 79.586 44.602 79.5701 44.5301 79.5365C44.2808 79.4198 44.1786 79.1349 44.3016 78.899C44.9138 77.7304 45.6133 76.5733 46.3821 75.4587C46.534 75.2386 46.8458 75.1764 47.0796 75.3198C47.3128 75.4632 47.3787 75.7575 47.2268 75.9783C46.4802 77.0618 45.8002 78.1859 45.2054 79.3215C45.1174 79.4889 44.9387 79.586 44.7532 79.586ZM48.8181 73.5518C48.7086 73.5518 48.5977 73.5182 48.5056 73.449C48.2872 73.286 48.2509 72.9866 48.4236 72.7804C49.2872 71.7514 50.2219 70.7542 51.2017 69.816C51.3973 69.6288 51.7164 69.6269 51.9147 69.8115C52.1129 69.9961 52.1149 70.2974 51.9201 70.4846C50.9658 71.3987 50.0553 72.3693 49.2146 73.3716C49.1138 73.4903 48.9666 73.5518 48.8181 73.5518Z" fill="#E0E0E0"/>
<path d="M87.4608 120.285C87.2773 120.285 87.1013 120.191 87.0119 120.026C86.8849 119.792 86.983 119.506 87.2303 119.386C87.8331 119.094 88.3915 118.775 88.8888 118.438C89.1152 118.286 89.4304 118.335 89.5917 118.548C89.7543 118.761 89.7019 119.058 89.4761 119.211C88.9385 119.575 88.3377 119.918 87.6899 120.232C87.6174 120.268 87.5387 120.285 87.4608 120.285Z" fill="#E0E0E0"/>
<path d="M75.2183 53.3577L59.0392 46.1442L59.7515 45.7896L75.1665 48.6848L76.7114 47.9154C76.997 47.7733 77.4533 47.7916 77.7315 47.9566C78.0091 48.1215 78.0024 48.3708 77.7174 48.5129L76.7686 48.9855L82.0841 50.0329L75.2183 53.3577Z" fill="#5554ED"/>
<path opacity="0.1" d="M75.2183 53.3577L59.0392 46.1442L59.7515 45.7896L75.1665 48.6848L76.7114 47.9154C76.997 47.7733 77.4533 47.7916 77.7315 47.9566C78.0091 48.1215 78.0024 48.3708 77.7174 48.5129L76.7686 48.9855L82.0841 50.0329L75.2183 53.3577Z" fill="black"/>
<path d="M79.7435 49.5444C87.0341 45.9348 92.9342 43.8883 94.7137 44.9458C96.4931 46.004 92.2239 49.0204 84.971 52.6522L78.5501 55.5843C72.1197 58.3115 65.5119 60.66 65.5119 60.66L65.8116 64.8577L65.1705 65.1768L62.283 62.152C62.283 62.152 60.6695 62.8797 59.7697 62.3443C58.8699 61.8088 60.3442 60.9994 60.3442 60.9994L55.0623 59.1667L55.7034 58.8476L63.3615 59.3811C63.3615 59.3811 68.2456 56.0075 73.8078 52.7639L79.7435 49.5444Z" fill="#5554ED"/>
<path d="M87.6852 54.4399L86.1396 55.2094L90.0762 63.8198L89.3639 64.1744L78.5494 55.5849L84.9703 52.6528L85.7304 54.3149L86.6792 53.8423C86.9648 53.7002 87.4211 53.7186 87.6987 53.8835C87.9769 54.0485 87.9708 54.2978 87.6852 54.4399Z" fill="#5554ED"/>
<path opacity="0.1" d="M87.6852 54.4399L86.1396 55.2094L90.0762 63.8198L89.3639 64.1744L77.1456 54.49L84.2311 51.0822L85.7304 54.3149L86.6792 53.8423C86.9648 53.7002 87.4211 53.7186 87.6987 53.8836C87.9769 54.0485 87.9708 54.2978 87.6852 54.4399Z" fill="black"/>
<path d="M248.221 101.569C241.14 105.533 235.361 107.868 233.526 106.899C231.69 105.93 235.787 102.707 242.829 98.7226L249.079 95.4778C255.349 92.4372 261.819 89.7658 261.819 89.7658L261.287 85.5885L261.909 85.2383L264.96 88.1165C264.96 88.1165 266.531 87.3102 267.459 87.8005C268.388 88.2909 266.96 89.1721 266.96 89.1721L272.336 90.7415L271.714 91.0917L264.037 90.9363C264.037 90.9363 259.346 94.5459 253.972 98.0597L248.221 101.569Z" fill="#5554ED"/>
<path d="M240.02 97.0726L241.52 96.2282L237.113 87.8234L237.804 87.4338L249.079 95.4784L242.829 98.7232L241.978 97.1011L241.057 97.62C240.78 97.7761 240.323 97.7799 240.036 97.6289C239.749 97.4773 239.742 97.2286 240.02 97.0726Z" fill="#5554ED"/>
<path opacity="0.1" d="M240.02 97.0726L241.52 96.2282L237.113 87.8234L237.804 87.4338L249.079 95.4784L242.829 98.7232L241.978 97.1011L241.057 97.62C240.78 97.7761 240.323 97.7799 240.036 97.6289C239.749 97.4773 239.742 97.2286 240.02 97.0726Z" fill="black"/>
<path d="M252.53 97.5382L269.086 103.944L268.393 104.333L252.839 102.202L251.339 103.046C251.061 103.202 250.604 103.206 250.318 103.055C250.032 102.904 250.024 102.654 250.301 102.498L251.222 101.98L245.856 101.197L252.53 97.5382Z" fill="#5554ED"/>
<path opacity="0.1" d="M252.53 97.5382L269.086 103.944L268.393 104.333L252.839 102.202L251.339 103.046C251.061 103.202 250.604 103.206 250.318 103.055C250.032 102.904 250.024 102.654 250.301 102.498L251.222 101.98L245.856 101.197L252.53 97.5382Z" fill="black"/>
<path d="M271.227 83.6041C271.108 83.6041 270.989 83.5642 270.892 83.4836C270.684 83.3091 270.665 83.0078 270.85 82.8118C271.726 81.8843 272.505 80.8776 273.169 79.8194C273.311 79.593 273.619 79.5181 273.859 79.652C274.098 79.7858 274.178 80.0776 274.036 80.3035C273.34 81.4143 272.521 82.4711 271.604 83.4436C271.504 83.5502 271.366 83.6041 271.227 83.6041ZM275.072 77.6898C275.011 77.6898 274.949 77.6797 274.889 77.6575C274.63 77.5623 274.501 77.2857 274.603 77.0415C275.076 75.8946 275.435 74.6937 275.67 73.4725C275.72 73.2137 275.988 73.043 276.256 73.0893C276.529 73.1363 276.711 73.3837 276.662 73.6425C276.416 74.924 276.039 76.1838 275.541 77.3879C275.464 77.575 275.274 77.6898 275.072 77.6898ZM276.505 70.8804C276.501 70.8804 276.496 70.8804 276.492 70.8798C276.214 70.8735 275.994 70.6546 276.001 70.392C276.006 70.2289 276.008 70.0659 276.008 69.9022C276.009 68.8384 275.919 67.7555 275.743 66.6834C275.701 66.4239 275.889 66.181 276.164 66.1404C276.443 66.1004 276.697 66.278 276.74 66.5375C276.923 67.6578 277.017 68.7895 277.016 69.9022C277.016 70.0735 277.014 70.2448 277.009 70.4167C277.002 70.6749 276.777 70.8804 276.505 70.8804ZM275.494 63.9981C275.277 63.9981 275.078 63.8661 275.011 63.6606C274.634 62.4864 274.149 61.3191 273.569 60.1912C273.448 59.9546 273.552 59.6704 273.803 59.5549C274.054 59.4401 274.354 59.539 274.476 59.775C275.08 60.9486 275.584 62.1628 275.976 63.384C276.057 63.6352 275.906 63.901 275.64 63.9778C275.591 63.9911 275.542 63.9981 275.494 63.9981ZM272.373 57.6981C272.208 57.6981 272.046 57.6213 271.949 57.4811C271.243 56.4515 270.444 55.4448 269.574 54.49C269.392 54.2908 269.417 53.9901 269.627 53.8189C269.838 53.6482 270.155 53.6698 270.338 53.8696C271.238 54.8567 272.065 55.8977 272.796 56.9641C272.947 57.1849 272.88 57.4792 272.646 57.6219C272.562 57.6733 272.467 57.6981 272.373 57.6981ZM267.637 52.3642C267.512 52.3642 267.388 52.3211 267.291 52.2342C266.349 51.3943 265.325 50.5829 264.249 49.8236C264.026 49.6662 263.981 49.3681 264.148 49.1575C264.314 48.9468 264.63 48.9037 264.853 49.0617C265.96 49.8432 267.013 50.6781 267.983 51.5427C268.186 51.7235 268.195 52.0242 268.003 52.2158C267.904 52.3148 267.771 52.3642 267.637 52.3642ZM261.775 48.1329C261.684 48.1329 261.593 48.1101 261.509 48.0613C261.047 47.7904 260.573 47.5252 260.089 47.2657C259.415 46.9061 258.723 46.554 258.03 46.219C257.782 46.0991 257.684 45.8124 257.811 45.5789C257.937 45.3455 258.241 45.2522 258.49 45.3721C259.194 45.7128 259.899 46.0712 260.585 46.4379C261.081 46.7037 261.567 46.9752 262.041 47.2531C262.278 47.3914 262.35 47.6851 262.204 47.9084C262.108 48.0536 261.944 48.1329 261.775 48.1329ZM201.531 47.8107C201.356 47.8107 201.187 47.7257 201.094 47.5728C200.955 47.345 201.038 47.0545 201.278 46.9232C202.446 46.2863 203.654 45.6804 204.868 45.1209C205.119 45.0042 205.42 45.1038 205.542 45.3398C205.664 45.5764 205.56 45.8606 205.31 45.9761C204.117 46.5261 202.931 47.1217 201.782 47.7472C201.702 47.7904 201.615 47.8107 201.531 47.8107ZM255.227 44.9103C255.158 44.9103 255.091 44.8976 255.024 44.8703C253.81 44.3666 252.561 43.8972 251.313 43.4753C251.05 43.3865 250.914 43.1144 251.008 42.867C251.102 42.6196 251.388 42.4908 251.653 42.5796C252.923 43.0091 254.194 43.4868 255.43 43.9993C255.685 44.1053 255.801 44.3857 255.689 44.6261C255.605 44.8044 255.42 44.9103 255.227 44.9103ZM208.149 44.7143C207.952 44.7143 207.765 44.6045 207.684 44.4225C207.577 44.1801 207.698 43.9016 207.954 43.8001C209.196 43.3085 210.474 42.8492 211.753 42.4362C212.019 42.3487 212.303 42.4838 212.394 42.7325C212.484 42.9812 212.343 43.2514 212.08 43.3364C210.821 43.7431 209.564 44.1947 208.343 44.6775C208.28 44.7029 208.214 44.7143 208.149 44.7143ZM248.289 42.5225C248.243 42.5225 248.194 42.5162 248.147 42.5035C246.878 42.1514 245.576 41.8367 244.275 41.5678C244.004 41.5113 243.832 41.2576 243.892 41.0013C243.952 40.7444 244.22 40.5826 244.492 40.6384C245.814 40.9125 247.139 41.2328 248.43 41.5906C248.697 41.6648 248.85 41.9294 248.772 42.1812C248.709 42.388 248.507 42.5225 248.289 42.5225ZM215.124 42.4191C214.904 42.4191 214.701 42.2821 214.639 42.0721C214.564 41.8196 214.719 41.5564 214.988 41.4853C216.285 41.1415 217.612 40.8338 218.936 40.5705C219.202 40.516 219.475 40.6803 219.532 40.9378C219.59 41.1948 219.415 41.4472 219.143 41.5018C217.842 41.7606 216.536 42.0639 215.261 42.402C215.215 42.4134 215.168 42.4191 215.124 42.4191ZM241.084 40.9873C241.058 40.9873 241.031 40.9854 241.003 40.9816C239.694 40.783 238.36 40.6245 237.038 40.5103C236.761 40.4862 236.557 40.2546 236.582 39.9933C236.607 39.7313 236.853 39.5409 237.129 39.5625C238.474 39.6792 239.831 39.8404 241.163 40.0415C241.438 40.0833 241.624 40.3276 241.581 40.5864C241.541 40.8205 241.327 40.9873 241.084 40.9873ZM222.343 40.9442C222.099 40.9442 221.884 40.7761 221.846 40.5407C221.804 40.2806 221.993 40.0377 222.267 39.9983C223.603 39.8042 224.961 39.6507 226.304 39.5409C226.582 39.5206 226.826 39.7129 226.85 39.9742C226.874 40.2362 226.668 40.4665 226.391 40.4893C225.07 40.5972 223.735 40.7482 222.421 40.9391C222.394 40.9423 222.369 40.9442 222.343 40.9442ZM233.731 40.3111C233.725 40.3111 233.719 40.3111 233.714 40.3104C232.381 40.266 231.047 40.2635 229.716 40.3028C229.434 40.3193 229.205 40.1043 229.197 39.8423C229.188 39.5796 229.407 39.3601 229.686 39.3519C231.039 39.3119 232.394 39.3138 233.75 39.3595C234.028 39.369 234.246 39.5892 234.236 39.8518C234.225 40.1093 234.001 40.3111 233.731 40.3111Z" fill="#E0E0E0"/>
</svg>
