<svg width="26" height="22" viewBox="0 0 26 22" fill="none" xmlns="http://www.w3.org/2000/svg">
<path fill-rule="evenodd" clip-rule="evenodd" d="M11.7062 0.292134C11.5187 0.105071 11.2645 0 10.9995 0C10.7345 0 10.4803 0.105071 10.2928 0.292134L0.292463 10.2812C0.105188 10.4685 0 10.7224 0 10.9871C0 11.2518 0.105188 11.5057 0.292463 11.693L10.2928 21.6821C10.3844 21.7802 10.4948 21.8589 10.6174 21.9135C10.7401 21.9681 10.8725 21.9975 11.0068 21.9998C11.1411 22.0022 11.2744 21.9775 11.399 21.9273C11.5235 21.8771 11.6366 21.8023 11.7316 21.7074C11.8265 21.6126 11.9014 21.4996 11.9517 21.3752C12.002 21.2508 12.0267 21.1176 12.0243 20.9835C12.0219 20.8493 11.9926 20.7171 11.9379 20.5945C11.8832 20.472 11.8044 20.3617 11.7062 20.2703L3.41257 11.986H25C25.2652 11.986 25.5196 11.8808 25.7071 11.6934C25.8946 11.5061 26 11.252 26 10.9871C26 10.7222 25.8946 10.4681 25.7071 10.2808C25.5196 10.0934 25.2652 9.98819 25 9.98819H3.41257L11.7062 1.70392C11.8935 1.51663 11.9986 1.26274 11.9986 0.998028C11.9986 0.733317 11.8935 0.47943 11.7062 0.292134Z" fill="#667085"/>
</svg>
